<svg xmlns="http://www.w3.org/2000/svg" width="600" height="600" viewBox="0 0 600 600">
  <filter id="grainy">
    <feTurbulence type="fractalNoise" baseFrequency="2.5" numOctaves="3" result="noise"/>
    <feColorMatrix type="matrix" values="1 0 0 0 1  0 1 0 0 1  0 0 1 0 1  0 0 0 0.3 0" result="fadeNoise"/>
    <feBlend mode="screen" in="SourceGraphic" in2="fadeNoise" />
  </filter> 
  <rect width="600" height="600" fill="#000000" />
    <path fill="#ffffff" d="M 600 325.1 v -1.2 c -6.5 3.8 -13.1 7.6 -14.7 8.6 c -10.6 6.6 -18.6 12.6 -24.7 19.1 c -5.6 5.9 -12.4 10.1 -22.4 14.1 c -1.5 0.6 -3 1.2 -4.8 1.9 l -4.8 1.8 c -9.8 3.8 -14.8 6.3 -19 10.1 c -4.2 3.9 -9.6 6.6 -16.8 8.8 c -1.9 0.6 -4 1.2 -6.5 1.8 l -6.1 1.5 c -5.3 1.4 -8.3 2.4 -10.5 3.8 c -3.1 1.9 -6.6 3.3 -12.7 5 C 455.4 401.1 453.8 401.5 452.2 402 c -2 0.6 -3.6 1 -5.2 1.5 C 443.2 404.6 439.5 406 435.8 407.5 c -2.7 1.1 -5.5 3.9 -8.8 8.4 C 424.9 418.9 422.8 422 420.9 425.1 c -5.8 9.1 -7.6 11.7 -10.2 14.5 C 409.2 441.1 407.7 442.6 406 443.9 c -2.3 1.9 -10.4 7.5 -11.8 8.7 C 392.8 453.7 391.5 455.2 390.6 456.8 c -1.2 2.3 -1.9 4.6 -2.8 8.9 c -2.2 10.6 -3.5 14.8 -8.2 22.1 c -4.1 6.3 -6.8 9.9 -9.8 13 c -0.5 0.5 -0.9 1 -1.5 1.5 l -3.8 3.6 c -1.7 1.6 -3.2 3.1 -4.9 4.9 C 355.1 515.5 351.7 521.3 349.8 527.6 c -2.5 8.1 -2.7 15.5 -1.8 27.2 c 0.5 5.8 0.5 6.4 0.5 8.2 c 0 10.5 0.1 17.5 0.6 25.8 c 0.2 4 0.6 7.8 1 11.2 h 0.9 c -1.1 -9.6 -1.5 -21.8 -1.5 -37 c 0 -1.9 0 -2.4 -0.5 -8.3 c -0.9 -11.6 -0.7 -18.9 1.7 -26.9 C 352.6 521.7 355.9 516 360.4 511.3 c 1.7 -1.8 3.2 -3.3 4.8 -4.9 c 0.6 -0.6 3.1 -3 3.8 -3.6 C 369.5 502.4 370 501.9 370.5 501.4 c 3.1 -3.2 5.9 -6.8 10 -13.1 c 4.8 -7.4 6.1 -11.7 8.3 -22.4 c 0.9 -4.2 1.5 -6.4 2.7 -8.6 c 0.7 -1.3 1.8 -2.5 3.4 -3.9 c 1.4 -1.1 9.4 -6.8 11.8 -8.7 c 1.7 -1.4 3.3 -2.8 4.7 -4.3 c 2.7 -2.9 4.6 -5.5 10.4 -14.7 C 423.7 422.6 425.7 419.5 427.8 416.5 c 3.2 -4.3 5.9 -7 8.4 -8.1 c 3.5 -1.5 7.1 -2.8 11.1 -4 C 449.8 403.7 452.4 402.9 454.9 402.2 l 2.4 -0.7 c 6.2 -1.8 9.8 -3.2 13 -5.1 c 2.1 -1.3 5.1 -2.3 10.3 -3.6 l 6.1 -1.5 c 2.5 -0.6 4.6 -1.2 6.5 -1.8 c 7.2 -2.3 12.8 -5.1 17.1 -9.1 c 4 -3.7 9 -6.2 18.7 -9.9 l 4.8 -1.8 c 1.9 -0.7 3.4 -1.3 4.9 -1.9 c 10.1 -4.1 17.1 -8.3 22.8 -14.4 c 6 -6.4 14 -12.4 24.5 -18.9 c 1.6 -1 7.8 -4.6 14.1 -8.3 v -64.6 c -4 8.1 -8.5 14.9 -12.7 17.9 c -2.5 1.8 -5.4 4 -9 6.9 C 576.2 287 574.1 288.6 572 290.3 l -1.3 1 C 569.1 292.6 567.5 293.9 565.9 295.2 c -7.5 6 -12.9 10.1 -17.6 13.2 c -3.1 2.1 -3.9 2.8 -8.1 7.1 c -5.8 6.1 -11.7 8.6 -29.1 10.9 c -11.3 1.5 -20 4.9 -30.8 11.1 c -1.6 0.9 -7.3 4.3 -7 4.1 c -2.7 1.6 -4.7 2.7 -6.6 3.7 c -5.6 2.8 -10.5 4.2 -15.7 4.2 c -17.1 0 -41.4 11.5 -51.6 22.8 c -12.1 13.4 -31.4 27.7 -45.3 31.2 c -7.4 1.9 -11.9 7.1 -14 14.7 c -1.3 4.4 -1.6 8.3 -1.6 13.8 c 0 0.8 0 1 0.2 3.6 c 0.4 5.2 0.4 8.7 -0.8 13.3 c -1.5 6.2 -4.9 12.6 -10.6 19.4 c -13.9 16.6 -22.9 46.6 -22.9 71.7 c 0 2.4 0 4.3 0.1 8.8 c 0.1 10.8 0.1 15.8 -0.2 22 c -0.6 11.2 -2.1 20.7 -5 29.3 h -1.1 c 2.9 -8.6 4.5 -18.1 5.1 -29.4 c 0.3 -6.1 0.3 -11.1 0.2 -21.9 c 0 -4.5 -0.1 -6.4 -0.1 -8.8 c 0 -25.3 9.1 -55.5 23.1 -72.3 c 5.6 -6.7 8.9 -13 10.4 -19 c 1.1 -4.4 1.2 -7.9 0.7 -12.9 c -0.2 -2.7 -0.2 -2.9 -0.2 -3.7 c 0 -5.6 0.3 -9.6 1.6 -14.1 c 2.3 -7.9 7 -13.4 14.8 -15.4 c 13.6 -3.4 32.8 -17.6 44.8 -30.8 C 409 360.1 433.6 348.5 451 348.5 c 5.1 0 9.8 -1.3 15.3 -4.1 c 1.9 -1 3.9 -2.1 6.6 -3.6 c -0.3 0.2 5.3 -3.2 7 -4.1 c 10.8 -6.2 19.7 -9.7 31.1 -11.2 c 17.2 -2.3 22.9 -4.8 28.6 -10.6 c 4.3 -4.4 5 -5.2 8.2 -7.3 c 4.7 -3.1 10 -7.1 17.5 -13.1 C 566.9 293.1 568.5 291.9 570.1 290.6 l 1.3 -1 C 573.5 287.9 575.6 286.2 577.6 284.6 c 3.7 -2.9 6.5 -5.1 9.1 -6.9 c 4.4 -3.2 9.2 -10.6 13.3 -19.4 v 66.9 z m 0 -116.2 c -0.6 0 -1.3 0.1 -2 0.1 c -6.1 0.6 -13.8 3.4 -21.8 7.4 c -3.6 1.8 -8.5 2.7 -14.2 2.7 c -4.7 0 -9.7 -0.5 -14.7 -1.3 c -1.7 -0.3 -3.3 -0.6 -4.7 -0.9 C 541.5 216.6 540.3 216.5 539.1 216.3 C 533.6 215.9 528 215.6 522.4 215.4 c -10.4 -0.2 -17.2 0.7 -18 2.7 c -0.4 1 0.6 2.6 3 4.9 c 1 1 2.2 2 4 3.6 C 513.1 227.9 514.7 229.3 516.3 230.6 c 1.4 1.2 3.1 1.9 5.5 2.5 c 0.7 0.2 0.9 0.2 2.6 0.5 c 3.5 0.7 5 1.3 6.1 2.6 c 1.4 1.8 1.4 4.5 -0.1 8.9 c -2.4 6.8 -5.7 10.1 -10.2 10.3 c -3.6 0.2 -7.6 -1.3 -14.5 -5.1 c -4.5 -2.5 -6.8 -7.3 -8.3 -15.3 c -0.2 -0.9 -0.3 -1.8 -0.5 -2.9 l -0.4 -2.8 c -1.1 -6.6 -1.9 -9.2 -3.7 -10.1 c -0.8 -0.4 -1.6 -0.7 -2.4 -1 c -2.3 -0.8 -4.6 -1 -8.1 -0.9 c -2.3 0.1 -14.7 1 -13.8 0.9 c -20.6 1.4 -28.8 5.1 -37.1 15 C 430 235.2 428.6 237 427.2 238.9 l -2.3 3.1 l -2.5 3.3 c -4.1 5.4 -7.1 8.5 -10.4 11.1 c -0.6 0.5 -1.3 1 -2.1 1.6 l -4.1 2.9 C 404 262.3 402.3 263.6 400.6 265 c -4.6 3.7 -9.7 8.6 -16.3 15.4 c -8.3 8.6 -11.8 13.5 -11.7 15.9 c 0.1 1.6 1.6 2.1 6.8 2.4 c 1.6 0.1 2.1 0.1 3 0.2 c 2.9 0.2 5.1 0.7 6.8 1.7 c 7.5 4.1 11.6 7.3 13.9 11.6 c 3.3 6.1 0.8 12.9 -8.9 20.3 c -8.3 6.3 -11.1 10.4 -11.3 15 c -0.1 1.2 0 1.9 0.3 4.4 c 0.7 6.5 0.3 10.6 -2.8 17.4 C 379.3 371.8 377.9 374.4 376.3 376.7 c -2.8 4 -5.5 5.7 -10.6 7.7 c -0.4 0.2 -3.3 1.2 -4.3 1.6 c -1.8 0.7 -3.4 1.4 -5 2.1 c -4.2 2 -8.4 4.6 -13.1 8.2 c -8.4 6.5 -13.2 14.6 -16 25.1 c -1.1 4.2 -1.6 6.8 -2.8 15.2 c -1.3 8.6 -2.2 12.6 -4.1 16.6 c -2.1 4.3 -11.9 26.6 -13 28.9 C 305.4 486.6 303.3 491.1 301.1 495.5 c -4.1 8.1 -7.6 14.1 -10.7 17.8 c -5.4 6.5 -9 14.4 -13.8 28.4 C 276 543.6 275.3 545.5 274.7 547.3 c -1.8 5.4 -3 8.6 -4.3 11.9 c -6.1 15.3 -25.4 26.3 -46.5 26.3 c -11.2 0 -20.6 -2.7 -31 -8.5 c -5.6 -3.1 -4.6 -2.4 -22.3 -14.5 c -14.3 -9.8 -17.7 -10.7 -20.5 -6.9 c -0.4 0.5 -1.8 2.7 -1.8 2.8 C 146.9 560.4 145.3 562.3 143.5 564.2 c -0.7 0.8 -5.5 5.9 -7 7.5 c -2.4 2.6 -4.3 4.8 -6 6.9 C 128.6 580.9 126.9 583.5 125.4 586.2 c -1.3 2.6 -1.9 5.3 -2.7 10.6 C 122.6 597.9 122.5 598.9 122.3 600 h -1 l 0.5 -3.3 c 0.8 -5.5 1.4 -8.2 2.8 -10.9 C 126 583 127.8 580.4 129.7 577.9 c 1.7 -2.1 3.6 -4.4 6 -7 c 1.4 -1.6 6.2 -6.7 7 -7.5 C 144.5 561.7 146.1 559.8 147.6 557.7 s 1.5 -2.3 1.9 -2.8 c 3.3 -4.5 7.1 -3.4 21.8 6.7 c 17.7 12.1 16.6 11.4 22.2 14.5 c 10.3 5.7 19.5 8.4 30.5 8.4 c 20.7 0 39.6 -10.8 45.5 -25.7 C 271.1 554.9 272.5 551 273.8 547 C 274.4 545.1 275 543.3 275.7 541.4 c 4.8 -14.2 8.5 -22.1 14 -28.7 c 3.1 -3.7 6.6 -9.6 10.6 -17.6 c 2 -3.9 4 -8.3 6.4 -13.4 c 1 -2.3 10.9 -24.6 13 -28.9 c 1.9 -3.8 2.8 -7.8 4 -16.3 c 1.2 -8.4 1.7 -11.1 2.8 -15.3 c 2.8 -10.7 7.7 -18.9 16.3 -25.6 C 346.8 392.4 351.3 389.6 356 387.3 c 1.7 -0.8 3.3 -1.5 5.1 -2.2 c 0.9 -0.4 3.9 -1.4 4.3 -1.6 c 4.9 -1.9 7.4 -3.6 10.1 -7.3 c 1.4 -1.9 2.7 -4.3 4.1 -7.4 c 3 -6.6 3.4 -10.6 2.7 -16.9 C 382 350.4 382 348.8 382 347.3 c 0.2 -4.9 3.2 -9.2 11.7 -15.7 c 9.3 -7.1 11.7 -13.3 8.6 -19 c -2.2 -4.1 -6.3 -7.1 -13.6 -11.2 c -1.6 -0.9 -3.6 -1.3 -6.4 -1.6 c -0.8 -0.1 -1.3 -0.1 -2.9 -0.2 c -5.8 -0.3 -7.6 -0.9 -7.7 -3.3 c -0.1 -2.8 3.5 -7.9 12 -16.7 c 6.5 -6.8 11.8 -11.7 16.3 -15.4 c 1.8 -1.5 3.4 -2.7 5.2 -4 l 4.1 -2.9 c 0.8 -0.6 1.5 -1.1 2.1 -1.6 c 3.3 -2.6 6.2 -5.7 10.2 -10.9 C 422.4 243.6 423.3 242.5 424.1 241.4 l 2.3 -3.1 c 1.8 -2.4 3 -4 4.3 -5.5 c 8.5 -10.2 17 -14 37.3 -15.3 c -0.4 0 12 -0.9 14.3 -1 c 3.6 -0.1 6.1 0.2 8.5 1 c 0.8 0.3 1.6 0.6 2.5 1 c 2.3 1.1 3.2 3.9 4.3 10.8 l 0.4 2.8 c 0.2 1.1 0.3 2 0.5 2.8 c 1.4 7.7 3.6 12.3 7.8 14.6 c 6.8 3.7 10.6 5.2 14 4.9 c 4 -0.3 7 -3.2 9.3 -9.7 c 1.5 -4 1.5 -6.5 0.3 -7.9 c -0.9 -1.1 -2.3 -1.6 -5.6 -2.3 C 523.4 234.5 522.5 234.3 521.6 234.1 c -2.5 -0.6 -4.4 -1.4 -5.9 -2.7 C 514.1 230 512.5 228.7 510.9 227.4 C 509.5 226.2 508.1 225 506.8 223.8 c -2.7 -2.6 -3.9 -4.4 -3.3 -5.9 c 1 -2.6 7.8 -3.5 18.9 -3.4 C 528 214.5 533.6 214.8 539.2 215.3 c 2.8 0.4 3.2 0.5 3.7 0.6 c 1.4 0.3 3 0.6 4.6 0.9 C 552.3 217.7 557.2 218.1 562 218.2 c 5.6 0 10.2 -0.9 13.7 -2.6 c 8.1 -4.1 15.9 -6.9 22.2 -7.6 c 0.7 -0.1 1.4 -0.1 2 -0.1 v 1 z m 0 -100.9 v 1.5 c -8.6 16 -17.3 29.6 -23.6 35.9 c -3.2 3.2 -7.6 4.9 -13.5 5.6 c -4.5 0.5 -8.3 0.4 -19.2 -0.2 c -9.9 -0.6 -15.3 -0.4 -20.5 0.8 C 518.2 152.6 513.2 153.3 508.1 153.6 l -2.3 0.1 c -12.5 0.8 -19.4 1.8 -32.7 5.7 c -4.5 1.3 -9.3 2.5 -14.3 3.5 C 448.1 165 437.2 166.3 426.2 166.9 c -7.6 0.4 -13.2 0.6 -20.2 0.6 c -5.4 0 -11.9 1.6 -18 5.2 c -8.3 4.9 -15.1 12.9 -19.5 24.5 C 367.2 200.6 365.7 203.8 363.9 207 c -3.6 6.2 -6.9 9 -13.4 12.2 l -4 2 C 341 223.8 335.9 227.2 331.3 231.4 c -8.2 7.3 -13.7 16.6 -22.5 35.6 l -2.1 4.5 c -7.3 15.7 -11.5 23.3 -17.4 29.9 c -7.7 8.7 -20.3 14.4 -40.3 20.1 c -4.4 1.2 -19 5.1 -19.2 5.1 c -6.9 1.9 -11.7 3.3 -15.6 4.9 c -10.6 4.2 -18.7 10.5 -36.4 26.5 l -1.7 1.5 c -8.6 7.8 -13.4 11.9 -18.8 15.9 c -3.9 2.9 -8 5.7 -13 8.9 c -2.1 1.3 -10.3 6.6 -12.3 7.9 c -11.5 7.5 -18.5 13 -24.6 20.1 C 105 415.1 102.8 418 100.9 421.2 c -4.1 6.9 -6.3 13.1 -9.2 25.1 l -1.5 6.3 c -0.6 2.4 -1.2 4.5 -1.7 6.6 c -3 10.7 -6.9 17.4 -14.8 26.9 L 69.6 491 C 68.2 492.7 66.8 494.5 65.4 496.3 C 64 498.2 62.8 500.3 62 502.6 c -1.2 3.2 -1.5 5.9 -1.9 11.9 c -0.6 10 -1.4 15 -4.6 22.7 c -1.6 3.7 -5.7 14 -6.4 15.8 C 48 555.5 46.8 558 45.5 560.4 c -2.9 5.1 -6.7 10.1 -13.1 17 c -6 6.4 -8.9 10.9 -10.6 16 C 21.2 594.9 20.8 596.5 20.4 598.2 l -0.5 1.8 h -1 l 0.5 -2.1 c 0.5 -2.1 0.9 -3.5 1.4 -4.9 c 1.8 -5.3 4.8 -9.9 10.8 -16.4 c 6.4 -6.8 10.1 -11.7 13 -16.8 C 45.9 557.5 47.1 555.1 48.1 552.6 c 0.8 -1.8 4.8 -12.1 6.4 -15.8 c 3.2 -7.5 4 -12.4 4.6 -22.3 c 0.4 -6.1 0.7 -8.9 1.9 -12.2 C 61.9 499.9 63.1 497.7 64.6 495.7 c 1.3 -1.7 2.6 -3.4 4.2 -5.3 l 4.1 -4.9 c 7.8 -9.5 11.7 -16 14.6 -26.5 c 0.6 -2 1.1 -4.1 1.7 -6.6 l 1.5 -6.3 c 3 -12 5.1 -18.4 9.3 -25.4 c 1.8 -3.1 4 -6.1 6.5 -9 c 6.2 -7.1 13.2 -12.7 24.8 -20.3 c 2.1 -1.3 10.3 -6.6 12.3 -7.9 c 5 -3.2 9 -6 12.9 -8.9 c 5.4 -3.9 10.2 -8.1 18.7 -15.8 l 1.7 -1.5 c 17.8 -16.1 26 -22.4 36.7 -26.7 c 4 -1.6 8.8 -3.1 15.8 -5 c 0.2 -0.1 14.9 -3.9 19.2 -5.1 c 19.9 -5.6 32.3 -11.3 39.8 -19.8 c 5.8 -6.5 9.9 -14 17.2 -29.6 l 2.1 -4.5 c 8.9 -19.1 14.4 -28.5 22.8 -35.9 C 335.3 226.5 340.5 222.9 346.1 220.2 l 4 -2 c 6.3 -3.1 9.5 -5.8 13 -11.8 C 364.8 203.4 366.3 200.2 367.5 196.8 c 4.6 -11.8 11.5 -20 20 -25 c 6.3 -3.7 12.9 -5.3 18.5 -5.3 c 7 0 12.6 -0.1 20.2 -0.6 C 437.1 165.3 447.9 164 458.7 162 c 5 -1 9.8 -2.1 14.2 -3.4 c 13.4 -4 20.4 -5 32.9 -5.8 l 2.2 -0.1 c 5.8 -0.4 9.8 -0.9 14.8 -2.1 c 5.3 -1.3 10.8 -1.3 22.6 -0.7 c 9 0.5 12.8 0.6 17.2 0.1 c 5.7 -0.6 9.9 -2.3 13 -5.3 c 6.4 -6.4 15.3 -20.4 24.4 -36.7 z m 0 450.2 c -1.3 -4.6 -2.2 -10.5 -3.3 -20.3 l -0.2 -2 l -0.2 -2 c -1.8 -15.7 -3.1 -22 -5.5 -24.5 c -2.5 -2.5 -3 -5 -2.5 -8.6 c 0.1 -0.6 0.2 -1.1 0.4 -2.1 c 0.7 -3.5 0.8 -5 0.1 -6.8 c -0.9 -2.4 -3.3 -4.4 -7.8 -6.3 c -5.1 -2.1 -6.5 -4.8 -4.9 -8.4 c 0.7 -1.4 1.8 -3 3.5 -5 c 1 -1.2 5.5 -6 5.1 -5.5 c 6.1 -6.7 9 -11.3 9 -16.5 C 593.4 444.9 595.8 440 600 437.1 v 1.3 C 596.4 441.1 594.4 445.5 594.5 450 c 0 5.5 -2.9 10.3 -9.2 17.2 c 0.4 -0.4 -4 4.3 -5.1 5.5 c -1.7 1.9 -2.8 3.4 -3.4 4.8 c -1.4 3 -0.2 5.2 4.4 7.1 c 4.7 1.9 7.3 4.2 8.3 6.8 c 0.8 2 0.7 3.7 0 7.4 c -0.2 1 -0.3 1.5 -0.4 2.1 c -0.5 3.3 0 5.6 2.2 7.8 c 2.7 2.7 4 9 5.8 25.1 l 0.2 2 l 0.2 2 c 0.8 7 1.5 12.1 2.3 16 v 4.3 z m 0 -62.2 c -1.4 -3.1 -4.4 -9.9 -5 -11.2 c -1 -2.5 -1.3 -3.8 -0.9 -5.2 c 0.2 -0.8 2 -4.7 2.3 -5.3 C 597.9 470.7 599.1 466.9 600 463.1 v 4 C 599.3 469.7 598.4 472.2 597.4 474.7 c -0.3 0.8 -2.1 4.5 -2.3 5.2 c -0.3 1.1 -0.1 2.2 0.9 4.6 c 0.4 1 2.5 5.7 4 9.1 v 2.4 z m 0 -85.1 c -1.6 1.7 -3.7 2.9 -6.4 4.1 c -0.3 0.1 -14 5.5 -20.4 8.4 c -9.4 4.3 -16.7 5.9 -23 5.3 c -5.1 -0.5 -9 -2.3 -14.8 -5.9 l -3.2 -2.1 C 530.4 419.5 528.6 418.5 526.8 417.4 c -4 -2.2 -3.3 -5.8 1.5 -10.5 c 3.7 -3.7 9.6 -7.9 18.7 -13.8 l 4.5 -2.8 c 18 -11.3 18.2 -11.5 22.3 -14.7 c 11.3 -9 19.7 -14 26.3 -15.1 v 1 c -6.4 1.1 -14.6 6 -25.7 14.9 c -4.1 3.3 -4.3 3.4 -22.4 14.8 C 550.5 392.1 549 393.1 547.5 394 c -9.1 5.8 -14.9 10.1 -18.6 13.7 c -4.3 4.3 -5 7.1 -1.7 8.9 c 1.7 0.9 3.3 1.9 5.5 3.3 l 3.2 2.1 c 5.6 3.6 9.5 5.3 14.3 5.8 c 6.1 0.6 13.3 -0.9 22.5 -5.1 c 6.5 -3 20.2 -8.4 20.4 -8.4 c 3 -1.4 5.1 -2.7 6.8 -4.7 v 1.5 z m 0 -41.4 v 1 c -6.6 0.3 -12.1 3.1 -19.7 9.1 l -4.6 3.7 C 574.2 384.4 572.8 385.5 571.3 386.4 c -0.8 0.5 -5.5 3.3 -6.2 3.8 c -3.3 2 -6.1 3.8 -8.9 5.6 C 553.4 397.6 550.6 399.6 548 401.7 c -4.6 3.7 -7.4 6.9 -8 9.4 c -0.6 2.7 1.5 4.5 7 5.5 c 10.7 1.8 20.9 -0.1 30.5 -4.6 C 583.9 408.8 589.7 404.7 594.6 399.7 C 596.7 397.4 598.5 394.9 600 392.2 v 1.9 C 598.7 396.4 597.1 398.4 595.4 400.4 C 590.3 405.4 584.4 409.6 578 412.8 c -9.7 4.7 -20.1 6.6 -31 4.7 c -6.1 -1 -8.6 -3.3 -7.9 -6.7 c 0.6 -2.7 3.5 -6.1 8.3 -9.9 c 2.4 -1.9 5.1 -3.9 8.2 -6 c 2.7 -1.8 5.6 -3.6 8.9 -5.6 c 0.7 -0.4 5.4 -3.2 6.2 -3.8 c 1.3 -0.8 2.6 -1.8 4.3 -3.1 c 0.8 -0.6 3.9 -3.1 4.6 -3.7 c 7.8 -6.1 13.5 -9 20.3 -9.3 z m 0 -154.6 v 1 c -1.8 -0.2 -4.3 0.2 -7.8 1.6 c -10 3.8 -13.8 5.1 -19.1 6.8 c -1.8 0.6 -2.6 0.8 -3.9 1.2 c -1.5 0.5 -3.2 0.8 -6.7 1.2 C 561.5 226.7 560.7 226.8 559.8 226.9 c -7.8 0.9 -11.3 2.5 -11.3 6.1 c 0 4.4 2.9 13.2 8 25.8 C 557.4 261.3 558.2 263.8 558.8 266.4 C 559.1 267.6 559.4 268.7 559.6 269.9 c 1.9 7.6 3.2 10.7 5.6 11.7 c 2.2 0.9 4.7 0.6 7.5 -0.7 c 3.5 -1.7 7.2 -4.9 11.2 -9.5 c 1.5 -1.7 3 -3.5 4.6 -5.6 l 3.2 -4.1 c 2.6 -3.2 6.1 -12.2 8.4 -20.2 v 3.4 c -2.3 7.2 -5.3 14.5 -7.6 17.4 c -0.4 0.6 -2.7 3.5 -3.1 4.1 c -1.6 2.1 -3.1 3.9 -4.6 5.6 c -4.1 4.6 -7.9 7.9 -11.5 9.7 c -3 1.4 -5.8 1.8 -8.3 0.7 c -2.8 -1.1 -4.2 -4.3 -6.1 -12.4 C 558.4 269 558.1 267.8 557.8 266.7 c -0.8 -3.2 -1.5 -5.4 -2.3 -7.5 c -5.1 -12.8 -8 -21.6 -8 -26.2 c 0 -4.4 3.8 -6.1 12.2 -7.1 C 560.5 225.8 561.4 225.7 562.3 225.6 c 3.5 -0.4 5.1 -0.6 6.5 -1.1 c 1.3 -0.4 2.1 -0.7 3.9 -1.3 c 5.3 -1.7 9.1 -3 19.1 -6.7 c 3.5 -1.3 6.2 -1.8 8.2 -1.6 z M 0 292 c 10.1 -11.3 18.1 -23.2 23.1 -35.4 c 3.3 -8.1 6.1 -16.1 10.8 -30.6 l 1.6 -4.8 c 6.5 -19.9 10.1 -29.8 14.8 -39.6 c 6.1 -12.7 12.5 -21.2 20.3 -25.5 c 6.7 -3.8 10.2 -7.9 12.2 -13.2 C 83.5 140.8 84.1 138.6 84.6 136.4 c 1.2 -5.2 2 -7.6 3.9 -10.4 c 2.5 -3.6 6.3 -6.5 12.1 -9 c 15.8 -6.6 16.7 -7 18 -9 c 0.7 -1 0.8 -2.2 0.7 -4.5 c 0 -0.7 -0.2 -3.8 -0.2 -4 C 119.1 97.7 119 95.9 119 94 c 0 -10 0.2 -11.4 2.4 -13.2 c 0.5 -0.4 1.1 -0.8 2.1 -1.3 c 0.3 -0.1 2.2 -1.1 2.8 -1.5 C 129.5 76.4 132.5 74.4 135.4 72.2 c 2.1 -1.5 2.6 -2.1 8 -7.9 c 3.8 -4.1 6.2 -6.4 9 -8.1 c 3.6 -2.3 7.2 -3.1 10.9 -2.1 c 4.4 1.2 10.8 2 18.8 2.5 c 6.9 0.4 12.9 0.5 21.9 0.5 c 4.9 0 9 0.5 15.4 1.6 c 7.8 1.3 9.3 1.5 12.4 1.5 c 4.1 0 7.4 -0.9 10.7 -3 c 5.1 -3.2 8.1 -4.7 11.2 -5.2 c 3.6 -0.6 4.8 -0.5 16.5 2.1 c 17.3 3.7 30.9 1.4 41.1 -9.7 c 5.1 -5.5 5.5 -8.9 3.5 -14.8 c -0.8 -2.4 -1 -3.1 -1.2 -4.3 c -0.3 -2.5 0.5 -4.7 2.7 -6.9 c 2.6 -2.7 4.7 -9.2 6.2 -18.3 h 2 c -1.6 9.7 -3.8 16.6 -6.8 19.7 c -1.8 1.8 -2.4 3.4 -2.1 5.3 c 0.1 1 0.3 1.6 1.1 3.9 c 2.2 6.5 1.8 10.7 -3.9 16.8 c -10.8 11.7 -25.1 14.1 -42.9 10.3 c -11.4 -2.5 -12.6 -2.6 -15.8 -2.1 c -2.8 0.5 -5.6 1.8 -10.5 4.9 C 240 61.1 235.9 62.2 231.8 62.1 c -3.3 0 -4.8 -0.2 -12.7 -1.6 C 212.7 59.5 208.7 59 204 59 c -9.1 0 -15.1 -0.1 -22.1 -0.5 c -8.1 -0.5 -14.6 -1.3 -19.2 -2.5 c -5.6 -1.5 -10.2 1.4 -17.8 9.7 c -5.5 5.9 -6.1 6.5 -8.3 8.2 C 133.6 76.1 130.5 78.1 127.2 79.8 c -0.7 0.4 -2.6 1.3 -2.8 1.5 c -0.8 0.4 -1.3 0.8 -1.8 1.1 C 121.2 83.6 121 84.8 121 94 c 0 1.8 0.1 3.5 0.2 5.4 c 0 0.2 0.2 3.3 0.2 4 c 0.1 2.8 -0.1 4.3 -1.1 5.7 c -1.7 2.5 -2.3 2.8 -19 9.7 c -5.5 2.3 -9 5 -11.2 8.2 c -1.7 2.5 -2.5 4.7 -3.6 9.7 c -0.8 3.5 -1.2 4.9 -1.9 6.8 c -2.2 5.7 -6 10.2 -13.1 14.2 c -7.3 4.1 -13.5 12.3 -19.5 24.7 c -4.6 9.6 -8.2 19.5 -14.7 39.3 l -1.6 4.8 c -4.8 14.5 -7.5 22.5 -10.9 30.7 c -5.3 13 -13.9 25.6 -24.9 37.6 v -3 z m 0 78 v -0.5 l 1 0 c 6.3 0 7.5 5.2 4.6 13.4 C 4.1 386.8 2.3 390.6 0 394.1 v -1.9 C 1.8 389.1 3.4 385.9 4.6 382.5 c 2.7 -7.6 1.7 -12 -3.6 -12 c -0.3 0 -0.7 0 -1 0 v -46.6 C 4.6 321.2 9.2 318.5 13.7 315.6 c 13.7 -9.5 29.8 -37.6 29.8 -53.6 c 0 -18.1 21.6 -72.6 32.2 -79.4 c 12.7 -8.1 32.2 -28 35.8 -37.8 c 1.9 -5.3 5.5 -7.3 14.4 -9.4 c 6.1 -1.4 8.6 -2.4 10.7 -4.8 c 1.5 -1.7 2.7 -4.8 4.3 -10.3 c 0.2 -0.8 1.9 -6.7 2.4 -8.5 c 3.6 -12.1 7.3 -18.5 13.5 -20.4 c 2.5 -0.8 3 -1 9.7 -3.7 c 7.5 -3 12 -4.4 17.1 -4.9 c 6.8 -0.7 13.1 0.8 19.6 4.7 c 5.4 3.3 12.2 4.7 20.2 4.6 c 6 -0.1 12.2 -1.1 19.8 -2.8 c 1.8 -0.4 7.4 -1.7 8.3 -1.9 c 2.7 -0.6 4.3 -0.9 5.5 -0.9 c 5 0 8.9 0 14.2 -0.3 c 7.9 -0.3 15.6 -0.9 22.8 -1.9 c 8.5 -1.1 15.9 -2.7 21.9 -4.8 c 18.9 -6.6 32.6 -18.3 33.7 -27.6 c 0.3 -2.6 0.4 -3 2.8 -11.1 c 2.3 -8 3.2 -12.9 2.7 -18.2 c -0.2 -2.2 -0.7 -4.4 -1.5 -6.4 c -1.5 -3.9 -2.6 -9.4 -3.4 -16.2 h 0.9 c 0.8 6.5 1.9 11.7 3.5 15.8 C 355.3 18 355.8 20.2 356 22.5 c 0.5 5.5 -0.4 10.5 -2.8 18.6 c -2.4 8.1 -2.5 8.5 -2.7 10.9 c -1.1 9.8 -15.1 21.7 -34.3 28.4 c -6.1 2.1 -13.5 3.7 -22.1 4.9 c -7.2 1 -14.9 1.6 -22.8 1.9 c -5.3 0.2 -9.3 0.3 -14.3 0.3 c -1 0 -2.6 0.3 -5.3 0.9 c -0.9 0.2 -6.4 1.5 -8.3 1.9 c -7.7 1.7 -13.9 2.7 -20 2.8 c -8.2 0.2 -15.1 -1.3 -20.7 -4.7 c -6.2 -3.8 -12.4 -5.2 -18.9 -4.5 c -5 0.5 -9.4 1.9 -16.8 4.9 c -6.8 2.7 -7.3 3 -9.8 3.7 c -5.7 1.8 -9.3 8 -12.8 19.7 c -0.5 1.8 -2.2 7.7 -2.4 8.5 c -1.7 5.7 -2.9 8.8 -4.5 10.7 c -2.2 2.6 -4.8 3.6 -12 5.3 c -7.8 1.8 -11.1 3.7 -12.9 8.5 c -3.7 10 -23.3 30.1 -36.2 38.3 C 65.9 190 44.5 244.2 44.5 262 c 0 16.3 -16.3 44.8 -30.2 54.4 c -2.1 1.5 -8.2 5.1 -14.3 8.7 v -1.2 v 46.1 z m 0 -173.7 v -1.1 c 7.4 -3.8 14.6 -10.2 21.8 -19 c 3.8 -4.6 14.2 -18.8 15.8 -20.6 c 1.8 -2 4.1 -4 7.4 -6.4 c 1.1 -0.8 4.9 -3.6 5.5 -4 c 9.4 -6.8 14 -12 16 -19.4 c 0.8 -3 1.5 -6.8 2.5 -12.3 c 0.2 -1.4 2 -12.5 2.6 -15.8 c 2.9 -16.8 5.7 -26.8 10.1 -32.1 C 92.5 52.4 101.5 38.1 101.5 33 c 0 -2.5 0.3 -3.4 6 -15.7 c 0.7 -1.5 1.3 -2.7 1.8 -3.9 c 2.5 -5.8 3.9 -10 4.1 -13.4 h 1 c -0.2 3.5 -1.7 7.9 -4.2 13.8 c -0.5 1.2 -1.1 2.5 -1.8 4 c -5.5 12 -6 13 -6 15.3 c 0 5.5 -9.1 19.8 -20.1 33.3 c -4.2 5.1 -7 15.1 -9.9 31.6 c -0.6 3.3 -2.3 14.3 -2.6 15.8 c -0.9 5.6 -1.7 9.4 -2.5 12.4 c -2 7.7 -6.8 12.9 -16.4 19.9 l -5.5 4 c -3.3 2.4 -5.5 4.3 -7.3 6.3 c -1.5 1.7 -11.9 15.9 -15.8 20.5 c -7.5 9 -14.9 15.6 -22.6 19.5 z m 0 361.8 v -4.3 c 0.5 2.4 1 4.4 1.6 6.1 c 2 6 4.6 8.3 8.2 6.6 C 28.8 557.7 43.5 542.4 43.5 527 c 0 -16.2 6.4 -32 17.1 -46.3 c 1.9 -2.5 3.7 -4.4 5.5 -6 c 0.7 -0.6 1.5 -1.2 2.3 -1.8 l 2 -1.4 c 3.7 -2.7 5.3 -5.3 7.1 -12.6 c 0.8 -3.1 1.4 -5 4.2 -13.3 l 0.6 -1.9 c 3.2 -9.6 4.6 -15 4.2 -18.6 c -0.5 -4.4 -3.8 -5.2 -11.3 -1.6 C 72.2 424.9 69.2 426.1 66.1 427.2 c -13.9 4.7 -27 5.8 -42.7 5.4 l -1.9 -0.1 l -1.4 0 C 14.8 432.5 9.7 433.5 4.9 435.5 C 3.2 436.2 1.5 437.2 0 438.4 v -1.3 C 1.4 436.1 2.9 435.2 4.5 434.5 C 9.9 432.3 15.7 431.3 21.5 431.5 l 1.9 0.1 c 15.6 0.4 28.6 -0.8 42.3 -5.4 C 68.8 425.2 71.8 423.9 74.8 422.6 c 8 -3.8 12.2 -2.9 12.7 2.4 c 0.4 3.9 -0.9 9.3 -4.2 19.1 l -0.6 1.9 c -2.8 8.2 -3.4 10.1 -4.2 13.2 c -1.8 7.5 -3.6 10.3 -7.5 13.2 l -2 1.4 c -0.8 0.6 -1.5 1.1 -2.3 1.8 C 64.8 477.2 63 479.2 61.4 481.3 c -10.6 14.1 -16.9 29.7 -16.9 45.7 c 0 15.9 -15 31.5 -34.3 40.5 c -4.3 2 -7.4 -0.7 -9.6 -7.2 c -0.2 -0.7 -0.4 -1.4 -0.7 -2.1 z m 0 -62.2 v -2.4 l 1.5 3.3 c 2.1 4.8 3.5 10.3 4.3 16.8 c 0.7 5.3 0.8 9.3 1 18.5 c 0.2 9.3 0.5 12.8 1.6 15 c 1.3 2.6 3.7 2.4 8.3 -1.5 c 17.1 -14.3 21.8 -22.9 21.8 -38.6 c 0 -7.2 1.1 -12.4 3.7 -17.7 c 2.3 -4.7 3.6 -6.6 13.4 -19.6 C 57.9 466.6 60.4 463.6 63.2 460.9 C 64.3 459.8 65.5 458.8 66.7 457.8 c 0.4 -0.3 0.6 -0.5 0.9 -0.7 C 68.7 456.2 69.6 455.1 70.3 453.8 C 71.2 451.9 71.9 449.9 72.5 447.8 l 0.4 -1.2 l 0.4 -1.1 c 0.3 -0.9 0.5 -1.6 0.7 -2.2 c 0.5 -1.5 0.7 -2.7 0.9 -3.7 c 0.4 -2.2 0.1 -3.5 -0.8 -4.1 c -2.3 -1.6 -9.3 -0.2 -23.8 4.9 c -9.5 3.4 -16.1 4.2 -27.9 4.3 c -7.7 0.1 -10.4 0.4 -13.3 2.1 c -3.5 2.1 -5.8 6.4 -7.6 14.3 c -0.5 2.2 -1 4.2 -1.5 6 v -4 l 0.5 -2.2 c 1.8 -8.1 4.3 -12.6 8 -14.9 c 3 -1.9 5.9 -2.2 13.8 -2.3 c 11.6 -0.1 18.1 -0.8 27.5 -4.2 c 14.9 -5.3 22 -6.7 24.7 -4.8 c 1.4 0.9 1.7 2.6 1.3 5.1 C 75.6 441.1 75.3 442.4 74.9 443.6 l -0.7 2.2 l -0.4 1.1 l -0.4 1.2 C 72.9 450.2 72.1 452.3 71.2 454.2 c -0.8 1.5 -1.6 2.5 -2.9 3.6 l -0.9 0.8 l -1 0.8 c -0.9 0.7 -1.7 1.4 -2.5 2.2 C 61.2 464.3 58.6 467.2 56.4 470.3 c -9.7 12.9 -11.1 14.9 -13.3 19.5 c -2.5 5.1 -3.6 10.2 -3.6 17.2 c 0 16 -4.8 24.9 -22.2 39.4 c -5 4.2 -8.2 4.5 -9.8 1.2 c -1.2 -2.5 -1.5 -5.9 -1.7 -15.5 c -0.2 -9.2 -0.4 -13.1 -1 -18.4 c -0.8 -6.3 -2.1 -11.8 -4.2 -16.5 L 0 496 z M 379.3 0 h 1 l 1.5 5.3 c 3.3 11.6 4.9 19.3 5.3 27.8 c 0.5 11 -1.5 21.3 -6.6 31.2 c -7.8 15.1 -20.5 26.5 -36.2 34.1 c -12.4 6 -26.1 9.2 -36.2 9.2 c -6.8 0 -17.2 1.4 -37.3 4.6 l -2.3 0.4 c -24.5 4 -31.7 5 -37.5 5 c -3.5 0 -4.1 -0.1 -19.5 -2.8 c -3.6 -0.6 -6.3 -1.1 -9 -1.5 c -20.2 -3 -31 -1.2 -32 7.9 c -0.1 0.8 -0.2 1.7 -0.3 2.8 l -0.3 2.7 c -1.1 10.9 -2 15.7 -4.3 20 c -2.9 5.3 -7.8 7.9 -15.6 7.9 c -10.2 0 -12.9 0.6 -15.5 3.2 c 0.5 -0.5 -5 5.8 -8.2 8.7 c -2.8 2.5 -14.3 12.6 -15.8 13.8 C 108.4 182.1 106.2 184.1 104 186.1 c -7 6.5 -11.8 11.8 -14.6 16.2 c -5.9 9.3 -10.5 18 -11.7 24.1 c -1.7 8.3 3.7 9.5 19 1.2 C 111.3 219.7 126.2 212.4 141.3 205.7 c 3.5 -1.6 14 -6.2 15.7 -6.9 c 5.1 -2.3 8.3 -3.8 10.8 -5.2 l 1.9 -1.1 l 2.2 -1.2 c 1.8 -0.9 3.4 -1.8 5 -2.6 c 18.1 -8.7 34.5 -10.5 50.3 -1.2 c 22.9 13.3 38.3 37 38.3 56.4 c 0 19.1 -0.7 25.1 -5.2 33.2 C 258.9 279.7 257.3 282.1 255.4 284.3 c -6.5 7.8 -11.8 16.2 -12.8 21.3 c -1.2 6.3 4.7 7 20.2 -0.1 c 13.3 -6.1 22.4 -14.9 28.5 -26.3 C 293.8 274.4 295.9 269.3 297.4 264.1 c 0.9 -3 3.2 -11.7 3.4 -12.5 C 301.2 250 301.8 248.3 302.6 246.8 c 7.5 -14.9 21.1 -30.5 36.3 -37.2 c 7.6 -3.4 13 -9.7 19.4 -20.8 c 0.8 -1.5 4.3 -7.6 5.1 -9.2 c 3.5 -6.1 6.2 -9.7 9.4 -12 c 10.1 -7.4 28.7 -11.1 50.3 -11.1 c 7.5 0 16.5 -1.2 27.5 -3.6 C 455.5 151.8 460.5 150.7 465.5 149.4 c -1.3 0.3 15.5 -4 19.4 -4.9 c 14.1 -3.3 41.1 -5 64.1 -5 c 17.4 0 27.8 -9.2 38.5 -38.7 c 6.6 -18.2 6.6 -26.4 2.7 -34.4 l -1.2 -2.4 C 588 62.2 587.5 60.1 587.5 58 c 0 -4 0 -4 2.5 -24.6 c 0.5 -3.7 0.8 -6.7 1.1 -9.6 c 0.9 -8.4 1.4 -15.2 1.4 -20.8 c 0 -0.9 0 -1.9 0 -3 h 1 c 0 1.1 0 2.1 0 3 c 0 5.7 -0.5 12.4 -1.4 20.9 c -0.3 2.9 -0.7 5.9 -1.1 9.7 c -2.5 20.4 -2.5 20.5 -2.5 24.4 c 0 2 0.5 3.6 1.5 5.7 c 0.2 0.5 1.2 2.4 1.2 2.4 c 4.1 8.2 4.1 16.7 -2.6 35.1 c -10.8 29.8 -21.6 39.3 -39.5 39.3 c -23 0 -49.8 1.7 -63.9 5 c -3.9 0.9 -20.7 5.2 -19.4 4.9 C 460.7 151.6 455.7 152.8 450.7 153.9 c -11 2.3 -20.1 3.6 -27.7 3.6 c -21.4 0 -39.8 3.7 -49.7 10.9 c -3 2.2 -5.6 5.7 -9.1 11.7 c -0.9 1.5 -4.3 7.7 -5.1 9.2 c -6.5 11.3 -12 17.7 -19.9 21.2 c -14.9 6.6 -28.4 22 -35.8 36.8 C 302.8 248.7 302.2 250.3 301.8 251.9 c -0.2 0.8 -2.5 9.5 -3.4 12.5 C 296.8 269.7 294.7 274.8 292.2 279.7 c -6.2 11.6 -15.4 20.6 -29 26.8 c -16.1 7.4 -23 6.6 -21.6 -1 c 1 -5.3 6.4 -13.8 13 -21.7 C 256.4 281.5 258.1 279.2 259.4 276.7 c 4.4 -7.9 5.1 -13.8 5.1 -32.7 c 0 -19 -15.2 -42.4 -37.7 -55.5 c -15.6 -9.1 -31.6 -7.4 -49.5 1.2 C 174.9 190.8 172.5 192.1 170.2 193.4 l -1.9 1.1 C 164.7 196.3 161.1 198 157.4 199.6 c -1.7 0.7 -12.2 5.4 -15.7 6.9 C 126.6 213.3 111.8 220.6 97.2 228.4 c -16 8.7 -22.4 7.2 -20.5 -2.3 c 1.2 -6.2 5.8 -15 11.8 -24.4 c 2.8 -4.5 7.7 -9.8 14.8 -16.3 c 2 -1.8 4.1 -3.8 6.6 -5.9 c 1.5 -1.3 13 -11.3 15.8 -13.8 c 3.1 -2.8 8.6 -9.1 8.1 -8.7 c 2.8 -2.8 5.8 -3.5 16.2 -3.5 c 7.5 0 12 -2.4 14.8 -7.4 c 2.2 -4.1 3.1 -8.8 4.2 -19.6 l 0.3 -2.7 l 0.3 -2.8 c 0.6 -5.4 4.5 -8.5 11.2 -9.6 c 5.4 -0.9 12.5 -0.5 21.9 0.9 c 2.7 0.4 5.5 0.9 9 1.5 c 15.3 2.7 16 2.8 19.4 2.8 c 5.7 0 12.9 -1 37.3 -5 l 2.3 -0.4 c 20.1 -3.3 30.5 -4.6 37.4 -4.6 c 9.9 0 23.5 -3.2 35.8 -9.1 c 15.6 -7.5 28.1 -18.7 35.8 -33.6 c 5 -9.8 7 -19.8 6.5 -30.7 c -0.4 -8.4 -2 -16.1 -5.2 -27.6 L 379.3 0 z m 13.7 0 h 1 c 0.8 3.9 1.9 8.7 3.5 14.9 c 3.6 14 3.1 27 -0.8 38.8 C 394.3 61.2 390.5 68.2 385.4 74.3 C 379.6 81.2 373.1 87.5 366.1 93.1 c -11.3 9 -23.4 15.5 -35.9 18.4 C 322.7 113.2 315.1 114.5 307.5 115.6 c -3.2 0.4 -6.4 0.8 -10.3 1.3 l -9.4 1.1 c -11.5 1.4 -17.4 2.5 -21.6 4.5 c -9.3 4.2 -28.3 6 -49.2 6 c -1.4 0 -2.8 -0.1 -4.3 -0.3 c -2.6 -0.4 -5 -1 -9.1 -2.3 c -7.3 -2.2 -9.6 -2.8 -12.6 -2.6 c -3.9 0.2 -6.6 2.3 -8.5 6.9 c -1.9 4.7 -2.4 7.5 -3.3 15 c -1.1 9 -2.9 12.1 -10 14.3 C 166.8 160.1 164.5 161 162.3 162.1 c -0.6 0.3 -1.2 0.6 -1.8 1 l -1.3 0.9 c -1.9 1.1 -3.9 1.5 -9.3 1.5 c -3.2 0 -8.8 -0.6 -9.5 -0.4 c -1.2 0.3 -0.8 -0.1 -7.1 6.2 c -1.5 1.5 -3.5 3.2 -6.3 5.4 c -1.5 1.2 -7.2 5.4 -7.9 6 c -5 3.8 -8.3 6.6 -11.1 9.4 c -4.9 5 -6.8 9.2 -5.6 12.7 c 1.3 3.7 4.1 4.4 8.9 2.8 C 114 206.7 116.6 205.5 119.1 204.2 c 1.5 -0.8 7.8 -4.1 9.4 -5 C 132.5 197.1 136.6 195.2 140.8 193.5 C 144.6 192.1 148.2 190.4 151.9 188.7 c 2 -1 10.7 -5.2 13 -6.2 c 4.4 -2.1 8.1 -3.8 11.7 -5.3 c 17.1 -7.3 29.3 -9.9 37.7 -6.7 l 5.4 2.1 c 2.3 0.9 4.2 1.6 6 2.4 C 230.1 176.8 234.4 178.8 238.7 181 c 18.3 9.6 30.3 22.1 34.8 39.9 c 7 27.8 3.6 45.5 -8.1 62.4 c -4 5.8 -3.5 9.2 0.1 9 c 4.1 -0.3 10.2 -4.9 15.1 -12.5 c 3.1 -4.8 5.1 -10.4 8.1 -21.5 l 1.7 -6.3 c 0.7 -2.5 1.2 -4.5 1.8 -6.5 c 4.9 -16.6 11 -27.3 21.6 -34.8 c 7.1 -5.1 23.7 -15.5 25.5 -16.8 c 6.7 -4.8 10.5 -9.4 14.3 -18 c 7.7 -17.4 21.1 -24.3 44.5 -24.3 c 9.4 0 17.9 -1.1 29.5 -3.5 C 429.6 147.6 431.7 147.2 433.7 146.7 c 2.4 -0.5 4.1 -0.8 5.7 -1.1 c 4 -0.7 7 -1.1 9.6 -1.1 c 4.4 0 9.4 -1 31.4 -6 l 2.9 -0.7 c 16.3 -3.7 25.6 -5.3 31.7 -5.3 c 1.5 0 2.4 0 6.4 0.1 c 7.8 0.2 12.3 0.1 17.3 -0.2 c 16.4 -1.1 26.7 -5.4 29.8 -14.6 C 569.6 114.8 570.7 111.9 572.1 109 c -0.1 0.3 2.3 -5 2.9 -6.4 c 5.4 -12.3 5.6 -21.9 -1.4 -39.4 C 570.9 56.5 569.2 49.6 568.3 42.5 c -1.6 -12 -1.4 -23.1 0.1 -40.4 l 0.2 -2.1 h 1 l -0.2 2.2 c -1.5 17.1 -1.7 28.2 -0.1 40.1 C 570.1 49.4 571.9 56.2 574.5 62.8 c 7.1 17.8 6.9 27.7 1.4 40.2 c -0.6 1.4 -3.1 6.7 -2.9 6.4 C 571.7 112.3 570.5 115.2 569.5 118.2 c -3.2 9.7 -13.9 14.2 -30.7 15.2 c -5.1 0.3 -9.6 0.3 -17.4 0.2 c -4 -0.1 -4.8 -0.1 -6.4 -0.1 c -5.9 0 -15.2 1.7 -31.4 5.3 l -2.9 0.7 c -22.2 5 -27.1 6 -31.6 6 c -2.5 0 -5.4 0.4 -9.4 1.1 c -1.6 0.3 -3.3 0.6 -5.6 1.1 C 431.9 148.1 429.8 148.6 427.7 149 c -11.7 2.4 -20.3 3.5 -29.7 3.5 c -23 0 -36 6.7 -43.5 23.7 c -3.9 8.8 -7.8 13.6 -14.7 18.5 c -1.8 1.3 -18.4 11.7 -25.5 16.8 c -10.3 7.3 -16.3 17.9 -21.2 34.2 c -0.6 2 -1.1 4 -1.8 6.5 l -1.7 6.3 c -3 11.2 -5 16.9 -8.2 21.8 c -5.1 7.8 -11.4 12.7 -15.9 13 c -4.7 0.3 -5.3 -4.2 -0.9 -10.5 c 11.5 -16.6 14.8 -34 7.9 -61.6 c -4.4 -17.4 -16.2 -29.7 -34.3 -39.2 c -4 -2.1 -8.2 -4 -13 -6 c -1.8 -0.8 -3.7 -1.5 -6 -2.4 l -5.4 -2.1 c -8 -3.1 -20 -0.6 -36.9 6.6 c -3.5 1.5 -7.2 3.2 -11.6 5.3 l -13 6.2 c -4.7 2.2 -8.2 3.8 -11.1 4.9 C 137 196.1 132.9 198 129 200.1 c -1.6 0.8 -7.9 4.2 -9.4 5 C 117.1 206.4 114.4 207.6 111.7 208.6 c -5.3 1.8 -8.6 0.8 -10.2 -3.4 c -1.5 -4 0.7 -8.5 5.8 -13.7 c 2.8 -2.8 6.2 -5.7 11.2 -9.5 c 0.8 -0.6 6.4 -4.8 7.9 -6 C 128.6 174.3 130.7 172.5 132.7 170.7 c 6.7 -6.7 6.1 -6.2 7.6 -6.5 c 0.9 -0.2 6.7 0.4 9.7 0.4 c 5.2 0 7 -0.3 8.7 -1.3 l 1.3 -0.8 c 0.6 -0.4 1.2 -0.7 1.8 -1.1 C 164.1 160.1 166.5 159.2 168.8 158.5 c 6.6 -2 8.2 -4.8 9.3 -13.5 c 0.9 -7.5 1.5 -10.5 3.4 -15.2 c 2 -5 5 -7.3 9.3 -7.5 c 3.2 -0.2 5.5 0.3 13 2.6 C 206.8 125.9 209.8 126.6 212.9 127.2 c 1.4 0.2 2.8 0.3 4.1 0.3 c 20.7 0 39.7 -1.8 48.8 -6 c 4.3 -2 10.3 -3.1 21.9 -4.5 l 9.4 -1.1 c 3.9 -0.5 7.1 -0.9 10.3 -1.3 c 8.2 -1.1 15.4 -2.4 22.5 -4.1 c 12.4 -2.9 24.3 -9.3 35.6 -18.2 C 372.4 86.7 378.8 80.5 384.6 73.7 C 389.6 67.7 393.4 60.8 395.8 53.4 c 3.8 -11.6 4.3 -24.4 0.8 -38.2 C 395.2 10.1 394 5.1 392.9 0 z M 506.7 0 h 1.3 c -0.5 0.7 -0.9 1.2 -1.2 1.5 c -3.9 5 -6.9 7.9 -9.8 9.6 C 495.5 12 493.8 12.5 492 12.5 c -2.4 0 -4.2 0.7 -6.7 2.2 l -2.6 1.7 c -4.4 2.8 -8 4.1 -13.6 4.1 c -5.6 0 -10 -1.3 -16.1 -4.1 C 452.2 16.1 451.4 15.7 450.6 15.4 l -2.2 -1 c -1.6 -0.7 -2.9 -1.2 -4.2 -1.5 C 443.2 12.7 442.1 12.5 441 12.5 c -2.3 0 -4.3 -0.7 -11 -3.4 l -1.6 -0.6 c -5 -2 -8.1 -2.8 -10.5 -2.7 c -2.9 0.2 -4.4 2 -4.4 6.2 c 0 20.8 -5.2 50.4 -12.1 57.3 c -7.6 7.6 -26.6 23.7 -34.1 29.1 c -13.2 9.4 -31.2 20.2 -44.1 25.1 C 318.8 125.1 314.4 126.4 309.9 127.5 c -3.3 0.8 -6.6 1.4 -11.3 2.2 c -0.5 0.1 -8.8 1.5 -11.5 2 c -4.9 0.9 -9.3 1.7 -14 2.8 c -20.6 4.5 -25.1 5 -38.1 5 c -2.5 0 -2.9 -0.1 -14.1 -2 c -2.4 -0.4 -4.3 -0.7 -6.2 -1 c -8.1 -1.2 -13.8 -1.4 -17.6 -0.2 c -4.5 1.4 -5.9 4.7 -3.7 10.5 c 2 5.3 4.8 8.6 8.8 10.7 c 3.3 1.7 6.8 2.6 13.8 3.7 c 9.4 1.5 10.9 1.8 15.5 2.9 C 238.1 165.8 244.4 168.3 250.2 171.6 c 8.3 4.6 14.6 11.5 20 20.9 c 2.7 4.7 9.5 19.3 10.5 21.2 c 3.4 5.8 6.3 6.6 10.9 2 c 4.9 -4.9 10.4 -8.4 21.1 -14.1 c 0.5 -0.3 2.1 -1.1 2.1 -1.1 c 8 -4.2 11.9 -6.5 15.9 -9.5 c 5.1 -3.9 8.7 -8.1 10.8 -13.1 c 8.5 -20.2 20.8 -33.3 32.5 -33.3 l 5.5 0 c 10.5 0.1 17.4 0 24.9 -0.3 c 13.7 -0.6 23.8 -2.1 29.4 -4.7 c 5.9 -2.7 13.4 -5.5 24.2 -9 c 3.5 -1.1 6.3 -2.1 12.7 -4.1 c 7.7 -2.5 11.1 -3.5 15.2 -4.9 C 489.6 120.3 493.4 119 497.2 117.8 c 3.7 -1.2 6 -2 8 -2.8 C 507.5 114.2 509.7 113.2 511.9 112.1 c 1.9 -1 3.8 -2.1 5.9 -3.5 c 3.5 -2.3 6.1 -3.1 12 -4.1 l 1.1 -0.2 c 5.7 -1 9 -2.3 12.8 -5.6 c 7.8 -7 8.6 -23.2 3.8 -44.5 c -1.7 -7.7 -2.1 -19.3 -1.6 -35.5 C 546.1 12.4 546.4 6.2 546.8 0 h 1 l -0.1 3.1 c -0.3 6.4 -0.5 11 -0.7 15.6 c -0.5 16.1 -0.1 27.6 1.6 35.2 c 4.8 21.7 4 38.2 -4.2 45.5 c -3.9 3.5 -7.4 4.8 -13.2 5.9 l -1.2 0.2 c -5.8 1 -8.3 1.8 -11.6 4 C 516.4 110.7 514.4 111.9 512.3 113 C 510.1 114.1 507.9 115.1 505.6 116 c -2.1 0.8 -4.4 1.6 -8.1 2.8 C 493.7 120 489.9 121.2 486.2 122.5 c -4.1 1.4 -7.5 2.5 -15.2 4.9 c -6.4 2 -9.2 3 -12.7 4.1 c -10.7 3.5 -18.3 6.3 -24.1 9 c -5.8 2.7 -16 4.1 -29.8 4.8 c -7.6 0.3 -14.4 0.4 -24.9 0.3 l -5.5 0 c -11.2 0 -23.2 12.8 -31.5 32.7 c -2.2 5.2 -5.8 9.5 -11.1 13.5 c -4 3.1 -8 5.4 -16 9.6 l -2.1 1.1 c -10.7 5.7 -16 9 -20.9 13.9 c -5.1 5.1 -8.8 4.2 -12.4 -2.2 c -1.1 -1.9 -7.9 -16.5 -10.5 -21.2 c -5.3 -9.2 -11.5 -16 -19.6 -20.5 C 244 169.2 237.8 166.8 231.4 165.2 c -4.5 -1.2 -6 -1.4 -15.4 -2.9 c -7.2 -1.1 -10.7 -2 -14.1 -3.8 c -4.2 -2.3 -7.2 -5.8 -9.3 -11.3 c -2.4 -6.4 -0.8 -10.3 4.3 -11.8 c 4 -1.2 9.8 -1.1 18.1 0.2 c 1.8 0.3 3.7 0.6 6.2 1 c 11 1.9 11.5 2 13.9 2 c 13 0 17.3 -0.5 37.9 -5 c 4.7 -1 9.2 -1.9 14 -2.8 c 2.7 -0.5 11 -1.9 11.5 -2 c 4.6 -0.8 7.9 -1.5 11.2 -2.2 c 4.6 -1.1 8.8 -2.3 13.2 -4 c 12.8 -4.8 30.8 -15.6 43.9 -24.9 c 7.5 -5.3 26.4 -21.4 33.9 -28.9 C 407.3 62 412.5 32.5 412.5 12 c 0 -4.6 1.9 -6.9 5.4 -7.2 c 2.6 -0.2 5.8 0.7 11 2.7 l 1.6 0.6 c 6.5 2.6 8.5 3.3 10.6 3.3 c 1.1 0 2.3 0.2 3.5 0.5 c 1.3 0.3 2.7 0.8 4.3 1.5 C 450 14 451.1 14.5 452.2 15 l 1.1 0.5 c 6 2.7 10.2 3.9 15.7 3.9 c 5.4 0 8.9 -1.2 13.1 -3.9 c 0.2 -0.1 2.1 -1.4 2.7 -1.7 c 2.6 -1.6 4.6 -2.4 7.2 -2.4 c 1.5 0 2.9 -0.4 4.5 -1.3 c 2.8 -1.6 5.7 -4.5 9.5 -9.3 l 0.7 -0.9 z M 324.5 600 h -2 c 0.5 -3 0.9 -6.2 1.3 -9.7 c 0.4 -4.1 0.8 -8.3 1 -12.2 c 0.1 -1.4 0.1 -2.6 -0.4 -7.3 c -0.5 -1.9 -0.9 -4.1 -1.4 -6.5 c -2 -11.3 -2.7 -22.9 -1.1 -33.8 C 322.7 524.3 324.5 518.3 327.1 512.6 C 330.3 505.9 334.6 499.7 339.7 494.4 c 3.4 -3.6 5.5 -5.5 11.8 -10.8 c 4.5 -3.8 6.4 -5.6 7.5 -7.5 c 0.6 -1.1 0.9 -2.1 0.9 -3.1 c 0 -1.8 0 -1.7 -0.8 -9.2 c -0.4 -3.7 -0.6 -6.3 -0.7 -9 c -0.5 -12.1 1.6 -19.6 8.1 -21.8 c 15.9 -5.3 25.9 -12.1 33.4 -25.5 C 409.6 390.6 425.9 376 436 376 c 12.4 0 20 -2 29.4 -8.8 c 6.8 -4.9 9.5 -6.6 12.5 -7.5 c 2.2 -0.6 3.8 -0.7 9.1 -0.7 c 1.9 0 3.5 -0.8 5.6 -2.6 c 1.1 -1 5.1 -5.1 5.6 -5.6 c 6 -5.9 12 -8.8 20.8 -8.8 c 2.5 0 4.5 0 7.3 0.1 c 7.5 0.2 8.9 0.2 11.3 -0.7 c 3 -1.1 5.5 -3 14.8 -11.2 c 8 -7.1 10.7 -8.9 22.9 -16.5 c 1.4 -0.9 2.6 -1.6 3.7 -2.4 C 582.3 309.2 585.4 306.7 588.4 303.9 c 4.1 -3.9 8 -7.9 11.6 -11.9 v 3 C 596.7 298.6 593.3 302 589.7 305.4 c -3.2 3 -6.2 5.4 -9.7 7.7 c -1.1 0.8 -2.3 1.5 -3.8 2.4 c -12 7.5 -14.7 9.3 -22.6 16.3 c -9.5 8.4 -12 10.3 -15.4 11.6 c -2.7 1 -4.2 1.1 -12 0.8 c -2.8 -0.1 -4.8 -0.1 -7.3 -0.1 c -8.3 0 -13.8 2.7 -19.4 8.2 c -0.4 0.4 -4.5 4.6 -5.7 5.7 c -2.4 2.1 -4.5 3.1 -6.9 3.1 c -5.1 0 -6.6 0.1 -8.6 0.7 c -2.7 0.8 -5.3 2.4 -11.9 7.1 c -9.8 7.1 -17.9 9.2 -30.6 9.2 c -9.2 0 -25 14.2 -34.1 30.5 c -7.8 13.9 -18.2 21 -34.6 26.5 c -5.3 1.8 -7.2 8.5 -6.8 19.8 c 0.1 2.6 0.3 5.2 0.7 8.8 c 0.8 7.6 0.8 7.6 0.8 9.4 c 0 1.4 -0.4 2.7 -1.2 4.1 c -1.3 2.2 -3.3 4.1 -7.9 8 c -6.3 5.2 -8.4 7.1 -11.7 10.6 C 336.2 500.9 332 506.9 328.9 513.4 C 326.3 518.9 324.7 524.8 323.9 530.8 c -1.5 10.7 -0.9 22.1 1.1 33.1 c 0.4 2.4 0.9 4.5 1.3 6.4 c 0.2 0.7 0.3 1.3 0.6 4.1 C 326.7 579.8 326.4 585.2 325.8 590.6 c -0.4 3.4 -0.8 6.5 -1.3 9.4 z m -13.4 0 h -1.1 l 0.1 -0.3 c 3.1 -7.2 4.3 -11.8 4.3 -18.7 c 0 -3.6 -0.1 -4.9 -0.8 -15.6 c -0.8 -12 -1 -19.6 -0.6 -28.3 c 0.6 -11.5 2.4 -22.1 5.8 -32.2 c 1.3 -3.8 2.8 -7.5 4.6 -11.1 c 3.5 -7.1 6.8 -12.4 10.4 -16.6 C 335.3 475.6 336.8 474.1 338.3 472.6 c 0.4 -0.4 3 -2.8 3.7 -3.4 c 5.7 -5.6 7.5 -11.5 7.5 -29.2 c 0 -18.8 2.9 -23.8 15.8 -28.2 c 1.1 -0.4 1.9 -0.7 2.8 -1 C 370.2 410 372.2 409.1 374.2 408.1 c 4.9 -2.6 9.6 -6.2 14.4 -11.4 c 25.5 -27.6 37.1 -35.2 56.4 -35.2 c 8.3 0 14.5 -1.9 22 -6.3 c 1.8 -1 13.8 -8.8 18.2 -11.3 c 2.8 -1.6 5.7 -3 8.6 -4.4 c 7.9 -3.6 14 -4.4 26.6 -4.8 c 7.5 -0.2 10.7 -0.5 14.3 -1.6 c 4.5 -1.4 8.1 -4 10.9 -8.4 c 2.2 -3.4 6.9 -7.1 14.7 -12.1 c 1.6 -1 3.3 -2.1 5.6 -3.5 c 9.5 -5.9 11.6 -7.1 14.8 -9.6 c 5.3 -4 9.3 -8.4 13.7 -14.8 C 596.3 282 598.2 279 600 276.1 v 1.9 c -2 3.2 -3.4 5.4 -4.8 7.4 c -4.4 6.5 -8.5 10.9 -13.9 15 c -3.3 2.5 -5.3 3.8 -14.9 9.6 C 564.5 311.2 562.6 312.3 560.8 313.5 c -7.7 4.9 -12.3 8.5 -14.4 11.8 c -3 4.6 -6.7 7.4 -11.5 8.9 c -3.7 1.1 -6.9 1.4 -14.5 1.6 c -12.5 0.3 -18.4 1.2 -26.2 4.7 C 491.3 341.8 488.4 343.2 485.6 344.8 c -4.3 2.4 -16.3 10.2 -18.1 11.3 c -7.6 4.4 -14 6.4 -22.5 6.4 c -18.9 0 -30.3 7.4 -55.6 34.8 c -4.9 5.3 -9.7 9 -14.7 11.6 c -2 1.1 -4 1.9 -6.2 2.8 c -0.9 0.3 -1.7 0.6 -5.4 1.9 c -5.1 1.8 -7.4 3.3 -9.3 6.4 c -2.2 3.8 -3.3 9.9 -3.3 20.1 c 0 17.9 -1.9 24.1 -7.8 29.9 c -0.7 0.7 -3.3 3.1 -3.7 3.5 C 337.5 474.8 336.1 476.3 334.7 477.8 c -3.5 4.1 -6.9 9.3 -10.3 16.4 C 322.7 497.8 321.2 501.5 320 505.2 c -3.4 10 -5.2 20.5 -5.8 31.9 c -0.4 8.6 -0.2 16.2 0.6 28.2 c 0.7 10.8 0.8 12.1 0.8 15.7 c 0 6.4 -1 10.9 -4.4 19 z m 25.1 0 h -1 c 0 -4.7 0.1 -9.4 0.3 -15 c 0.3 -6.4 -0.4 -11.8 -2.5 -24.4 l -0.3 -1.9 c -2.1 -12.5 -2.8 -19.4 -2 -26.5 c 1 -9.3 4.8 -16.7 12 -22.7 c 22 -18.2 29.8 -30.2 29.8 -44.6 c 0 -2.6 -0.3 -4.8 -1 -8.2 c -1 -4.8 -1.1 -5.7 -1 -7.6 c 0.2 -2.6 1.3 -4.7 3.6 -6.7 c 2.7 -2.4 7.1 -4.6 13.7 -7 c 9.7 -3.5 15.5 -9.2 24.3 -21.6 l 1.8 -2.5 c 4.5 -6.3 7.1 -9.6 10.4 -12.8 c 4.3 -4.1 9 -6.8 14.5 -8.2 c 13.3 -3.3 20.4 -5.5 25.3 -7.6 C 466 382.1 467.8 381.2 469.5 380.2 c 1.1 -0.6 1.8 -1 4.2 -2.6 c 2.7 -1.7 5.2 -2.1 11.4 -2.3 c 5.4 -0.2 7.9 -0.4 11 -1.4 C 499.8 372.7 503.1 370.6 505.6 367.7 c 4.9 -5.3 10 -7.6 17.8 -8.9 c 1.1 -0.2 1.9 -0.3 3.9 -0.6 c 6.9 -1 9.9 -1.7 13.5 -3.6 c 4.5 -2.4 6.8 -4.4 23.5 -19.7 l 3.1 -2.9 c 9.6 -8.7 16.1 -13.8 21.4 -16.5 c 4.3 -2.1 7.6 -4.7 11.2 -8.6 v 1.4 c -3.4 3.6 -6.7 6 -10.8 8.1 c -5.2 2.6 -11.6 7.7 -21.2 16.3 l -3.1 2.9 c -16.8 15.4 -19 17.3 -23.7 19.8 c -3.7 2 -6.8 2.8 -13.8 3.7 c -2 0.3 -2.8 0.4 -3.8 0.6 c -7.6 1.3 -12.5 3.5 -17.2 8.6 C 503.7 371.4 500.2 373.6 496.4 374.8 c -3.2 1 -5.7 1.3 -11.3 1.4 c -6 0.2 -8.4 0.6 -10.9 2.1 C 472.9 379.3 471.4 380.2 470 381 C 468.3 382.1 466.5 383 464.6 383.8 c -5 2.2 -12.1 4.4 -25.5 7.7 c -9.7 2.4 -15.3 7.6 -24.4 20.6 l -1.8 2.5 c -8.9 12.5 -14.8 18.3 -24.8 21.9 c -6.6 2.4 -10.9 4.6 -13.4 6.8 c -2.1 1.9 -3.1 3.7 -3.2 6 c -0.1 1.8 0 2.6 0.9 7.3 c 0.7 3.4 1 5.7 1 8.4 c 0 14.8 -7.9 27 -30.2 45.4 c -7 5.8 -10.6 13 -11.6 22 c -0.8 7 -0.1 13.7 2 26.2 l 0.3 1.9 c 2.1 12.6 2.8 18.1 2.5 24.6 c -0.2 5.6 -0.3 10.2 -0.3 15 z M 95.9 600 h -2 c 0.7 -3.8 1.1 -8.8 1.6 -16 c 0.2 -3.1 0.3 -4.1 0.4 -5.6 c 1.3 -17.5 4 -27.1 11.5 -33.2 c 4.7 -3.8 7.2 -8.9 8.7 -16 c 0.5 -2.5 0.7 -3.9 1.3 -9.2 c 0.7 -5.5 1.2 -8.1 2.2 -10.4 c 1.5 -3.1 3.8 -4.7 7.4 -4.7 c 14.3 0 38.5 9.1 53.6 20.2 c 8.7 6.4 21.3 13.3 31.7 17.1 c 13 4.7 21.9 4.4 24.8 -1.7 c 1.7 -3.6 1.9 -4.1 2.7 -5.8 c 2.9 -6.7 4.7 -12.2 5.3 -17.5 c 0.2 -2.2 0.2 -4.2 0 -6.2 c -0.3 -2.8 -1.4 -4.6 -4.1 -7.4 l -1.3 -1.4 C 238.7 501.5 237.9 500.6 237.2 499.6 C 236.3 498.3 235.4 497 234.7 495.5 l -1.1 -2.1 c -1.6 -3.1 -2.7 -4.6 -4.1 -5.6 c -5.3 -3.5 -14.8 -5.5 -28.6 -6.8 C 197.9 480.7 194.9 480.5 191.9 480.3 l -2.2 -0.2 c -9.6 -0.7 -15.1 -1.6 -19.1 -3.2 C 156.6 471.1 136 450.5 136 440 c 0 -5.3 1.7 -9.5 5.5 -14.1 c 2 -2.4 11.1 -11.7 12.8 -13.5 c 4.5 -5 10.2 -9.5 17.7 -14.7 c 2.8 -1.9 14.8 -9.6 17.5 -11.5 C 191.7 384.5 193.8 382.7 195.8 380.8 c 1.5 -1.5 7 -7.1 7.1 -7.3 c 7.2 -7.3 12.7 -11.6 19.7 -14.4 c 3.4 -1.3 8.1 -2.8 17.4 -5.4 C 244 352.6 247.9 351.5 251.9 350.4 C 256.1 349.2 260.3 348 264.5 346.7 c 20.4 -6.2 34 -12.1 40.8 -18.4 c 8.7 -8.2 11.8 -13.8 15.7 -26 c 2 -6.2 3.1 -9 5.1 -12.7 c 9.5 -17.7 28.7 -39.4 43.5 -45.4 C 383.8 238.3 389 232.3 389 226 c 0 -2.9 2.7 -8.4 6.8 -13.7 c 4.8 -6.2 10.6 -11.4 16.8 -14.2 c 12.5 -5.8 33.5 -10.1 47.4 -10.1 c 5.3 0 9.8 -1.5 16.4 -4.9 c 9.2 -4.7 10.1 -5.1 13.6 -5.1 c 10.4 0 32.1 -2.6 45.8 -6 l 3.9 -1 l 3.5 -0.9 c 2.6 -0.7 4.3 -1.1 5.9 -1.4 c 3.9 -0.9 6.8 -1.2 9.6 -1.2 c 2.7 0.1 5.5 0.5 8.7 1.5 c 4.6 1.4 13.7 -0.9 22.9 -5.7 C 593.6 161.6 596.9 159.5 600 157.2 v 2.4 c -11.1 8.1 -25.8 13.7 -33.3 11.4 C 564.1 170.1 561.3 169.6 558.6 169.6 c -2.6 -0.1 -5.4 0.3 -9.1 1.1 C 546.3 171.4 543.2 172.2 540.1 173 l -3.9 1 C 522.4 177.4 500.6 180 490 180 c -3 0 -3.9 0.4 -12.7 4.9 c -6.9 3.5 -11.6 5.1 -17.3 5.1 c -13.6 0 -34.4 4.3 -46.6 9.9 c -5.8 2.7 -11.4 7.6 -16 13.6 c -3.9 5 -6.4 10.2 -6.4 12.5 c 0 7.3 -5.8 13.8 -20.6 19.9 c -14.3 5.9 -33.2 27.2 -42.5 44.6 c -1.9 3.6 -2.9 6.3 -4.9 12.4 c -4.1 12.5 -7.2 18.4 -16.3 26.9 c -7.1 6.6 -20.9 12.6 -41.6 18.9 C 260.9 349.9 256.7 351.1 252.4 352.3 C 248.5 353.4 244.5 354.5 240.6 355.6 c -9.2 2.6 -14 4 -17.2 5.3 c -6.7 2.7 -12.1 6.8 -19.1 13.9 c -0.2 0.1 -5.6 5.8 -7.2 7.3 C 195.1 384.2 192.9 386.1 190.6 387.8 c -2.7 1.9 -14.8 9.6 -17.5 11.5 c -7.4 5 -12.9 9.5 -17.3 14.4 c -1.7 1.9 -10.8 11.1 -12.7 13.5 c -3.5 4.3 -5 8 -5 12.9 c 0 9.5 20 29.5 33.4 35.1 c 3.7 1.5 9.1 2.3 18.4 3.1 C 191.3 478.2 192.7 478.3 194.2 478.5 c 3.2 0.2 5.1 0.4 6.9 0.6 c 14.1 1.4 23.8 3.4 29.4 7.2 c 1.8 1.2 3 2.9 4.8 6.3 l 1.1 2.1 C 237.1 495.9 237.9 497.2 238.8 498.4 c 0.6 0.8 1.3 1.6 2.3 2.6 c 0.2 0.2 1.1 1.2 1.3 1.4 c 2.9 3.1 4.2 5.2 4.6 8.5 c 0.2 2.1 0.2 4.3 0 6.6 c -0.6 5.5 -2.4 11.3 -5.4 18.1 c -0.7 1.7 -1 2.1 -2.7 5.8 c -3.5 7.5 -13.3 7.8 -27.3 2.8 c -10.7 -3.9 -23.4 -10.9 -32.3 -17.4 C 164.6 516 140.8 507 127 507 c -5 0 -6.4 3 -7.6 13.3 C 119.1 523.4 118.6 526.5 118 529.6 c -1.5 7.5 -4.3 13 -9.4 17.2 c -6.9 5.6 -9.5 14.8 -10.8 31.8 c -0.1 1.5 -0.2 2.5 -0.4 5.6 c -0.5 7 -0.9 12 -1.6 15.9 z m 8 0 h -1 c 0.3 -1.4 0.6 -2.9 0.9 -4.6 l 1 -5.6 c 2.5 -13.3 4.2 -19.9 6.7 -24 c 1.7 -2.8 3.7 -5.5 8 -11 c 8.2 -10.4 10.9 -14.5 10.9 -18.7 l 0 -1.7 c 0 -1.8 0 -2.7 0 -3.8 c 0.2 -5 1.5 -8.2 4.6 -9.4 c 3.9 -1.5 10.4 0.4 20.1 6.4 c 9.6 5.9 17.5 10.7 25.9 15.7 c 1.3 0.8 14.3 8.4 17.7 10.5 C 201 555 203.1 556.3 205.2 557.6 c 13.8 8.5 38.9 5 46.3 -7.8 c 3.6 -6.3 4.5 -8.5 7.8 -17.3 C 259.7 531.4 260.1 530.4 260.5 529.4 C 261.6 526.7 263 524.1 264.6 521.7 c 9.3 -14 14.9 -26.1 14.9 -36.7 c 0 -3.7 0.8 -6.6 3.4 -14.9 c 0.5 -1.6 0.8 -2.7 1.1 -3.7 c 3.6 -12.2 3 -19.1 -4.3 -24 C 276.7 440.4 273.3 439.1 269.7 438.6 c -7.2 -0.9 -14.5 1.2 -23.9 5.9 c -1.6 0.8 -6.6 3.4 -7.6 3.9 C 236.8 449.2 235.4 449.9 234.1 450.7 l -4.4 2.7 c -11.6 6.9 -20.4 9.2 -32.8 6.1 c -3.3 -0.8 -6.2 -1.4 -13.1 -2.6 c -13.3 -2.4 -18.7 -3.8 -23.3 -6.5 c -6.2 -3.7 -7.5 -9 -2.9 -16.6 C 161.6 427.1 166.4 420.9 172 415.4 C 174.7 412.8 177.5 410.2 180.3 407.8 c -0.1 0.1 6.2 -5.3 7.8 -6.8 C 190.4 399 192.6 396.9 194.6 394.7 c 7.7 -8.5 12.8 -13.4 20.1 -18.6 c 9.9 -7.1 21.4 -12.4 35.2 -15.6 c 37 -8.6 51 -12.7 58.8 -17.9 c 8.6 -5.7 21.3 -24.8 36.8 -54.8 c 5.2 -10.1 12.3 -18.4 21.1 -25.7 c 5.1 -4.2 9.6 -7.3 17.6 -12.2 c 7.4 -4.6 9.6 -6.1 11.4 -8.2 C 396.8 240.2 397.8 238.5 398.6 236.8 c 0.6 -1.3 2.9 -6.5 3 -6.8 c 1.4 -3 2.6 -5.4 3.9 -7.7 c 6.5 -11 16 -18 31.4 -20.8 c 12.7 -2.3 19.9 -2.7 29.7 -2.3 c 3.3 0.1 4.1 0.2 5.6 0.1 c 5.1 -0.1 9.7 -1 16.6 -3.8 c 20.7 -8.3 38.8 -12 59.2 -12 c 3 0 6 0.2 10.5 0.5 l 2.1 0.2 c 12.5 1 18.1 1 25.3 -0.6 C 590.9 182.4 595.6 180.6 600 178.1 v 1.2 C 595.7 181.6 591 183.4 586.1 184.5 c -7.4 1.6 -13.1 1.6 -25.6 0.7 l -2.1 -0.2 c -4.4 -0.3 -7.4 -0.5 -10.4 -0.5 c -20.3 0 -38.2 3.7 -58.8 12 c -7 2.8 -11.7 3.8 -17 3.9 c -1.5 0 -2.4 0 -5.7 -0.1 c -9.8 -0.4 -16.8 0 -29.5 2.3 c -15.1 2.7 -24.3 9.6 -30.7 20.3 C 404.9 225.3 403.6 227.8 402.5 230.4 c -0.1 0.3 -2.4 5.5 -3 6.8 C 398.7 239.1 397.6 240.8 396.4 242.3 c -1.9 2.1 -4.1 3.7 -11.6 8.3 c -7.9 5 -12.4 8 -17.4 12.2 c -8.8 7.2 -15.7 15.4 -20.9 25.4 c -15.6 30.2 -28.4 49.3 -37.2 55.2 c -8 5.3 -22 9.4 -59.2 18.1 c -13.7 3.2 -25 8.4 -34.8 15.4 c -7.2 5.2 -12.3 10 -19.9 18.4 C 193.3 397.6 191.1 399.7 188.8 401.7 c -1.7 1.5 -7.9 6.8 -7.8 6.8 c -3.3 2.8 -5.8 5.2 -8.3 7.6 C 167.2 421.6 162.4 427.6 158.4 434.3 c -4.3 7.2 -3.2 11.9 2.5 15.3 c 4.5 2.6 9.9 4 23.2 6.4 C 188.5 456.6 192.9 457.5 197.1 458.5 c 12.1 3 20.6 0.8 32.1 -6 l 4.4 -2.6 c 1.7 -1 3 -1.7 4.2 -2.4 c 0.9 -0.5 6 -3.1 7.6 -3.9 c 9.6 -4.8 17 -6.9 24.5 -6 C 273.6 438.1 277.2 439.5 280.3 441.6 c 7.8 5.2 8.4 12.5 4.7 25.1 c -0.3 1.1 -0.6 2.1 -1.2 3.7 c -2.6 8.1 -3.3 11 -3.3 14.6 c 0 10.9 -5.7 23.1 -15.1 37.3 C 263.9 524.6 262.5 527.1 261.5 529.7 c -0.4 0.9 -0.7 1.8 -1.2 3 c -3.3 8.9 -4.2 11.1 -7.8 17.5 c -7.7 13.4 -33.4 17 -47.7 8.2 C 202.6 557.1 200.5 555.8 198.3 554.5 c -3.4 -2 -16.4 -9.7 -17.7 -10.5 c -8.4 -5 -16.4 -9.8 -25.9 -15.7 c -9.5 -5.9 -15.7 -7.7 -19.2 -6.4 c -2.7 1 -3.8 3.8 -4 8.5 C 131.5 531.8 131.5 533.1 131.5 534.3 l 0 1.7 c 0 4.5 -2.7 8.7 -11.5 19.9 c -3.9 5 -5.9 7.6 -7.5 10.4 c -2.4 4 -4.1 10.6 -6.6 23.7 l -1 5.6 l -0.9 4.4 z m 10.5 0 h -1 c 0 -0.3 0 -0.7 0 -1 c 0 -12.4 8.5 -33.6 19.2 -43.4 C 134 554.4 135.2 553 136.3 551.5 C 137.4 549.9 138.4 548.3 139.2 546.6 c 0.4 -0.7 1.8 -3.7 2.1 -4.4 c 3.2 -6.3 6.8 -6.5 17 0.4 c 1.3 0.9 6.1 4.2 6.4 4.4 c 2.6 1.8 4.7 3.2 6.7 4.6 c 5 3.4 9.4 6.2 13.5 8.7 c 14.3 8.7 25.5 13.3 34.1 13.3 c 16.9 0 32.7 -6 39.6 -14.8 c 1.6 -2 3.2 -5.2 5.1 -9.6 c 0.8 -1.9 1.6 -4.1 2.7 -6.8 l 2.7 -7.3 c 4.7 -12.4 7.8 -19.1 11.6 -23.3 c 7.9 -8.8 14.9 -36 14.9 -52.7 c 0 -1.9 0.2 -3.1 1 -8.3 c 0.4 -2.2 0.6 -3.6 0.7 -5.1 c 0.6 -5.5 0.2 -9.5 -1.7 -12.4 c -4.6 -7.1 -19.7 -9.2 -38.5 -4.8 C 250.6 430 244.3 432.1 238.2 434.8 c -5.2 2.4 -17.1 9.7 -16.5 9.4 c -6.7 3.6 -13 4.1 -24.8 1.3 c -29.6 -7.1 -30.4 -8.6 -15.3 -26.8 c 17.4 -20.9 47.1 -46.2 56.4 -46.2 c 9.9 0 53.8 -12 65.8 -17.9 c 9.5 -4.7 24.3 -21.2 36.8 -37.9 c 0.7 -0.9 13.5 -21.6 19.2 -29.6 c 9.4 -13.1 18.2 -22.6 26.9 -27.5 c 7.3 -4.2 13.2 -10.3 18.8 -18.7 c 1.9 -2.9 10.5 -17.7 12.7 -20.4 c 1.5 -1.9 3 -3.2 4.5 -3.9 c 14.1 -6.3 24.2 -9 39.2 -9 h 29 c 4.1 0 7.4 -0.4 22.9 -2.5 l 4.3 -0.6 c 9.9 -1.3 16.6 -1.9 21.8 -1.9 c 1.7 0 3 0 6 0 c 18.6 0.2 28.5 -0.5 44.9 -4 c 3.1 -0.7 6.1 -1.8 9.1 -3.3 v 1.1 C 597.2 197.7 594.2 198.8 591.1 199.5 c -16.4 3.6 -26.4 4.2 -45.1 4.1 c -3.1 0 -4.4 0 -6 0 c -5.1 0 -11.8 0.6 -21.6 1.9 l -4.3 0.6 c -15.6 2.1 -18.9 2.5 -23.1 2.5 h -29 c -14.8 0 -24.8 2.8 -38.8 9 c -1.3 0.6 -2.7 1.8 -4.1 3.6 c -2.2 2.7 -10.7 17.4 -12.7 20.3 c -5.7 8.6 -11.7 14.8 -19.1 19 c -8.6 4.9 -17.4 14.2 -26.6 27.2 c -5.7 8 -18.5 28.6 -19.2 29.6 c -12.6 16.8 -27.5 33.3 -37.2 38.1 c -12.1 6 -56.1 18.1 -66.2 18.1 c -8.8 0 -38.4 25.1 -55.6 45.8 c -14.6 17.5 -14.2 18.2 14.7 25.2 c 11.6 2.8 17.6 2.3 24.1 -1.2 c -0.7 0.4 11.3 -7 16.6 -9.4 c 5.4 -2.5 11.6 -4.6 19.1 -6.4 c 19.1 -4.5 34.6 -2.4 39.5 5.2 c 2.1 3.2 2.5 7.3 1.8 13 C 298 447.5 297.8 449.2 297.5 450.9 c -0.8 5.1 -1 6.3 -1 8.1 c 0 16.9 -7 44.3 -15.1 53.3 c -3.7 4.1 -6.8 10.6 -11.4 23 c -0.4 0.9 -2.2 5.9 -2.7 7.3 c -1 2.8 -1.9 4.9 -2.7 6.8 c -1.9 4.5 -3.6 7.7 -5.2 9.9 c -7.1 9.1 -23.3 15.2 -40.4 15.2 c -8.9 0 -20.2 -4.6 -34.6 -13.4 c -4.2 -2.5 -8.5 -5.3 -13.6 -8.7 C 168.6 550.9 166.3 549.3 164.1 547.8 l -6.4 -4.4 c -9.7 -6.6 -12.6 -6.4 -15.5 -0.8 c -0.3 0.7 -1.7 3.6 -2.1 4.4 C 139.2 548.8 138.3 550.4 137.1 552 c -1.1 1.6 -2.4 3 -3.8 4.3 c -10.5 9.6 -18.8 30.5 -18.8 42.6 l 0 1 z m -29.6 0 h -1.1 c 1.2 -2.5 1.8 -5.2 1.8 -8 c 0 -20 4.8 -42 12.2 -49.4 c 5.2 -5.2 7.8 -8.4 9.9 -12.7 c 2.6 -5.4 4 -12 4 -20.9 c 0 -6.8 1.1 -11.6 3.4 -15.1 c 1.7 -2.7 3.6 -4.2 8.9 -7.5 C 125.1 485.6 126.4 484.6 127.7 483.6 c 4.6 -4 6.6 -6.2 7.7 -9.4 c 1.4 -4 0.9 -9 -1.9 -16 C 132.4 455.4 131 452.7 129.5 450.1 l -0.9 -1.7 C 127.7 446.8 126.8 445.1 126 443.4 c -5.2 -10.7 -3.8 -18.9 7.7 -29.8 C 142 405.7 150.9 398.5 160.5 392.1 c 4 -2.7 16.8 -10.8 19.2 -12.5 c 2 -1.4 4.3 -3.3 7.8 -6.3 c 0 0 7.2 -6.4 9.5 -8.3 c 5 -4.3 9.1 -7.5 13.1 -10.1 c 4.7 -3.1 9 -5.3 12.9 -6.3 c 12.8 -3.4 15.6 -4.2 21.8 -6 c 12.6 -3.6 22 -6.9 28.1 -10 C 275.2 331.4 277.7 330.5 280.2 329.8 c 8.7 -2.7 12 -4.1 17 -8.1 c 6.8 -5.5 13.1 -14.3 19.3 -27.9 c 16 -34.8 19.1 -39.4 32.1 -49.2 c 3.1 -2.4 6.4 -4.1 11.4 -6.4 l 2.3 -1 c 11.9 -5.3 16.9 -8.9 21.1 -17.4 c 1.9 -3.8 2.5 -6.3 3.4 -12.3 c 0.8 -5.2 1.5 -7.6 3.5 -10.3 c 2.6 -3.4 7 -6.3 14.4 -9 c 3.4 -1.3 7.4 -2.5 12.1 -3.7 c 16.3 -4.3 25.3 -5.4 39.6 -5.8 c 6.9 -0.2 9.5 -0.6 12.7 -2 c 1.2 -0.5 2.4 -1.2 3.6 -2.1 c 3.7 -2.7 8.1 -4.5 13.2 -5.7 c 5.7 -1.3 10.7 -1.5 18.7 -1.4 l 2.4 0 c 2.8 0 6.8 -1 19.7 -4.7 c 10.8 -3.1 16 -4.3 19.3 -4.3 c 0.8 0 1.9 0.1 3.5 0.4 l 5 0.9 c 9.8 1.7 17.4 1.9 25.1 -0.2 c 8 -2.2 14.8 -6.8 20.3 -14.2 V 147 c -5.5 7 -12.2 11.4 -20 13.6 c -7.9 2.2 -15.6 1.9 -25.6 0.2 l -5 -0.9 c -1.6 -0.3 -2.6 -0.4 -3.4 -0.4 c -3.2 0 -8.3 1.2 -19.7 4.5 c -12.4 3.5 -16.3 4.5 -19.3 4.5 l -2.4 0 c -7.9 -0.1 -12.9 0.2 -18.5 1.4 c -5 1.1 -9.3 2.9 -12.9 5.5 C 472.1 176.3 470.9 177 469.5 177.6 c -3.3 1.5 -6 1.9 -13 2.1 c -14.3 0.4 -23.1 1.5 -39.4 5.8 C 413.1 186.5 409.1 187.7 405.2 189.2 c -7.2 2.7 -11.5 5.5 -13.9 8.7 c -1.9 2.5 -2.6 4.8 -3.3 9.8 c -0.9 6.1 -1.5 8.7 -3.5 12.6 C 382.2 224.8 378.9 228.7 374.8 231.7 c -3.1 2.3 -5.9 3.7 -11.9 6.4 l -2.3 1 c -5 2.3 -8.2 4 -11.3 6.3 c -12.9 9.7 -15.9 14.2 -31.9 48.8 c -6.3 13.8 -12.7 22.7 -19.6 28.3 c -5.1 4.1 -8.5 5.6 -17.3 8.3 C 278 331.4 275.6 332.3 273.2 333.4 c -6.2 3.1 -15.7 6.4 -28.3 10.1 C 237.7 345.6 230.4 347.6 223.1 349.5 c -3.8 1 -7.9 3.1 -12.6 6.2 C 206 358.8 201.7 362.1 197.6 365.7 c -2.2 1.9 -9.5 8.3 -9.5 8.3 C 185.6 376.3 183 378.4 180.3 380.4 c -2.5 1.7 -15.3 9.8 -19.3 12.5 C 151.5 399.3 142.6 406.5 134.3 414.4 c -11.1 10.6 -12.4 18.3 -7.5 28.6 C 127.7 444.7 128.5 446.3 129.5 447.9 l 0.9 1.7 C 131.9 452.3 133.3 455 134.4 457.8 c 2.9 7.2 3.4 12.5 1.9 16.7 c -1.2 3.4 -3.3 5.8 -8 9.8 c -1.1 1 -2.3 1.8 -5.3 3.7 c -3.9 2.4 -5.7 3.9 -7.3 6.4 c -2.1 3.3 -3.2 7.9 -3.2 14.5 c 0 9.1 -1.3 15.8 -4 21.3 c -2.2 4.5 -4.8 7.8 -10.1 13 c -7.1 7.1 -11.8 28.9 -11.8 48.6 c 0 2.8 -0.6 5.5 -1.7 8 z m 282.5 0 h -1 l -1.1 -5.8 c -3.1 -16.3 -4.1 -26.2 -2.7 -37.3 c 0.7 -5.8 0.8 -9.7 0.6 -15.3 c -0.2 -4.5 -0.2 -5.7 0.2 -7.6 c 0.8 -4.3 3.4 -8.5 10.4 -16.3 c 9.1 -10.2 12.3 -15.4 19.8 -30.1 c 1.4 -2.6 2.3 -4.5 3.4 -6.3 c 0.9 -1.6 1.8 -3.1 2.8 -4.5 c 3.1 -4.7 7 -8.4 16.8 -16.8 c 11.2 -9.6 15.5 -13.9 18.1 -19.1 c 0.7 -1.4 1.3 -2.8 1.9 -4.4 C 437 435 437.5 433.7 438 432.3 c 3.6 -9.9 8 -13.9 22.9 -17.8 c 5 -1.3 20.6 -5.1 21.4 -5.3 c 16.2 -4.1 25.3 -7.4 33.5 -12.6 c 5.9 -3.8 5.8 -3.8 27.7 -16.5 l 2.6 -1.5 c 10.2 -6 17.1 -10.2 22.7 -13.9 C 571.7 362.6 574.7 360.5 577.5 358.3 C 579.6 356.6 581.8 354.9 583.9 353.2 C 588.9 349.2 594.3 345.8 600 342.9 v 1.1 C 594.5 346.8 589.3 350.1 584.5 354 c 0.2 -0.1 -4.8 3.8 -6.4 5.1 C 575.3 361.3 572.3 363.4 569.3 365.4 c -5.6 3.8 -12.5 8 -22.8 14 l -2.6 1.5 c -21.8 12.8 -21.8 12.7 -27.6 16.5 c -8.3 5.3 -17.5 8.6 -33.8 12.7 c -0.8 0.2 -16.4 4 -21.4 5.3 c -8 2.1 -13.1 4.5 -16.4 7.5 c -2.7 2.4 -4 4.9 -5.8 9.7 l -1.5 4.1 C 436.8 438.3 436.2 439.8 435.5 441.2 c -2.7 5.4 -7 9.8 -18.4 19.4 c -9.7 8.3 -13.6 12 -16.6 16.6 C 399.5 478.7 398.5 480.2 397.7 481.7 c -1.1 1.8 -2 3.6 -3.4 6.3 c -7.6 14.8 -10.8 20.1 -20 30.4 c -6.8 7.7 -9.4 11.8 -10.1 15.9 c -0.3 1.9 -0.3 3 -0.2 7.4 c 0.2 5.7 0.1 9.6 -0.6 15.5 c -1.3 10.9 -0.3 20.8 2.7 37 l 1.1 6 z m -76.6 0 h -2.1 l 1.4 -4.3 c 1 -3.3 1.9 -6.8 2.7 -10.4 c 2.6 -12.7 3.3 -23.6 3.3 -41.3 c 0 -5.7 -1.9 -9.8 -4.1 -9.8 c -2.9 0 -7 5.6 -10.9 17.1 C 271.1 579.7 258.3 593 238 593 c -22.4 0 -29.3 -1.4 -48.4 -10.1 C 186.3 581.4 183.2 579.7 180.2 577.9 c -2.9 -1.8 -12.8 -8.6 -14.8 -9.7 c -4.2 -2.4 -7 -2.7 -9.7 -1 c -0.6 0.4 -1.3 0.9 -1.9 1.5 C 152.3 570.1 150.9 571.4 149.4 572.6 C 148.4 573.4 147.4 574.2 146.3 575 l -1 0.8 C 137 582.4 134 587.2 134 597 c 0 1 0 2 -0.1 3 h -2 c 0.1 -1 0.1 -2 0.1 -3 c 0 -10.5 3.3 -15.8 12.1 -22.8 C 144.8 573.7 145.4 573.2 146.1 572.6 c 0.8 -0.6 1.4 -1.1 2 -1.6 C 149.6 569.9 151 568.6 152.3 567.3 c 0.7 -0.7 1.5 -1.3 2.2 -1.8 c 3.5 -2.2 7 -1.8 11.8 0.9 c 2.2 1.2 12 8 14.9 9.8 C 184.2 578 187.2 579.6 190.4 581.1 C 209.3 589.7 215.8 591 238 591 c 19.3 0 31.5 -12.7 41.1 -40.3 c 4.2 -12.3 8.7 -18.4 12.8 -18.4 c 3.8 0 6.1 5.1 6.1 11.8 c 0 17.8 -0.6 28.8 -3.3 41.7 c -0.8 3.7 -1.7 7.2 -2.8 10.6 c -0.4 1.3 -0.8 2.5 -1.2 3.7 z m -149.3 0 l 0.5 -0.9 C 144.4 594.7 146.6 590.3 148.5 585.8 c 2.7 -6.3 5.8 -9.6 9.2 -10.5 c 3.7 -1 7.2 0.7 12.6 5.1 c 5.4 4.4 6.1 4.9 7.7 5.1 c 1.6 0.2 4.3 1.1 8.9 3 c 1.3 0.5 10.8 4.4 13.8 5.5 c 3.1 1.2 5.8 2.3 8.5 3.2 c 3.1 1.1 6 2 8.7 2.8 h -3.4 c -1.8 -0.6 -3.6 -1.2 -5.5 -1.9 C 206.1 597.1 203.2 596 200.4 594.9 c -3.1 -1.2 -12.6 -5 -13.9 -5.5 c -4.5 -1.8 -7.2 -2.7 -8.6 -2.9 c -1.9 -0.3 -2.5 -0.7 -8.2 -5.3 c -5.2 -4.2 -8.4 -5.8 -11.7 -4.9 c -3.1 0.8 -5.9 3.9 -8.6 10 C 147.4 590.9 145.1 595.5 142.6 600 h -1.1 z m 112.9 0 C 258.6 598.7 262.4 596.6 265.7 593.7 c 1.6 -1.4 3.3 -3.5 5.3 -6.3 c 1.1 -1.5 2.1 -3.1 3.4 -5 C 275.3 581.1 276.1 579.8 276.9 578.5 l 0.5 -0.8 l 0.9 -1.5 C 279.3 574.6 280.4 573 281.6 571.4 c 1.1 -1.4 1.8 -2.2 2.4 -2.5 c 1 -0.4 1.5 0.5 1.5 2 l 0 2.1 c 0.1 6.9 -0.1 11.3 -0.7 16.3 C 284.4 593 283.6 596.6 282.4 600 h -1.1 C 282.6 596.5 283.4 593 283.8 589.3 c 0.6 -5 0.8 -9.3 0.7 -16.2 l 0 -2.1 c 0 -1 -0.1 -1.1 -0.1 -1.1 c -0.4 0.1 -1.1 0.9 -2 2.1 C 281.2 573.6 280.2 575.2 279.1 576.8 l -0.9 1.5 l -0.5 0.8 C 276.9 580.3 276.1 581.6 275.3 582.9 c -1.3 2 -2.4 3.6 -3.4 5.1 c -2.1 2.9 -3.9 5 -5.5 6.5 C 263.7 596.8 260.6 598.7 257.4 600 h -3 z m -183.7 0 H 69.3 c 3.4 -3.4 5.2 -8.3 5.2 -15 c 0 -18.6 0 -17.4 1 -20.8 c 0.6 -1.9 1.5 -3.7 3.3 -6.6 c 0.4 -0.7 4.9 -7.8 6.8 -10.9 c 3 -5 11 -16.5 12.2 -18.6 c 3.5 -6.1 4.7 -12.1 4.7 -24.2 c 0 -7.9 2.5 -14.2 8.1 -23.4 l 2.8 -4.6 C 114.3 474.5 115.1 473 115.9 471.5 c 1.6 -3.1 2.5 -5.8 2.6 -8.3 c 0.2 -3.8 -1.3 -7.3 -4.9 -10.9 c -5.1 -5.1 -8.6 -5.4 -11.2 -1.9 c -2.1 2.9 -3.5 7.7 -5.1 16.5 c -0.2 1 -0.8 4.6 -0.8 4.6 c -0.8 4.7 -1.4 7.3 -2.1 9.6 c -1.3 4.4 -3.7 7.6 -8.4 12.3 l -3.3 3.2 c -6.4 6.4 -9.7 11.5 -11.4 19.5 l -1.2 5.5 c -0.9 4.1 -1.6 7 -2.3 9.9 c -3.7 13.7 -9.6 26 -22.6 44.7 c -7.7 11.1 -11 18.9 -10.9 23.7 h -1 c -0.1 -5.2 3.4 -13 11.1 -24.3 c 12.9 -18.7 18.8 -30.8 22.4 -44.4 c 0.8 -2.9 1.5 -5.8 2.3 -9.9 l 1.2 -5.5 c 1.7 -8.2 5.1 -13.5 11.6 -20 c 0.6 -0.6 2.8 -2.8 3.3 -3.2 c 4.6 -4.5 6.8 -7.6 8.1 -11.8 C 94.4 477.7 95.1 474.6 95.6 471.4 l 0.8 -4.6 c 1.6 -8.9 3 -13.8 5.2 -16.9 c 3 -4.1 7.2 -3.8 12.7 1.7 c 3.8 3.8 5.4 7.6 5.2 11.7 c -0.2 2.7 -1 5.4 -2.7 8.7 C 116 473.5 115.2 475 114.3 476.5 l -2.8 4.6 c -5.5 9.1 -8 15.3 -8 22.9 c 0 12.3 -1.3 18.4 -4.8 24.7 c -1.2 2.1 -9.2 13.6 -12.2 18.6 c -1.9 3.1 -6.4 10.2 -6.8 10.9 c -1.7 2.8 -2.6 4.6 -3.2 6.4 c -1 3.3 -1 2.1 -1 20.5 c 0 6.5 -1.7 11.4 -4.8 15 z M 310.1 0 h 1.1 c -0.4 0.9 -0.8 1.8 -1.2 2.8 c -3.9 9.1 -5.4 15.1 -5.4 25.2 c 0 7.6 -2.1 11.6 -6.6 13 c -3.5 1.1 -5.7 1 -17.6 -0.4 c -11.6 -1.4 -19.2 -1.6 -28.2 -0.1 c -6.2 2.5 -25.9 7 -32.1 7 c -11.2 0 -36.8 -2.9 -54.1 -7 C 160.1 39 154 39.9 148.9 43 c -4.1 2.3 -7.1 5 -13.9 12 c -6.3 6.4 -9.5 9.2 -13.8 11.5 c -7.1 3.8 -11.2 7.7 -13.4 12.3 c -1.8 3.8 -2.3 7.8 -2.3 15.3 c 0 4.4 -2.7 6.7 -9.5 9.7 c 0.1 0 -3 1.3 -3.8 1.7 c -8.8 4.1 -12.7 8.3 -12.7 16.5 c 0 12.5 -4.9 19.2 -17.3 28 l -4.6 3.1 c -1.9 1.3 -3.3 2.3 -4.7 3.3 c -0.9 0.7 -1.8 1.3 -2.6 2 c -7.2 5.6 -11 14.5 -15.6 33.3 c -0.6 2.6 -3.3 14 -4.1 17.1 C 29.1 215.3 27.4 221.8 25.5 228.2 c -1.4 4.5 -4.5 15.1 -5 16.5 c -1.1 3.4 -1.6 4.9 -2.5 6.3 c -0.8 1.4 -6.8 9.1 -12.6 18.3 L 0 278 v -1.9 l 4.6 -7.4 C 8.5 262.5 12.7 256.4 17.2 250.5 c -0.3 0.5 1.4 -2.8 2.4 -6.1 c 0.4 -1.4 3.6 -12 4.9 -16.5 c 1.8 -6 3.4 -12.1 5.2 -19.3 c 0.8 -3.1 3.4 -14.6 4.1 -17.1 c 4.6 -18.9 8.5 -28 15.9 -33.8 c 0.8 -0.7 1.7 -1.3 2.6 -2 c 1.4 -1 2.8 -2 4.7 -3.3 l 4.5 -3.1 C 73.8 140.6 78.5 134.1 78.5 122 c 0 -8.7 4.2 -13.3 13.3 -17.5 c 0.9 -0.4 4 -1.8 3.8 -1.7 c 6.5 -2.9 8.9 -5 8.9 -8.8 c 0 -7.6 0.5 -11.7 2.4 -15.7 c 2.3 -4.8 6.6 -8.8 13.8 -12.7 c 4.2 -2.2 7.3 -5 14.2 -11.9 c 6.3 -6.4 9.4 -9.1 13.5 -11.5 C 153.7 38.9 160.1 38 166.1 39.5 c 17.3 4.1 42.8 7 53.9 7 c 6.1 0 25.7 -4.5 31.9 -7 c 9.1 -1.5 16.8 -1.3 28.5 0.1 c 11.6 1.4 13.9 1.5 17.1 0.5 c 4.1 -1.3 5.9 -4.9 5.9 -12.1 c 0 -10.1 1.6 -16.3 6.6 -28 z m 25.1 0 h 1 c 0.1 5.6 0.3 11.5 0.6 19.4 c 0.5 9.7 0.6 14.6 0.6 21.6 c 0 9.8 -4.7 17.5 -13.1 23.2 c -6.5 4.4 -14.9 7.5 -24.3 9.3 c -3.7 0.5 -9.4 0.6 -22.7 0.2 c -6.7 -0.2 -9.4 -0.2 -12.4 -0.2 c -2.8 0 -5 0.4 -7.6 1.4 c -0.9 0.3 -4.6 1.7 -5.6 2.1 c -6.6 2.3 -13.6 3.5 -24.8 3.5 c -8.1 0 -13.6 -1.4 -22.5 -4.9 l -3.2 -1.3 c -12.6 -4.9 -21.3 -5.2 -37.2 1.1 c -11.2 4.4 -18.1 9.2 -22.3 14.8 c -3.2 4.3 -4.3 7.8 -5.9 15.8 c -1.2 6.1 -1.9 8.7 -3.5 12.1 c -1.7 3.5 -4 5.8 -7.1 7.2 c -2.3 1.1 -4.3 1.5 -9.3 2.2 c -9 1.3 -12.8 3.1 -15.6 9.6 c -3.7 8.5 -7.7 13.9 -14.2 19.8 c -2.4 2.2 -13.1 11 -15.9 13.4 c -8.2 7.1 -13.9 17.4 -18.7 32 C 50.5 205.9 49.4 209.5 48.4 213 c 0 0.1 -2.3 8 -2.9 10.1 c -8.5 28.8 -17.9 53 -26.1 61.2 c -2.8 2.8 -5.1 5.6 -10.4 13 c -3.4 4.7 -6.2 8.3 -8.9 11.1 v -1.6 c 2.7 -3 5.7 -6.8 9.5 -12 c 4 -5.5 6.3 -8.4 9.2 -11.2 c 8.1 -8.1 17.4 -32.1 25.9 -60.8 c 0.6 -2.1 2.9 -10 2.9 -10.1 c 1.2 -4.2 2.2 -7.5 3.3 -10.7 c 4.9 -14.8 10.6 -25.2 19 -32.4 c 2.8 -2.4 13.5 -11.3 15.9 -13.4 c 6.4 -5.8 10.3 -11.1 14 -19.4 c 1.7 -3.8 4 -6.3 7.2 -7.9 c 2.4 -1.2 4.6 -1.7 9.5 -2.4 c 4.5 -0.6 6.5 -1 8.7 -2.1 c 2.9 -1.3 5 -3.4 6.6 -6.7 c 1.5 -3.3 2.2 -5.9 3.4 -11.9 c 1.6 -8.1 2.8 -11.8 6.1 -16.2 c 4.3 -5.8 11.4 -10.7 22.7 -15.2 c 16.2 -6.4 25.1 -6.1 37.9 -1.1 l 3.2 1.3 c 8.8 3.5 14.1 4.8 22.1 4.8 c 11.1 0 18 -1.2 24.5 -3.5 c 1 -0.4 4.7 -1.8 5.6 -2.1 C 259.6 73 262.3 72.5 265 72.5 c 3.1 0 5.7 0 14.1 0.3 c 11.5 0.3 17.2 0.3 20.8 -0.3 c 9.3 -1.8 17.5 -4.8 23.9 -9.2 C 332 57.8 336.5 50.5 336.5 41 c 0 -7 -0.2 -11.9 -0.7 -22.7 c -0.4 -7.3 -0.6 -12.8 -0.6 -18.3 z M 93.9 0 h 2 c -0.7 4 -1.6 6.8 -3 9.5 c -2.3 4.4 -2.8 5.8 -5.3 13 C 87.1 24.2 86.4 25.9 85.7 27.5 c -2.2 4.7 -5.9 8.8 -13.1 14.3 c -8 6.1 -14.3 16.5 -20 31.5 c -2.4 6.2 -8.8 25.6 -9.6 28 c -2.7 7.2 -6.6 12.7 -15.6 23.7 l -2.7 3.2 c -6 7.3 -9.3 12.1 -11.7 17.2 c -2.3 4.9 -7.1 9.9 -12.9 14.2 v -2.4 c 5.1 -3.9 9.1 -8.3 11.1 -12.6 c 2.5 -5.3 5.9 -10.1 12 -17.6 l 2.7 -3.3 c 8.9 -10.8 12.7 -16.2 15.3 -23.1 c 0.9 -2.3 7.2 -21.7 9.6 -28 c 5.9 -15.3 12.3 -26 20.7 -32.4 c 6.9 -5.3 10.4 -9.2 12.5 -13.6 c 0.7 -1.4 1.2 -2.7 1.8 -4.8 c 2.5 -7.4 3 -8.8 5.4 -13.3 C 92.5 5.9 93.4 3 93.9 0 z m 9.1 0 h 1 c -1.7 8.3 -2.9 12.7 -4.5 15.3 C 97.8 17.9 96.5 20.6 95.3 23.5 c -1.3 3 -2.4 6.2 -3.5 9.4 c -0.4 1.1 -0.7 2.2 -2.4 5.4 C 85 42.5 80.7 47 76.6 51.6 c -3.5 4 -6 7.3 -7.2 9.7 c -1 1.9 -2.1 6 -3.6 13 c -0.6 2.9 -3.6 17.2 -4.5 21.1 c -3.6 16.5 -6.6 26.7 -9.9 32 c -7.7 12.4 -10.6 15.7 -37.1 41.1 C 10.1 172.6 5.2 176.2 0 179.2 v -1.2 C 5 175.2 9.5 171.7 13.7 167.6 c 26.4 -25.3 29.3 -28.6 36.9 -40.9 c 3.2 -5.2 6.2 -15.4 9.8 -31.7 c 0.9 -3.9 3.9 -18.2 4.5 -21.1 c 1.6 -7.1 2.7 -11.2 3.7 -13.2 c 1.2 -2.5 3.8 -5.9 7.3 -9.9 c 0.9 -1 1.9 -2.1 2.9 -3.2 c 2.4 -2.6 5 -5.2 7.5 -7.8 c 0.9 -0.9 1.7 -1.7 3.4 -3.4 C 91 32 92.5 27.5 94.4 23.1 C 95.6 20.2 97 17.4 98.6 14.7 c 1.5 -2.4 2.7 -6.7 4.4 -14.7 z M 83.7 0 h 1.1 c -2.1 4.7 -6 8.9 -11.4 12.3 c -7.2 4.5 -16.5 7.2 -24.4 7.2 c -8.9 0 -11.8 7 -11.7 21.5 c 0 1.7 0 3.2 0.1 6 c 0.1 3.3 0.1 4.5 0.1 6 c 0 5.7 -0.8 11.3 -2 16.5 C 34.9 71.9 34.2 74.2 33.3 76.5 C 31 81.8 28.7 87.1 26.3 92.3 C 19.8 107 13.2 121.6 6.4 136.2 C 4.7 140 2.6 143.7 0 147 v -1.7 C 2.2 142.4 4 139.1 5.5 135.8 C 14.1 117.2 22.5 98.6 30.7 80 c 0.5 -1.2 1 -2.2 2.4 -5.9 C 35.3 67.3 36.5 60.2 36.5 53 c 0 -1.5 0 -2.7 -0.1 -6 c -0.1 -2.8 -0.1 -4.3 -0.1 -6 c 0 -6.8 0.5 -11.6 2.1 -15.3 c 1.9 -4.7 5.4 -7.2 10.7 -7.2 c 7.7 0 16.8 -2.6 23.9 -7.1 C 77.9 8.3 81.7 4.4 83.7 0 z m 282.6 0 h 1 c 1.9 10 2.2 12.7 2.3 18.3 C 370.8 27.5 371 36.9 370 46.1 c -1 8.8 -3.1 16 -6.6 21.2 c -11.3 16.5 -39.8 29.2 -66.4 29.2 c -5.1 0 -10.5 0.3 -16.3 0.8 C 272.5 98.1 264.4 99.2 256.3 100.5 c -21.6 3.3 -27.7 4 -36.3 4 c -6.9 0 -12.2 -1 -21.7 -3.9 l -2.8 -0.8 c -1.4 -0.4 -2.5 -0.7 -3.7 -1 c -8 -2 -14.2 -2 -21.7 0.7 C 166.2 100.9 162.9 103.8 161 107.7 c -1.6 3 -2.5 6.1 -4 12.8 c -1.5 6.6 -2.3 9.5 -4 12.6 C 151 137.2 147.5 140.2 143.1 141.5 C 139.9 142.5 136.8 143.6 133.7 144.9 c -6.5 2.8 -10.1 5.6 -13.8 10.5 c -1.3 1.8 -1 1.3 -5.4 7.9 c -2 3 -4.7 5.8 -8.5 9.1 c -2 1.8 -10.7 8.8 -12.9 10.7 c -7.4 6.3 -12.6 12.1 -16.6 19.1 c -4.2 7.3 -7.8 18.3 -11.3 33.3 c -0.9 3.7 -1.7 7.6 -2.6 12.1 l -1.2 5.8 l -1.1 5.4 c -1.8 9 -2.8 13.3 -3.8 16.3 c -6.8 20.4 -17.3 42.2 -27.1 51.2 c -5.1 4.7 -8.1 7.1 -11.1 8.9 c -0.9 0.5 -1.8 1 -2.9 1.6 c -0.4 0.2 -9.6 4.4 -14.1 6.7 l -1.2 0.6 v -1.1 l 0.8 -0.4 c 4.5 -2.3 13.7 -6.4 14.1 -6.6 C 15.8 335.4 16.8 334.9 17.7 334.4 c 2.9 -1.8 5.9 -4.1 10.9 -8.7 c 9.7 -8.9 20.1 -30.5 26.9 -50.8 c 1 -2.9 1.9 -7.2 3.7 -16.1 l 1.1 -5.5 C 61.5 247.2 62.8 241.3 64.2 235.3 c 3.5 -15.1 7.1 -26.1 11.4 -33.5 c 4.1 -7.1 9.4 -13 16.8 -19.4 c 2.2 -1.9 10.9 -8.9 12.9 -10.7 c 3.8 -3.3 6.4 -6.1 8.3 -8.9 c 4.4 -6.6 4.1 -6.2 5.5 -8 c 3.8 -5 7.5 -7.9 14.2 -10.8 c 2.6 -1.1 5.7 -2.2 9.6 -3.5 C 146.9 139.3 150.3 136.5 152.1 132.7 c 1.6 -3 2.4 -5.8 4 -13 c 1.4 -6.3 2.3 -9.3 4 -12.5 C 162.1 103.2 165.6 100 169.8 98.5 c 7.7 -2.8 14.1 -2.8 22.3 -0.8 c 1.1 0.3 2.3 0.6 3.7 1 l 3.7 1.1 c 8.5 2.5 13.7 3.6 20.5 3.6 c 8.6 0 14.7 -0.8 36.2 -4 C 264.3 98.2 272.4 97.1 280.6 96.3 c 5.9 -0.5 11.3 -0.8 16.4 -0.8 c 26.3 0 54.4 -12.6 65.6 -28.8 c 3.4 -5 5.5 -12.1 6.5 -20.7 c 0.8 -7.7 0.7 -16 0 -23.9 C 368.9 20.4 368.7 18.7 368.5 17 c 0 -4.5 -0.3 -6.9 -2.2 -17 z M 18.9 0 h 1 C 18 7.6 17.1 10.2 14.5 16.2 c -1.9 4.4 -2.7 9.2 -2.4 14.9 c 0.2 4.3 0.7 7.7 2.3 16.1 c 1.1 5.9 1.6 8.8 1.9 12.2 c 1 8.9 0.2 16.1 -2.8 22.8 C 9.3 91.4 4.8 100.5 0 109.4 v -2.1 C 4.4 98.9 8.6 90.4 12.5 81.8 c 3 -6.5 3.7 -13.5 2.7 -22.3 c -0.4 -3.4 -0.8 -6.3 -1.9 -12.1 c -1.6 -8.5 -2.1 -11.9 -2.3 -16.3 c -0.3 -5.8 0.5 -10.8 2.5 -15.3 c 2.6 -5.9 3.5 -8.5 5.3 -15.8 z m 280.5 0 C 298 3.9 296.4 7.6 294.4 11.2 c -2.6 4.7 -4 8.4 -4.9 12 l -0.4 1.8 l -0.3 1.4 C 288.8 27.2 288.5 27.9 288.2 28.5 c -0.7 1 -1.9 1.3 -5.1 1.3 c 0.9 0 -9.9 -0.3 -15 -0.3 c -10.2 0 -18.4 0.8 -29.5 2.6 c -16.9 2.7 -17.7 2.8 -23.7 2.5 C 212.2 34.5 209.5 34.1 206.9 33.5 c -17.7 -4.2 -46.2 -5.9 -54.7 -3 c -2.7 0.9 -5.9 2.8 -9.5 5.6 C 140.4 37.8 138.2 39.6 136.1 41.6 c -1.4 1.3 -9.2 8.5 -10.8 9.8 c -1.5 1.2 -8.2 7.4 -8.8 8 C 115 60.7 113.5 62 111.9 63.3 c -5 4 -8.9 6.2 -11.9 6.2 c -3.5 0 -4.3 0 -5.1 -0.4 c -1.1 -0.6 -1.5 -1.7 -1.1 -3.6 c 0.7 -3.6 4.5 -10.8 12.8 -24.8 c 5.7 -9.5 9.4 -18 11.8 -26.2 c 1.5 -5 1.9 -7.4 3 -14.5 h 1 c -1 7.3 -1.5 9.7 -3 14.8 c -2.4 8.3 -6.2 16.9 -11.9 26.4 c -8.3 13.8 -12 21 -12.7 24.5 c -0.3 1.5 -0.1 2.1 0.6 2.5 c 0.6 0.3 1.3 0.3 3.5 0.3 c 3.9 0 7.7 -2.1 12.5 -6 c 1.4 -1.1 2.9 -2.4 4.5 -3.9 c 0.7 -0.6 7.4 -6.8 8.9 -8 c 1.6 -1.3 9.3 -8.5 10.8 -9.8 c 2.4 -2.1 4.6 -4 6.6 -5.5 c 3.7 -2.9 7 -4.8 9.8 -5.7 c 8.8 -2.9 37.4 -1.2 55.3 3 c 2.6 0.6 5.1 1 7.8 1.1 c 5.8 0.3 6.7 0.1 23.5 -2.5 c 11.1 -1.8 19.4 -2.6 29.6 -2.6 c 5.2 0 16 0.3 15.1 0.3 c 2.9 0 3.8 -0.2 4.3 -0.8 c 0.2 -0.3 0.4 -0.8 0.6 -1.7 l 0.3 -1.4 l 0.4 -1.9 c 0.9 -3.6 2.4 -7.4 5 -12.2 c 1.9 -3.4 3.4 -7 4.7 -10.8 h 1.1 z m -8.6 0 c -5.9 17.9 -9.6 22 -19.8 22 c -4.5 0 -10.2 0.3 -28.7 1.5 l -1.5 0.1 c -15.6 1 -23.5 1.4 -28.8 1.4 c -5.3 0 -13.2 -1 -28.9 -3.3 l -1.5 -0.2 C 163.2 18.8 157.5 18 153 18 c -4.4 0 -7.3 1 -11 3.3 c -0.1 0.1 -1.8 1.2 -2.3 1.5 c -2.4 1.5 -4.3 2.2 -6.7 2.2 c -2.8 0 -4.1 -1.5 -4.1 -4.2 c 0 -1 0.2 -2.3 0.5 -4.1 c 0.2 -0.8 0.9 -4.4 1.1 -5.3 c 0.8 -4.1 1.3 -7.7 1.5 -11.4 h 2 c -0.2 3.8 -0.7 7.5 -1.5 11.8 c -0.2 0.9 -0.9 4.5 -1.1 5.3 C 131.1 18.3 130.9 19.5 130.9 20.8 c 0 1.7 0.5 2.2 2.1 2.2 c 2 0 3.6 -0.6 5.7 -1.9 c 0.5 -0.3 2.2 -1.4 2.3 -1.4 C 144.9 17.1 148.1 16 153 16 c 4.6 0 10.3 0.7 28.9 3.5 l 1.5 0.2 C 198.9 22 206.8 23 212 23 c 5.3 0 13.1 -0.4 28.7 -1.4 l 1.5 -0.1 C 260.7 20.3 266.4 20 271 20 c 8.9 0 12.1 -3.4 17.7 -20 h 2.1 z M 141.5 0 h 1.1 c -2.1 3.9 -2.6 5.1 -2.8 6.2 c -0.2 1.1 0.4 1.6 2.3 2 c 1.8 0.3 3.8 0.3 10.8 0.3 c 6 0 13 0.6 21.3 1.6 c 3.9 0.5 8 1.1 13.1 1.9 c 24 3.7 22.5 3.5 26.8 3.5 c 24 0 51.8 -2.2 60.4 -6.9 c 2.9 -1.6 5.1 -4.5 6.6 -8.6 h 1.1 c -1.6 4.5 -4 7.7 -7.2 9.4 c -8.8 4.8 -36.7 7.1 -60.9 7.1 c -4.4 0 -2.8 0.2 -27 -3.5 c -5.1 -0.8 -9.2 -1.4 -13.1 -1.9 c -8.3 -1.1 -15.3 -1.6 -21.2 -1.6 c -7 0 -9.1 -0.1 -11 -0.4 c -2.4 -0.4 -3.4 -1.3 -3.2 -3.1 c 0.2 -1.2 0.7 -2.4 2.6 -6.1 z m 76.4 0 c 5.7 1.6 10.4 2.5 14.1 2.5 c 9.6 0 16.7 -0.7 22.4 -2.5 h 3 C 251.1 2.5 243.2 3.5 232 3.5 c -4.5 0 -10.3 -1.2 -17.5 -3.5 h 3.4 z M 70.7 0 c -2.9 3.3 -7 5.4 -12 6.5 c -4 0.9 -7.5 1.1 -12.9 1 C 45.2 7.5 44.6 7.5 44 7.5 c -5.4 0 -8.9 -1.2 -10.1 -5 C 33.6 1.7 33.5 0.9 33.5 0 h 1 c 0 0.8 0.1 1.6 0.4 2.2 C 35.9 5.4 39 6.5 44 6.5 l 1.8 0 c 5.4 0.1 8.8 -0.1 12.7 -1 C 63 4.5 66.6 2.7 69.3 0 h 1.4 z M 0 207.9 c 7.3 -0.2 11.5 3.3 11.5 11.1 c 0 11.4 -5 28.3 -11.5 41.5 v -2.3 c 5.9 -12.7 10.5 -28.5 10.5 -39.2 c 0 -7.2 -3.7 -10.3 -10.5 -10.1 v -1 z m 0 7.1 c 1.2 0.1 2.2 0.6 2.9 1.3 c 1.4 1.5 1.6 3.7 1.2 7.6 l -0.2 1.3 C 3.7 226.4 3.5 227.7 3.5 229 c 0 3.2 -1.5 9.5 -3.5 15.9 v -3.4 c 1.5 -5.1 2.5 -9.9 2.5 -12.4 c 0 -1 0.1 -1.8 0.4 -4 l 0.2 -1.3 c 0.4 -3.6 0.2 -5.6 -0.9 -6.8 c -0.5 -0.5 -1.2 -0.9 -2.1 -1 v -1 z M 0 410.9 v -1.5 C 1.2 408 2.2 406.4 3 404.7 c 1.3 -2.7 2.7 -6.3 4.6 -11.9 c 7.9 -23.6 7.8 -26.6 0.3 -30.4 c -2.3 -1.1 -4.8 -1.4 -7.8 -0.9 v -1 C 2.8 360 5.7 360.3 8.2 361.5 c 8.2 4.1 8.3 7.6 0.3 31.6 c -1.9 5.7 -3.3 9.3 -4.6 12 C 2.9 407.3 1.6 409.2 0 410.9 z M 33.6 452 c 1.7 0 3 -0.2 8.3 -1.3 l 2.4 -0.5 c 8.3 -1.6 12.7 -1.3 14.5 2.3 c 1.4 2.8 -0.5 5.9 -4.8 9.7 C 52.5 463.7 50.8 465 49.1 466.3 c -0.9 0.7 -4.9 3.6 -5.8 4.3 c -1.9 1.4 -3 2.4 -3.5 3 C 38.5 475.3 37.6 477.1 36.9 479.1 c 0.1 -0.2 -4 13.6 -7 22.2 c -2.7 7.9 -5.6 10.7 -8.8 8.6 c -2.1 -1.4 -3.7 -4.2 -6.6 -11 c -2 -4.6 -2.5 -5.8 -3.4 -7.4 c -4.5 -8.2 -3.9 -23.9 -0.1 -32.9 C 12.2 455.6 14.9 453.3 18.1 452.6 c 2.6 -0.7 4.9 -0.8 11.8 -0.7 l 3.8 0 z m 0 2 c -1.1 0 -2.1 0 -3.8 0 c -12.1 -0.1 -14.8 0.6 -16.9 5.4 c -3.6 8.5 -4.3 23.6 -0.1 31.1 c 1 1.7 1.5 2.9 3.5 7.6 c 2.7 6.3 4.2 9.1 5.9 10.1 c 1.6 1.1 3.5 -0.8 5.8 -7.6 C 30.5 493.3 32.8 485.9 35 478.4 C 35.7 476.3 36.8 474.2 38.2 472.4 c 0.6 -0.9 1.9 -1.9 3.9 -3.4 c 0.9 -0.7 4.9 -3.6 5.8 -4.3 c 2 -1.5 3.6 -2.8 5 -4 c 3.6 -3.2 5.1 -5.7 4.3 -7.3 c -1.2 -2.4 -5.1 -2.6 -12.4 -1.3 l -2.4 0.5 c -5.5 1.1 -6.9 1.4 -8.7 1.4 z m 345.6 146 c -3.4 -12.3 -3.8 -14.1 -3.8 -19 c 0 -3.3 -0.1 -6.3 -0.4 -11.3 c -0.6 -10.3 -0.6 -13.5 0.3 -17.1 c 1.2 -4.7 4.2 -7.1 9.7 -7.1 h 26 c 4.1 0 5.2 1.9 5.9 7.1 c 0.1 0.8 0.1 1 0.2 1.3 c 0.8 5.4 2.8 7.6 8.9 7.6 c 3.6 0 5.5 0.4 6.4 1.4 c 0.8 0.8 0.8 1.4 0.4 3.9 c -0.9 5.3 0.5 8.9 7.5 13.8 c 6.3 4.5 11.6 5.4 16.6 3.4 c 3.8 -1.5 6.7 -4.2 11.9 -10 l 1.1 -1.2 l 1.1 -1.2 C 471.8 570.5 472.7 569.6 473.7 568.6 C 476.4 565.9 479.7 563.6 483.2 561.9 c 1.5 -0.8 1.7 -0.9 5.7 -2.6 c 6.1 -2.7 9 -4.5 11.7 -7.6 c 2.6 -3 4.7 -4.9 6.7 -6 c 3.2 -1.9 5.5 -2.1 13.7 -2.1 c 6 0 10.6 -4.3 18 -15 l 2.8 -4 c 1.1 -1.5 1.9 -2.7 2.8 -3.8 c 7.9 -10.1 19.4 -10.4 30.7 1 c 5.5 5.5 10.2 19.4 13.6 38.5 c 2.5 13.8 4.2 29.5 4.5 39.8 h -1 c -0.3 -10.3 -2 -26 -4.5 -39.7 c -3.4 -18.9 -8 -32.6 -13.4 -38 c -11 -10.9 -21.8 -10.7 -29.3 -1 c -0.8 1.1 -1.7 2.3 -2.8 3.8 l -2.8 4 c -7.6 11 -12.4 15.4 -18.8 15.4 c -8 0 -10.2 0.3 -13.2 2 c -1.9 1.1 -3.9 2.9 -6.4 5.8 c -2.9 3.3 -5.9 5.1 -12.1 7.9 C 487.4 561 485.5 561.9 483.7 562.8 C 480.2 564.5 477.1 566.7 474.4 569.4 C 473.1 570.7 471.8 572 470.6 573.4 l -1.1 1.2 c -5.3 6 -8.3 8.6 -12.3 10.3 c -5.3 2.1 -10.9 1.2 -17.5 -3.5 c -7.3 -5.2 -8.8 -9.1 -7.9 -14.8 c 0.3 -2.1 0.3 -2.6 -0.1 -3.1 c -0.6 -0.7 -2.3 -1 -5.7 -1 c -6.6 0 -9 -2.6 -9.9 -8.4 l -0.2 -1.3 c -0.7 -4.8 -1.5 -6.2 -4.9 -6.2 h -26 c -5 0 -7.6 2 -8.7 6.3 c -0.9 3.4 -0.9 6.6 -0.2 16.8 C 376.3 573.4 376.5 577.2 376.5 581 c 0 4.8 0.3 6.6 3.8 19 h -1 z m 13.7 0 c -1.3 -6.6 -1.6 -10.7 -1.4 -14.8 c 0 -0.7 0.1 -1.4 0.2 -2.4 l 0.2 -2.6 c 0.3 -3.8 0.5 -7 0.5 -11.2 c 0 -4.9 1.5 -7.8 4.2 -8.4 c 2.4 -0.6 5.6 0.5 9.2 3 c 6.6 4.5 14 13.1 16.6 19.2 c 4.8 11.4 14.1 15.7 33.5 15.7 c 8.6 0 14.3 -2.4 20.7 -7.9 c 1.4 -1.3 15.1 -15 21 -20 c 7.2 -6.1 11.8 -7.6 20.6 -8.3 c 5.5 -0.5 8 -0.9 11.4 -2.4 c 4.6 -2 9.4 -5.5 14.9 -11.3 c 7.4 -7.8 13.3 -8.9 17.5 -4.3 c 3.3 3.6 5.5 10.6 6.8 20.2 c 0.7 5.2 0.9 7.7 1.6 17.4 c 0.3 3.8 0.2 5.3 -0.9 18 h -1 c 1.1 -12.7 1.2 -14.3 0.9 -18 c -0.6 -9.6 -0.9 -12.2 -1.6 -17.3 c -1.3 -9.5 -3.4 -16.3 -6.6 -19.7 c -3.8 -4.1 -8.9 -3.1 -16 4.3 c -5.6 5.9 -10.5 9.5 -15.3 11.5 c -3.6 1.5 -6.1 2 -11.6 2.4 c -8.8 0.7 -13.2 2.2 -20.2 8.1 c -5.9 5 -19.5 18.7 -21 20 c -6.5 5.7 -12.5 8.1 -21.3 8.1 c -19.8 0 -29.5 -4.4 -34.5 -16.3 c -2.5 -6 -9.7 -14.4 -16.2 -18.8 c -3.4 -2.3 -6.4 -3.4 -8.4 -2.9 c -2.2 0.5 -3.4 2.9 -3.4 7.5 c 0 4.3 -0.2 7.5 -0.5 11.3 l -0.2 2.6 c -0.1 0.9 -0.1 1.6 -0.2 2.4 c -0.2 4.1 0.1 8.2 1.4 14.8 h -1 z m 113.8 0 c 2.5 -3.3 8.9 -11.8 10.9 -14.3 c 5.5 -7 13 -12.4 19.4 -13.9 c 7 -1.7 11.5 1.5 11.5 9.2 c 0 4 0 5.2 -0.7 19 h -1 c 0.7 -13.9 0.7 -15 0.7 -19 c 0 -7.1 -3.9 -9.8 -10.3 -8.3 c -6.1 1.5 -13.5 6.8 -18.9 13.6 c -1.9 2.4 -7.6 10.1 -10.4 13.7 h -1.3 z m -9.9 -339 c 3.4 2.7 7 5.1 11.4 7.8 c 1.1 0.6 8.4 4.9 10.4 6.1 c 11.3 7 15 13.4 12.4 25.3 c -1.5 6.5 -4.5 11.1 -9.4 14.4 c -3.8 2.6 -8.1 4.3 -16.1 6.6 c -12 3.4 -13.7 4 -18.8 6.3 C 484 328.7 481.4 330.1 478.9 331.7 c -11.1 7.1 -19.1 7.7 -28 3.3 c -3.6 -1.8 -17.2 -11 -17.2 -11 C 432 322.9 430.3 321.9 428.5 320.9 c -16 -8.8 -34.3 -24.2 -34.5 -31.9 c -0.1 -3.5 2 -6.6 6.3 -10.3 c 1 -0.9 2.2 -1.8 3.7 -2.9 c 0.7 -0.6 3.4 -2.6 3.9 -3 c 4.5 -3.4 7.2 -5.8 9.3 -8.4 c 11.1 -13.8 26.6 -28.7 34.4 -32.3 c 12.1 -5.5 19.8 -5.8 27.4 0.1 c 3.3 2.5 5.6 6.5 8.6 13.3 c 0.3 0.7 2.3 5.4 2.9 6.7 c 1.6 3.7 2.9 5.8 4.2 6.9 c 0.7 0.6 1.4 1.2 2.2 1.8 z m -3.5 -0.3 c -1.6 -1.4 -3 -3.7 -4.8 -7.7 c -0.6 -1.3 -2.6 -6.1 -2.9 -6.8 c -2.8 -6.5 -5.1 -10.3 -8 -12.6 c -6.8 -5.3 -13.9 -5.2 -25.3 0.1 c -7.4 3.4 -22.7 18.1 -33.6 31.7 c -2.3 2.8 -5.1 5.3 -9.7 8.8 l -3.9 3 C 403.9 278.3 402.7 279.3 401.6 280.3 c -3.9 3.3 -5.7 6 -5.6 8.7 c 0.2 6.6 18.1 21.7 33.5 30.1 c 1.8 1 3.5 2 5.3 3.1 c 0.1 0.1 13.6 9.2 17 10.9 c 8.2 4.1 15.5 3.5 26 -3.2 C 480.4 328.4 483.1 326.9 485.9 325.7 c 5.3 -2.4 7 -2.9 19.1 -6.4 c 7.8 -2.2 11.9 -3.8 15.5 -6.3 c 4.4 -3 7.2 -7.2 8.6 -13.2 c 2.4 -11 -0.8 -16.6 -11.5 -23.2 c -1.9 -1.2 -9.2 -5.4 -10.3 -6.1 c -4.5 -2.7 -8.1 -5.1 -11.6 -7.9 c -0.8 -0.6 -1.5 -1.2 -2.3 -1.8 z M 87.7 241.6 c 4.3 -3 7.9 -5 12.1 -6.9 c 0.8 -0.4 1.7 -0.8 2.8 -1.2 l 4.4 -1.9 C 113.1 228.9 119 225.9 124.8 222.6 C 133.8 217.3 143.1 212.4 152.6 208.1 c 4.2 -1.9 21.9 -9.8 21.2 -9.5 c 19.2 -8.6 28.1 -6.9 49.5 8.1 c 7.9 5.5 13.2 13.3 16.4 22.7 c 3 8.8 3.8 16.5 3.8 27.8 c 0 8.3 -0.7 12.9 -3.7 19 c -4.2 8.4 -12.3 16.1 -25.6 23.5 c -24.4 13.5 -38.8 27.6 -52.8 47.8 c -8.8 12.8 -47.8 44.2 -65.2 54.1 C 75 413.6 48.9 423.5 31 423.5 c -10.1 0 -14.7 -4.8 -14.8 -13.4 c -0.1 -6.3 2.1 -13.7 6.3 -24.3 c 2.9 -7.4 2 -12.9 -2.2 -22.3 c -3.2 -7.2 -3.9 -9.1 -3.9 -12.5 c 0 -3.4 1.9 -6.9 5.5 -11.1 c 2.6 -3 3.5 -3.8 11.9 -11.5 c 5.1 -4.7 8.1 -7.6 10.7 -10.8 c 9.5 -11.4 12.6 -19.5 17.9 -44.8 c 3.1 -15.1 6.6 -20.3 15.1 -25.3 c 0.8 -0.5 4 -2.3 4.7 -2.7 C 84.2 243.9 86 242.8 87.7 241.6 z m 0.6 0.8 C 86.5 243.6 84.7 244.8 82.8 245.8 l -4.7 2.7 c -8.2 4.8 -11.6 9.8 -14.6 24.6 c -5.3 25.4 -8.5 33.7 -18.1 45.2 c -2.7 3.2 -5.7 6.2 -10.8 10.8 c -8.4 7.6 -9.2 8.5 -11.8 11.4 c -3.5 4 -5.3 7.4 -5.3 10.4 c 0 3.2 0.7 5.1 3.8 12.1 c 4.3 9.6 5.2 15.4 2.2 23.1 c -4.2 10.5 -6.3 17.8 -6.2 23.9 c 0.1 8.1 4.3 12.4 13.8 12.4 c 17.7 0 43.7 -9.9 64.8 -21.9 c 17.3 -9.9 56.1 -41.2 64.8 -53.9 c 14.1 -20.4 28.6 -34.6 53.2 -48.2 c 13.1 -7.2 21.1 -14.9 25.2 -23 c 2.9 -5.9 3.6 -10.4 3.6 -18.5 c 0 -11.1 -0.7 -18.7 -3.7 -27.4 c -3.2 -9.2 -8.4 -16.8 -16.1 -22.2 c -21.1 -14.8 -29.7 -16.4 -48.5 -7.9 c 0.7 -0.3 -17 7.6 -21.2 9.5 c -1.7 0.8 -3.3 1.6 -4.9 2.3 C 140.4 215 132.7 219.1 125.3 223.4 C 119.5 226.8 113.5 229.8 107.4 232.4 l -4.4 1.9 c -1 0.4 -1.9 0.8 -2.8 1.2 C 96.1 237.5 92.1 239.8 88.3 242.4 z m -7.6 12.2 c 7.7 -6.3 12.3 -8.2 23.7 -11.3 c 6.1 -1.7 9.1 -2.9 12.3 -5.7 c 3.8 -3.3 7.5 -4.5 15.9 -6.1 c 2.8 -0.5 3.7 -0.7 5.1 -1 c 5.5 -1.2 9.5 -2.9 13.1 -5.9 c 10.4 -8.5 25.4 -14.1 36.3 -14.1 c 5.3 0 16.8 7.6 25.7 17.2 c 10.7 11.5 16 23.3 12.7 32.5 c -3.2 9.1 -11.4 18.6 -23 27.9 c -8.4 6.7 -18.4 13 -25.2 16.4 c -3.7 1.9 -6.6 4.9 -9.8 10 c -0.7 1.1 -11.1 20.3 -16 27.8 c -5.6 8.6 -15.4 17.4 -30.2 28 C 118.1 372.4 115.1 374.6 112 376.7 c -0.1 0.1 -6.8 4.6 -8.6 5.9 c -6.5 4.5 -10.3 7.4 -13 9.8 c -11.6 10.7 -37.1 15.5 -43.7 9 c -2 -2 -2.2 -4.1 -2 -10.5 c 0.4 -9.4 -0.5 -14.5 -5 -20.5 C 37.7 367.7 35.4 365.4 32.7 363.4 c -3.9 -2.9 -6.1 -6.1 -6.6 -9.5 c -1 -6.6 3.9 -13.1 14.2 -21.7 c 1.6 -1.3 6.7 -5.4 7.1 -5.8 C 49.3 325 51 323.4 52.6 321.7 c 4.1 -4.6 5.9 -9.6 7.8 -20.1 C 60.7 300.2 61 298.7 61.2 297.2 c 0.3 -1.9 0.6 -3.3 0.9 -4.7 c 0.7 -3.8 1.5 -7.2 2.4 -10.6 c 1 -3.8 1.4 -5.5 2.4 -10.4 c 0.6 -3 0.9 -4.2 1.6 -5.5 c 1.2 -2.4 1.3 -2.5 12.3 -11.4 z m 0.6 0.8 c -10.8 8.7 -10.9 8.8 -12 11.1 c -0.6 1.2 -0.9 2.3 -1.5 5.2 c -1 4.9 -1.4 6.6 -2.4 10.4 c -0.9 3.4 -1.6 6.8 -2.4 10.6 C 62.6 295 62.2 297.3 61.8 299.7 l -0.4 2.1 c -2 10.7 -3.8 15.7 -8 20.5 C 51.7 324.1 49.9 325.7 48 327.2 c -0.4 0.3 -5.5 4.5 -7.1 5.8 c -10 8.4 -14.7 14.6 -13.8 20.8 c 0.4 3.1 2.4 6 6.2 8.8 c 3 2.3 5.4 4.6 7.2 7.1 c 4.6 6.2 5.5 11.5 5.1 21.1 c -0.3 6.1 0 8.1 1.7 9.8 c 6.1 6.1 31 1.3 42.3 -9 c 2.8 -2.5 6.7 -5.4 13.2 -9.9 l 8.6 -5.9 c 3.6 -2.5 6.5 -4.4 9.2 -6.4 c 14.7 -10.5 24.4 -19.2 30 -27.7 c 4.9 -7.5 15.3 -26.7 16 -27.8 c 3.3 -5.3 6.3 -8.4 10.2 -10.4 c 6.8 -3.4 16.7 -9.6 25 -16.3 c 11.5 -9.2 19.6 -18.5 22.7 -27.4 c 3.1 -8.8 -2 -20.3 -12.5 -31.5 c -8.8 -9.4 -20 -16.8 -25 -16.8 c -10.7 0 -25.4 5.5 -35.7 13.9 c -3.8 3.1 -7.9 4.8 -13.5 6.1 c -1.4 0.3 -2.3 0.5 -5.1 1 c -8.2 1.6 -11.8 2.7 -15.4 5.9 c -3.3 2.9 -6.5 4.2 -12.7 5.9 c -11.3 3.1 -15.8 4.9 -23.3 11.1 z M 212 251.8 c 0 7.6 -0.6 10.9 -2.6 14.3 c -1.1 1.8 -7.7 10.1 -8.6 11.3 c -6 7.9 -9.3 10.3 -17.3 13.8 c -1.3 0.6 -2.2 1 -3 1.5 c -0.6 0.3 -1.2 0.7 -2 1 c -0.7 0.3 -4.5 1.9 -5.5 2.4 c -6.1 2.8 -9 5.8 -9 10.7 c 0 11 -18.9 36.1 -34.5 44.9 c -8.2 4.6 -21.3 9.4 -32.8 11.9 c -13.3 2.9 -22.5 2.5 -24.6 -2.3 c -1.3 -3 -4.4 -4.3 -12 -5.8 l -0.6 -0.1 c -4.8 -1 -6.9 -1.6 -9 -2.6 c -2.9 -1.5 -4.5 -3.7 -4.5 -6.8 c 0 -2.7 1.1 -5.8 3.3 -9.7 c 0.9 -1.5 1.8 -3.1 3.2 -5.4 c -0.2 0.3 2.8 -4.4 3.7 -5.8 c 6.7 -10.7 9.9 -18.5 9.9 -27.2 c 0 -18.4 11.2 -33.4 27.5 -42.9 c 5.2 -3.1 9.2 -3.3 15.2 -2.1 c 5 1 6 0.9 7.4 -1.5 c 4.5 -7.8 7 -9.5 15.9 -9.5 c 3.9 0 7 -1 10.5 -3.2 c 1.6 -1 8.7 -6.2 11 -7.7 c 9.2 -6 11.3 -7 25.2 -11.9 c 6.9 -2.5 15.2 1.3 22.3 9.1 c 6.6 7.2 11 16.6 11 23.7 z m -2 0 c 0 -6.5 -4.3 -15.5 -10.5 -22.3 c -6.7 -7.3 -14.2 -10.7 -20.2 -8.6 c -13.7 4.9 -15.7 5.8 -24.8 11.8 c -2.2 1.5 -9.4 6.7 -11 7.7 c -3.8 2.4 -7.2 3.5 -11.5 3.5 c -8.1 0 -10 1.2 -14.1 8.5 c -1.1 1.9 -2.5 2.9 -4.3 3.1 c -1.3 0.1 -1.9 0.1 -5.2 -0.6 c -5.5 -1.1 -9.1 -0.9 -13.8 1.9 c -15.7 9.2 -26.5 23.6 -26.5 41.1 c 0 9.2 -3.3 17.3 -10.1 28.3 l -3.7 5.8 c -1.4 2.2 -2.4 3.8 -3.2 5.3 c -2 3.6 -3 6.4 -3 8.7 c 0 4.2 2.9 5.7 11.9 7.5 l 0.6 0.1 c 8.3 1.7 11.7 3.1 13.4 6.9 c 3.2 7.1 36 0 54.6 -10.5 c 15 -8.4 33.5 -33 33.5 -43.1 c 0 -5.9 3.5 -9.5 10.2 -12.6 c 1.1 -0.5 4.8 -2.1 5.5 -2.4 c 0.7 -0.3 1.3 -0.6 1.8 -0.9 c 0.9 -0.6 1.8 -1 3.3 -1.6 c 7.7 -3.4 10.8 -5.5 16.5 -13.1 c 1 -1.4 7.5 -9.4 8.5 -11.1 c 1.8 -3 2.3 -6.1 2.3 -13.3 z m -37.2 -22.4 c 0.2 -0.1 2.4 -1.5 2.9 -1.8 c 1 -0.6 1.7 -0.9 2.4 -1.2 c 2.6 -0.8 5.1 -0.1 11 3.1 c 14.9 8 19.4 22.9 9.2 38.7 c -4 6.2 -9.4 9 -18.7 11.1 c -0.8 0.2 -1.2 0.3 -3.1 0.7 c -6 1.3 -8.8 2.1 -11.6 3.6 c -3.6 2 -6.1 5 -7.5 9.4 c -7.9 24.9 -19.7 43.3 -36.3 50.3 c -16.5 6.9 -21.1 8.5 -28 8.9 c -4.9 0.3 -9.8 -0.6 -15.4 -2.9 C 75.9 348.7 74 347.9 72.2 346.9 c -4 -2.3 -5.1 -4.7 -4.5 -9.3 c 0.3 -2.1 3.8 -15.5 4.8 -20.6 c 0.6 -3.1 1.2 -6.1 1.8 -9.7 C 74.7 304.2 75.2 301.3 75.6 298.3 c 1.4 -9.4 2.5 -14.3 4.5 -18.6 c 2.5 -5.4 6.1 -9 11.7 -11.1 c 6.6 -2.5 10.5 -3.1 18 -3.5 c 4.8 -0.3 6.7 -0.6 9 -2.1 c 0.6 -0.4 1.2 -0.8 1.8 -1.3 C 121.9 260.6 123 259.4 124 258.2 c 0.6 -0.7 2.4 -2.9 2.6 -3.2 c 3.4 -4 6.3 -5.5 12.3 -5.5 c 3.9 0 5.9 -0.9 8.2 -3.4 c -0.2 0.2 2.8 -3.1 3.8 -4.2 C 153.1 240 155.3 238.3 157.8 236.9 c 1.5 -0.8 3.2 -1.6 5 -2.4 C 166.3 233.1 169.6 231.4 172.8 229.4 z m -14.5 8.3 C 155.9 239.1 153.7 240.7 151.7 242.6 C 150.4 244 149.1 245.4 147.9 246.8 c -2.5 2.6 -4.7 3.7 -8.9 3.7 c -5.7 0 -8.4 1.4 -11.6 5.2 c -0.2 0.3 -2 2.5 -2.6 3.2 C 123.7 260.1 122.6 261.3 121.3 262.4 c -0.7 0.6 -1.3 1 -2 1.4 c -2.5 1.5 -4.5 1.9 -9.5 2.2 c -7.4 0.4 -11.3 1 -17.7 3.5 c -5.3 2 -8.8 5.4 -11.2 10.6 c -1.9 4.3 -3 9.1 -4.4 18.4 l -0.7 4.3 l -0.7 4.6 c -0.6 3.6 -1.1 6.7 -1.8 9.7 c -1.1 5.2 -4.5 18.5 -4.8 20.6 c -0.6 4.2 0.3 6.2 4 8.3 c 1.3 0.8 3.1 1.6 5.5 2.6 c 5.5 2.2 10.2 3.1 15 2.8 c 6.7 -0.3 11.3 -1.9 27.6 -8.8 c 16.2 -6.8 27.9 -25 35.7 -49.7 c 1.5 -4.7 4.1 -7.9 8 -10 c 2.9 -1.6 5.7 -2.4 11.9 -3.8 c 1.9 -0.4 2.3 -0.5 3.1 -0.7 c 9.1 -2.1 14.2 -4.7 18.1 -10.7 c 9.9 -15.3 5.6 -29.6 -8.8 -37.3 c -5.8 -3.1 -8 -3.8 -10.3 -3.1 c -0.7 0.2 -1.3 0.5 -2.2 1.1 c -0.6 0.3 -2.8 1.7 -2.9 1.8 C 170.1 232.3 166.7 234 163.2 235.5 c -1.8 0.8 -3.4 1.5 -4.9 2.3 z m -42.4 32.7 c 16.1 -2.9 26.4 -1 32.5 6.2 c 5.1 5.9 1.1 21.4 -5.9 35.6 c -4.8 9.6 -10.6 16.2 -23.2 25.2 c -14.2 10.1 -35.5 12.2 -40.7 3.9 c -1.9 -3 -2.1 -8.1 -1.1 -15.7 c 0.8 -5.7 1.9 -10.7 4.7 -23 l 0.1 -0.5 c 1.6 -6.8 2.4 -10.3 3.1 -14.1 c 1.5 -7.3 3.7 -11.5 7.3 -13.7 c 2.8 -1.8 5.5 -2.3 12.3 -2.6 c 5.3 -0.3 7.6 -0.5 10.8 -1 z m 0.2 1 c -3.3 0.6 -5.6 0.8 -10.9 1.1 c -6.6 0.3 -9.2 0.8 -11.8 2.5 c -3.3 2.1 -5.4 6.1 -6.8 13.1 c -0.8 3.8 -1.6 7.4 -3.2 14.2 l -0.1 0.5 c -2.9 12.2 -3.9 17.3 -4.7 22.9 c -1 7.4 -0.8 12.4 0.9 15.1 c 4.8 7.7 25.5 5.7 39.3 -4.1 c 12.4 -8.9 18.1 -15.4 22.8 -24.8 c 6.9 -13.7 10.8 -29 6.1 -34.4 c -5.8 -6.8 -15.7 -8.6 -31.5 -5.8 z M 132 276.5 c 7.1 0 10.7 3.1 11.3 8.7 c 0.4 4 -0.4 8.1 -2.8 15.9 c -2.6 8.5 -18.4 25.4 -27.2 31.3 c -7 4.7 -20 5.7 -26.6 1 c -4 -2.9 -3.5 -12.1 0 -26.5 c 0.7 -2.8 1.5 -5.6 2.4 -8.8 C 90.1 294.8 91.1 291.4 92.1 288.1 l 0.4 -1.2 c 1.5 -4.8 5.1 -7.8 10.7 -9.3 c 4.4 -1.2 9.5 -1.5 17.5 -1.3 l 3.9 0.1 c 3.9 0.1 5.4 0.1 7.4 0.1 z m 0 1 c -2 0 -3.5 0 -7.4 -0.1 l -3.9 -0.1 c -7.8 -0.2 -12.9 0.1 -17.2 1.3 c -5.3 1.4 -8.7 4.2 -10 8.6 C 93 288.9 92.4 290.6 91.9 292.4 c -0.7 2.2 -1.3 4.2 -1.8 6.1 c -0.9 3.1 -1.7 6 -2.4 8.7 c -3.4 13.9 -3.9 22.9 -0.4 25.4 c 6.2 4.4 18.7 3.4 25.4 -1 c 8.7 -5.8 24.3 -22.5 26.8 -30.7 c 2.3 -7.7 3.1 -11.7 2.7 -15.6 c -0.5 -5.1 -3.6 -7.8 -10.3 -7.8 z m -17.8 7 C 117.1 284.6 120 285 122.8 285.9 c 5.4 1.8 8.7 5 8.7 10.1 c 0 9.6 -9.5 17.2 -22.3 21.5 c -9.8 3.3 -13.6 -1.8 -11.7 -16.5 c 0.8 -6.3 3.8 -10.7 8.2 -13.5 C 108.3 285.9 111.2 284.8 114.2 284.5 z m -0.6 1.1 C 111 286 108.5 286.9 106.3 288.3 c -4.2 2.6 -7 6.8 -7.8 12.8 c -1.9 14.1 1.4 18.4 10.3 15.5 C 121.3 312.4 130.5 305 130.5 296 c 0 -4.6 -3 -7.5 -8 -9.1 C 119.8 286 117.1 285.5 114.3 285.5 c -0.1 0 -0.3 0 -0.7 0.1 z m 80.9 -23.4 c -2.7 9.8 -14.9 9.9 -26.7 3.3 c -10.2 -5.6 -13.8 -18 -5 -22.9 C 164.3 241.7 165.8 240.8 167.2 239.9 l 2 -1.3 C 170.5 237.7 171.8 237 173.2 236.3 c 4.7 -2.4 8.8 -2.8 14 -0.7 c 9.2 3.7 11 13.3 7.3 26.6 z m -20.8 -25 C 172.3 237.8 171.1 238.6 169.8 239.4 l -2 1.3 c -0.8 0.5 -1.5 0.9 -2.2 1.3 c -0.8 0.5 -1.6 1 -2.4 1.4 c -7.9 4.4 -4.6 15.8 5 21.1 c 11.3 6.3 22.8 6.2 25.3 -2.7 c 3.6 -12.8 1.8 -22 -6.7 -25.4 c -4.9 -1.9 -8.7 -1.6 -13.2 0.7 z m 17.8 12.2 c 0 5.7 -2.4 9 -6.6 10 c -3.3 0.8 -7.6 -0.1 -11.1 -1.8 l -1.9 -0.9 c -0.7 -0.3 -1.2 -0.6 -1.6 -0.9 c -4.1 -2.4 -4.1 -5 0.3 -10.9 c 6.8 -9.1 20.9 -7.2 20.9 4.6 z m -1 0 c 0 -5.3 -2.9 -8.6 -7.3 -9.2 c -4.2 -0.6 -9 1.4 -11.8 5.2 c -4.2 5.5 -4.1 7.4 -0.6 9.5 c 0.4 0.3 0.9 0.5 1.6 0.8 l 1.9 0.9 c 3.3 1.7 7.4 2.4 10.4 1.7 c 3.7 -0.9 5.9 -3.7 5.9 -9 z M 387 530.3 c 0 -12.8 2.4 -16.7 18.5 -29.8 C 407.9 498.6 410.4 496.9 413.1 495.3 c 2.6 -1.5 5.3 -2.8 8.5 -4.2 c 1.2 -0.5 2.5 -1.1 4.1 -1.7 l 3.9 -1.6 c 9.4 -3.8 13.7 -6.7 16.6 -12.1 c 1.2 -2.2 2.2 -4.4 3.2 -6.8 C 450 467.7 450.5 466.4 451 465.2 l 0.3 -0.7 l 0.6 -1.4 c 3.2 -8 6.1 -12.1 12.7 -16.5 C 466.3 445.3 468 444 469.5 442.5 C 470.9 441.1 472.2 439.7 473.4 438.2 c 0.3 -0.3 2.6 -3.2 3.2 -4 c 3.5 -4.1 6.5 -5.9 11.5 -5.9 c 3.1 0 5.6 -0.6 9.6 -2.1 c 5.4 -2 6.5 -2.3 9 -2.2 c 2.5 0.1 4.9 1.3 7.2 3.6 c 1.3 1.3 5.5 5.8 6.5 6.8 c 5.1 5 9.4 6.9 17.8 6.9 C 542.1 441.3 546.2 441.5 550.2 441.7 c 15.9 0.9 21.9 0.6 25.3 -2.2 c 6.9 -5.8 11.6 -2.7 11.6 7.8 c 0 10.7 -8.6 20 -19 20 c -4.8 0 -8.3 1.4 -9.3 3.7 c -1.1 2.5 0.7 6.1 6 10.6 c 13.6 11.3 11.2 20.8 -7.6 20.8 C 551.8 502.2 546.6 504.1 542.5 507.5 c -3.3 2.7 -5.8 5.9 -9.9 11.8 l -1.5 2.3 c -3.1 4.6 -5 7.1 -7.3 9.4 c -6.2 6.2 -9.3 7.6 -13.1 6.9 l -1 -0.2 C 508.9 537.4 508 537.3 507.1 537.3 c -1.6 0 -2.4 0.7 -8.2 6.2 c -4.9 4.7 -8.1 6.8 -11.8 6.8 c -1.3 0 -3.5 1.1 -6.4 3.5 c -1.3 1 -2.7 2.1 -4.5 3.7 l -4.9 4.3 C 469.7 563 468.2 564.3 466.7 565.6 c -9.3 7.6 -15.6 10.2 -20.2 6.5 c -2.7 -2.1 -4.1 -4.5 -4.6 -7.3 c -0.4 -2 -0.3 -3.6 0.3 -7.3 c 0.9 -5.9 0.6 -8.4 -1.8 -11.6 c -2.3 -3 -3 -3.2 -3.8 -2.4 c -0.3 0.3 -1.4 1.6 -1.6 1.9 c -2.2 2.5 -4.9 3.6 -9 2.8 c -4.6 -0.8 -5.6 -4.1 -4.7 -10.1 l 0.2 -1.6 c 0.6 -3.7 0.7 -4.9 0.3 -5.8 c -0.4 -0.9 -1.9 -0.9 -5.2 0.4 l -0.7 0.3 c -13.8 5.5 -15.3 6.1 -19.4 6.7 c -6 0.8 -9.3 -1.6 -9.3 -7.9 z m 2 0 c 0 5 2.1 6.6 7 5.9 c 3.9 -0.5 5.4 -1.1 18.9 -6.5 l 0.8 -0.3 c 4.2 -1.7 6.7 -1.5 7.8 0.6 c 0.7 1.4 0.6 2.8 -0.1 7 l -0.2 1.5 c -0.7 5 -0.1 7.3 3.1 7.8 c 3.4 0.6 5.4 -0.2 7.1 -2.2 c 0.2 -0.2 1.3 -1.7 1.7 -2 c 1.9 -2 3.8 -1.3 6.8 2.5 c 2.9 3.7 3.2 6.8 2.2 13.1 c -1 6.8 -0.5 9.4 3.6 12.7 c 3.5 2.8 9.1 0.5 17.7 -6.5 c 1.4 -1.1 2.8 -2.3 4.5 -3.8 l 4.9 -4.3 c 1.8 -1.6 3.3 -2.8 4.6 -3.8 c 3.3 -2.6 5.7 -3.9 7.7 -3.9 c 3 0 5.9 -1.9 10.4 -6.2 l 2.5 -2.4 c 0.9 -0.9 1.7 -1.6 2.4 -2.1 c 1.8 -1.5 3.3 -2.3 4.7 -2.3 c 1 0 1.8 0.1 3.1 0.4 c 0.7 0.2 0.7 0.2 1 0.2 c 3 0.6 5.5 -0.5 11.2 -6.3 c 2.2 -2.2 4.1 -4.6 7.1 -9.1 l 1.5 -2.3 c 4.1 -6.1 6.8 -9.4 10.2 -12.2 C 545.7 502.2 551.3 500.2 557.1 500.3 c 16.9 0 18.6 -7 6.4 -17.2 c -5.9 -4.9 -8.1 -9.4 -6.5 -12.9 c 1.4 -3.1 5.7 -4.8 11.2 -4.8 c 9.3 0 17 -8.3 17 -18 c 0 -8.9 -2.9 -10.8 -8.4 -6.2 c -3.9 3.3 -10 3.6 -26.7 2.7 l -1 -0.1 c -5.1 -0.3 -8 -0.4 -11 -0.4 c -8.9 0 -13.8 -2.1 -19.2 -7.5 c -1 -1 -5.3 -5.5 -6.5 -6.8 c -2 -2 -3.9 -2.9 -5.9 -3 c -2 -0.1 -3.1 0.2 -8.1 2.1 c -4.1 1.6 -6.9 2.2 -10.3 2.2 c -4.3 0 -6.8 1.5 -10 5.2 c -0.6 0.7 -2.9 3.6 -3.2 3.9 C 473.7 441 472.3 442.5 470.9 443.9 C 469.3 445.5 467.5 446.9 465.7 448.1 c -6.3 4.2 -8.9 7.9 -11.9 15.6 l -0.6 1.4 l -0.3 0.7 C 452.4 467.2 451.8 468.5 451.3 469.8 C 450.3 472.2 449.2 474.5 448 476.8 c -3.2 5.9 -7.8 9 -17.6 13 l -3.9 1.6 c -1.6 0.6 -2.8 1.1 -4.1 1.7 C 419.5 494.2 416.8 495.5 414.1 497.1 C 411.5 498.5 409 500.2 406.7 502.1 C 391.1 514.8 389 518.2 389 530.3 z m 133.2 -79.8 c 3.1 1.5 6.5 2 10.7 1.7 c 2.5 -0.2 4.9 -0.6 8.8 -1.5 c 5.4 -1.2 6.3 -1.4 8.3 -1.5 c 2.8 -0.2 4.8 0.2 6.3 1.4 c 1.6 1.3 2 2.7 1.3 4.2 c -0.7 1.4 -1 1.7 -5 5.1 c -3.5 2.9 -5 4.8 -5 7.1 c 0 7.3 1.3 10 7.8 15.6 c 3.9 3.3 5.9 6.8 5.3 9.6 c -0.8 3.3 -5 5 -12.6 5 c -7.2 0 -12.7 4.6 -20 14.7 c -0.5 0.7 -4 5.6 -4.9 6.9 C 521.6 520.8 520.1 522.6 518.3 524.3 c -1.1 1 -2.1 1.7 -3.1 2.1 c -2.9 1.3 -5.1 1.6 -9.8 1.7 c -7.7 0.3 -10.9 1.5 -15 7.1 c -1.6 2.2 -3.1 4 -4.7 5.6 C 483.1 543.5 480.2 545.7 477.1 547.6 c -0.1 0.1 -10.7 6.2 -14.8 8.8 c -3.8 2.4 -6.4 2 -8.2 -0.8 c -1.3 -2 -1.9 -4.5 -2.9 -10.4 c -0.8 -5.1 -1.3 -7.1 -2.1 -8.9 c -1 -2.3 -2.2 -3.2 -4 -2.9 c -6.2 1.2 -8.9 1.4 -11 0.2 c -2.4 -1.4 -3.1 -4.6 -2.6 -10.7 c 0.2 -2 -1 -2.9 -3.8 -3 c -2.2 -0.1 -4.9 0.2 -9.9 1.1 l -0.7 0.1 c -8 1.5 -10.7 1.7 -12.7 0.7 c -2.9 -1.4 -1.6 -5.3 4.2 -12.2 c 5.5 -6.5 10.6 -10.8 15.8 -13.5 c 3.7 -2 5.9 -2.6 12.2 -4.1 c 7.3 -1.7 10.4 -3.5 14 -9.3 c 3 -4.8 10.7 -18.6 12.1 -20.8 c 3.6 -5.7 6.8 -9.1 11.1 -11.3 c 2.6 -1.4 4.7 -2.8 9.2 -6.1 l 1.4 -1 c 7.9 -5.7 12.3 -8 17.7 -8 c 4.2 0 6.5 1.4 9.1 4.8 c 0.3 0.4 1.7 2.2 2 2.7 c 0.9 1.1 1.6 2 2.5 2.8 C 517.5 447.7 519.8 449.3 522.2 450.5 z m -0.4 0.9 c -2.8 -1.4 -5 -3 -6.9 -5 c -0.9 -0.9 -1.6 -1.8 -2.5 -2.9 c -0.4 -0.5 -1.7 -2.3 -2 -2.7 c -2.5 -3.2 -4.5 -4.4 -8.3 -4.4 c -5.1 0 -9.4 2.2 -17.1 7.8 l -1.4 1 c -4.5 3.3 -6.6 4.7 -9.3 6.1 c -4.1 2.1 -7.2 5.4 -10.7 11 c -1.4 2.2 -9.2 16.1 -12.1 20.8 c -3.8 6.1 -7.1 8 -14.7 9.8 c -6.1 1.4 -8.3 2.1 -11.9 4 c -5 2.7 -10.1 6.9 -15.5 13.3 c -5.4 6.5 -6.5 9.7 -4.6 10.7 c 1.7 0.8 4.5 0.6 12.1 -0.8 l 0.7 -0.1 c 5.1 -0.9 7.8 -1.3 10.2 -1.1 c 3.2 0.2 4.9 1.5 4.7 4.1 c -0.5 5.8 0.2 8.6 2.1 9.8 c 1.7 1 4.3 0.9 10.3 -0.3 c 2.4 -0.5 4 0.8 5.1 3.5 c 0.8 2 1.3 4 2.1 8.8 l 0.1 0.4 c 0.9 5.6 1.6 8.1 2.7 10 c 1.5 2.3 3.5 2.6 6.8 0.5 c 4.1 -2.7 14.7 -8.8 14.8 -8.9 C 479.6 544.9 482.5 542.7 485 540.2 C 486.7 538.5 488.2 536.6 489.6 534.7 c 4.3 -6 7.8 -7.2 15.7 -7.5 c 4.7 -0.2 6.8 -0.5 9.5 -1.7 c 0.9 -0.4 1.9 -1.1 2.8 -2 C 519.3 521.9 520.9 520.1 522.2 518.2 c 1 -1.3 4.4 -6.2 4.9 -6.9 c 7.5 -10.3 13.2 -15.1 20.8 -15.1 c 7.2 0 11 -1.6 11.6 -4.2 c 0.5 -2.3 -1.4 -5.6 -5 -8.6 c -6.8 -5.8 -8.2 -8.8 -8.2 -16.4 c 0 -2.7 1.6 -4.7 5.4 -7.9 c 3.8 -3.2 4.2 -3.6 4.8 -4.7 c 0.5 -1.1 0.3 -2 -1 -3 c -2.2 -1.9 -4.7 -1.6 -13.8 0.4 c -3.9 0.9 -6.4 1.3 -8.9 1.5 c -4.3 0.3 -8 -0.2 -11.2 -1.8 z m -28 -3.9 c 5.6 -2.8 9 -2.2 12.9 1.4 c 0.6 0.5 2.6 2.5 3 2.9 c 4.2 3.9 8.1 5.7 14.3 5.7 c 11.4 0 14 1.4 16.1 8.1 c 0.3 0.8 1.4 4.6 1.7 5.6 c 0.8 2.6 1.6 5 2.7 7.6 c 2.1 5.2 2.6 8.3 1.7 10.2 c -0.8 1.6 -2.1 2.2 -5.4 2.8 c -2.3 0.4 -2.8 0.5 -3.9 0.9 c -1.9 0.6 -3.4 1.4 -4.6 2.7 c -1 1 -2 2.1 -3.3 3.7 c -0.6 0.7 -2.9 3.5 -3.5 4.1 c -7.2 8.5 -12.4 12.3 -19.6 12.3 c -3.8 0 -6.9 1.3 -10.6 4 c -1.8 1.4 -11.6 10.3 -15.2 13.1 C 477.4 534.7 474.4 536.7 471.2 538.4 c -4.6 2.5 -7.4 3.2 -9 2.2 c -1.3 -0.8 -1.6 -2.1 -1.9 -5.5 C 460.3 534.6 460.2 534 460.2 533.4 c -0.5 -4.7 -2.2 -6.9 -7.2 -6.9 c -7.1 0 -8.9 -1.2 -9.7 -5.4 c -1 -4.6 -2.1 -6.7 -6.6 -9.7 c -4 -2.6 -4.3 -5.4 -1.5 -8.2 c 2 -2 4.6 -3.5 11.4 -6.9 c 6.6 -3.3 9.2 -4.8 11.1 -6.7 C 459.6 487.7 461.4 485.5 462.9 483.2 c 1 -1.5 1.8 -3 2.9 -5.1 l 2.1 -4.3 c 0.9 -1.8 1.7 -3.4 2.6 -5 c 5.7 -10.3 10.4 -14.8 23.2 -21.2 z m -22.3 21.7 c -0.9 1.6 -1.7 3.1 -2.6 4.9 l -2.1 4.3 C 465.8 480.3 464.9 482 463.8 483.7 C 462.2 486.1 460.4 488.3 458.3 490.3 c -2 2 -4.6 3.5 -11.4 6.9 c -6.6 3.3 -9.2 4.8 -11.1 6.7 c -2.3 2.3 -2.1 4.4 1.4 6.7 c 4.7 3.1 6 5.5 7 10.3 c 0.8 3.7 2.1 4.6 8.8 4.6 c 5.5 0 7.6 2.6 8.1 7.8 c 0.1 0.5 0.1 0.8 0.2 1.8 c 0.3 3.1 0.6 4.2 1.5 4.7 c 1.2 0.7 3.7 0.1 8 -2.3 C 473.8 535.8 476.8 533.9 479.6 531.8 c 3.6 -2.7 13.3 -11.6 15.2 -13.1 c 3.8 -2.8 7.2 -4.2 11.2 -4.2 c 6.8 0 11.8 -3.7 18.8 -12 l 3.5 -4.1 C 529.4 497.1 530.5 495.8 531.6 494.6 C 533.1 493.3 534.8 492.3 536.7 491.7 c 1.1 -0.3 1.6 -0.4 4 -0.9 c 3 -0.6 4.1 -1 4.6 -2.2 c 0.8 -1.6 0.3 -4.5 -1.7 -9.4 C 542.5 476.7 541.6 474.1 540.8 471.5 c -0.3 -1 -1.4 -4.8 -1.7 -5.6 c -2 -6.2 -4.2 -7.4 -15.1 -7.4 c -6.5 0 -10.6 -1.9 -15 -6 c -0.4 -0.4 -2.5 -2.4 -3 -2.9 c -3.6 -3.3 -6.5 -3.9 -11.8 -1.2 c -12.7 6.3 -17.1 10.6 -22.8 20.8 z m 55.9 11.9 c -3 6.4 -16.8 15.3 -26.7 15.3 c -5.3 0 -7.6 -3 -7.1 -7.9 c 0.3 -3.5 2.1 -7.9 3.9 -10.6 l 1.5 -2.3 C 499.5 474.7 500.1 473.8 500.8 472.9 c 3.7 -4.8 7.9 -7.4 13.6 -7.4 c 9.1 0 15.8 9.5 12.9 15.7 z m -0.9 -0.4 c 2.5 -5.5 -3.6 -14.3 -12 -14.3 c -5.4 0 -9.3 2.5 -12.8 7.1 c -0.6 0.8 -1.2 1.6 -1.9 2.6 c 0 0 -1.2 1.9 -1.5 2.3 c -1.7 2.6 -3.5 6.9 -3.8 10.1 c -0.4 4.3 1.4 6.8 6.1 6.8 c 9.6 0 23 -8.6 25.8 -14.7 z m -69.7 20.7 c 2.1 0.2 4.4 0.8 5.9 1.8 c 2.1 1.5 2.2 3.6 -0.3 6.1 c -5.1 5.2 -12.9 4.3 -12.9 -1.4 c 0 -4.7 3.1 -6.8 7.2 -6.5 z m -0.1 1 c -3.6 -0.3 -6.1 1.5 -6.1 5.5 c 0 4.6 6.5 5.3 11.1 0.6 c 2 -2 2 -3.4 0.4 -4.5 c -1.3 -0.9 -3.5 -1.5 -5.4 -1.6 z m 29.6 -225.9 c 4.6 2.4 17.3 8.2 19.4 9.4 C 508.3 287.4 510.7 289.3 512.7 291.6 C 514 293.3 515.3 295 516.4 296.8 c 2.4 3.8 0 7.7 -6.2 11.6 c -5 3.2 -12.2 6.3 -21.9 9.8 c -4.8 1.7 -19.6 6.7 -21.1 7.2 c -6.6 2.3 -14.9 0.1 -25.1 -5.9 c -3.9 -2.3 -8 -5 -12.9 -8.5 c -2.2 -1.6 -9.5 -7 -10.7 -7.9 C 415.6 301.1 412.8 299.2 409.8 297.5 c -4.8 -2.6 -4.4 -6.6 0.2 -12.1 c 3.3 -3.9 4.2 -4.7 18.1 -16.3 C 431.1 266.5 434 264 436.9 261.3 C 438.5 259.8 440.1 258.3 441.6 256.6 c 5.1 -5.4 9.8 -6.5 15 -3.9 c 2.2 1.1 4.5 2.8 7.4 5.5 c 1.5 1.4 6.9 6.7 8 7.7 c 5.2 4.9 9.5 8.2 14.2 10.6 z m -0.5 0.9 c -4.9 -2.4 -9.2 -5.8 -14.4 -10.8 c -1.1 -1 -6.5 -6.3 -8 -7.7 c -2.8 -2.6 -5.1 -4.3 -7.2 -5.4 c -4.8 -2.4 -9 -1.4 -13.8 3.7 C 440.8 259 439.2 260.5 437.6 262 c -2.5 2.3 -5.2 4.6 -8.9 7.8 c -13.9 11.6 -14.8 12.4 -18 16.2 c -4.3 5.1 -4.6 8.4 -0.5 10.6 c 2.2 1.2 4.9 3 8.7 5.8 c 1.2 0.9 8.5 6.2 10.7 7.9 C 433.8 313.3 438.1 316.1 442.5 318.7 c 10.1 5.8 18.1 8 24.3 5.8 c 1.5 -0.5 16.3 -5.5 21.1 -7.2 c 9.7 -3.5 16.9 -6.6 21.8 -9.7 c 5.8 -3.7 7.9 -7.1 5.9 -10.3 C 514.5 295.6 513.3 293.9 511.9 292.3 C 510 290 507.7 288.2 505.1 286.8 c -2.1 -1.2 -14.7 -7.1 -19.4 -9.4 z m -38.8 8.1 c 3.1 -0.4 5.7 -0.1 8.4 0.7 c 2.1 0.7 2.7 0.9 8.6 3.8 c 4.8 2.3 8.4 3.9 13.2 5.6 c 8.4 3 11.3 6.2 8.8 9.8 c -2.1 2.9 -8 5.9 -17.8 9.2 c -8.4 2.8 -15.5 2.4 -21.4 -0.9 c -4.6 -2.6 -8.3 -6.5 -12.1 -12.3 c -2.9 -4.4 -2.7 -8.2 0.2 -11.1 c 2.5 -2.4 6.9 -4.1 12.2 -4.7 z m 0.1 1 c -5.1 0.6 -9.3 2.2 -11.6 4.4 c -2.5 2.5 -2.7 5.8 0 9.8 c 3.7 5.7 7.3 9.5 11.8 12 c 5.7 3.1 12.4 3.6 20.6 0.8 c 9.6 -3.2 15.4 -6.1 17.3 -8.8 c 1.9 -2.8 -0.5 -5.4 -8.4 -8.2 c -4.8 -1.7 -8.5 -3.3 -13.3 -5.6 c -5.8 -2.8 -6.4 -3.1 -8.5 -3.7 C 452.5 286.3 449.7 286.1 447.1 286.5 z M 202.5 500.4 c 0 4.8 -1.4 7.6 -4.4 8.9 c -2.3 1.1 -4.6 1.2 -10.8 1.2 l -1.8 0 c -9.2 0 -17 -7.6 -17 -15.5 c 0 -7.6 10.6 -10.5 19.7 -5.4 c 2.8 1.6 4.2 1.9 8.6 2.8 c 4.4 0.8 5.7 2.3 5.7 8.1 z m -1 0 c 0 -5.3 -0.9 -6.3 -4.9 -7.1 c -4.4 -0.8 -6 -1.3 -8.9 -2.9 c -8.6 -4.8 -18.3 -2.1 -18.3 4.6 c 0 7.3 7.4 14.5 16 14.5 h 1.8 c 6.1 0 8.3 -0.1 10.4 -1.1 c 2.6 -1.2 3.8 -3.6 3.8 -8 z m 33.3 -117.9 c 3.7 -1.3 8.7 -2.7 16.1 -4.6 c 2.6 -0.6 16.5 -4 20.6 -5.1 c 19.6 -4.9 31.6 -8.9 38.2 -13.4 c 14.9 -9.9 36.9 -33.9 43.8 -47.8 c 2.3 -4.5 4.6 -6.4 7.7 -6.3 c 1.3 0.1 2.6 0.4 4.3 1.2 C 366.8 307.3 367.9 307.8 369.1 308.4 l 1.3 0.6 c 4.8 2.3 8.4 3.4 12.6 3.4 c 7.2 0 10 3.1 8.4 7.9 c -1.4 4.1 -5.9 8.9 -11.1 12 c -8.3 5 -11.8 17.3 -11.8 33.6 c 0 3.6 -1.4 6.3 -4 8.4 c -2 1.6 -4.2 2.6 -8.5 4.2 l -1 0.4 c -4.9 1.8 -7 2.8 -8.7 4.5 c -5.1 5.1 -12.5 7.1 -20.4 7.1 c -1.4 0 -2.5 0.9 -4 3.1 c -0.3 0.4 -1.3 1.9 -1.5 2.2 c -2.7 3.9 -4.9 5.7 -8.5 5.7 c -7.8 0 -10.7 0.9 -21.8 6.9 c -5.2 2.8 -8.8 3.6 -14.7 3.7 c -0.3 0 -0.5 0 -0.9 0 c -4.8 0.1 -7.1 0.3 -10.5 1.3 C 261.1 414.5 258.1 415.7 255.3 417 c -2.2 1 -10.5 5 -10.2 4.9 c -7.8 3.7 -13.3 6 -18.9 7.6 c -12.4 3.6 -18.6 2.2 -27.4 -4.1 c -2.6 -1.9 -2.7 -4.4 -0.8 -7.6 c 1.4 -2.4 3.9 -5.1 8.1 -9 l 1.8 -1.6 c 3.9 -3.6 4.5 -4.1 5.9 -5.5 c 2.3 -2.3 3.1 -3.5 5.5 -7.6 c 1.9 -3.4 3.4 -5.1 6.3 -7.1 c 2.3 -1.5 5.3 -3 9.4 -4.4 z m 0.3 0.9 c -4 1.4 -7 2.8 -9.2 4.3 c -2.8 1.9 -4.1 3.5 -6 6.7 c -2.4 4.2 -3.2 5.4 -5.6 7.8 c -1.4 1.4 -2 2 -5.9 5.6 l -1.8 1.6 c -4.1 3.8 -6.5 6.4 -7.9 8.8 c -1.7 2.8 -1.5 4.8 0.6 6.3 c 8.6 6.1 14.5 7.4 26.6 3.9 c 5.5 -1.6 11 -3.8 18.7 -7.5 c -0.3 0.1 8.1 -3.9 10.2 -4.9 C 257.8 414.7 260.8 413.5 263.8 412.5 c 3.5 -1.1 5.9 -1.3 10.8 -1.4 h 0.9 c 5.7 -0.1 9.2 -0.8 14.2 -3.6 c 11.2 -6.1 14.2 -7.1 22.2 -7.1 c 3.2 0 5.2 -1.6 7.7 -5.3 l 1.5 -2.2 c 1.7 -2.4 3 -3.5 4.8 -3.5 c 7.6 0 14.8 -2 19.6 -6.9 c 1.8 -1.8 4 -2.9 9 -4.7 l 1 -0.4 c 8.6 -3.1 11.8 -5.7 11.8 -11.6 c 0 -16.6 3.5 -29.2 12.2 -34.4 c 5 -3 9.4 -7.7 10.7 -11.5 c 1.4 -4.1 -0.8 -6.6 -7.4 -6.6 c -4.4 0 -8.2 -1.1 -13.1 -3.5 c -7.5 -3.7 -6.8 -3.3 -8.7 -3.4 c -2.6 -0.1 -4.6 1.5 -6.7 5.7 c -7 14.1 -29.1 38.1 -44.2 48.2 c -6.8 4.5 -18.8 8.5 -38.6 13.5 c -4 1 -18 4.4 -20.6 5.1 c -7.4 1.8 -12.3 3.2 -16 4.5 z M 252 387.5 c 2.1 0 4 -0.2 7.3 -0.7 c 5.2 -0.8 6.6 -0.9 8.5 -0.5 c 2.5 0.6 3.8 2.4 3.8 5.7 c 0 4.1 -2.3 7.3 -6.6 10.1 c -3.2 2.1 -6.5 3.5 -14.2 6.4 l -0.3 0.1 l -2.3 0.9 c -3 1.2 -5.3 2.5 -9.3 5.4 l -0.8 0.6 c -8.2 5.9 -13.3 8 -23.1 8 c -5 0 -6.9 -2 -5.8 -5.6 c 0.9 -2.8 3.6 -6.6 7.8 -11.1 c 1.3 -1.4 2.6 -2.8 4.2 -4.3 c 3.2 -3.1 11.3 -10.6 11.4 -10.8 c 0.5 -0.5 0.9 -0.9 1.4 -1.3 c 3.4 -2.7 5.8 -3.1 14.2 -2.9 c 1.7 0 2.6 0 3.8 0 z m 0 1 c -1.2 0 -2.1 0 -3.8 0 c -8.2 -0.1 -10.4 0.2 -13.5 2.7 c -0.4 0.4 -0.9 0.7 -1.3 1.2 c -0.2 0.2 -8.3 7.7 -11.4 10.8 C 220.5 404.6 219.1 406 217.8 407.4 c -4.1 4.5 -6.8 8.1 -7.6 10.8 c -0.9 2.9 0.4 4.3 4.8 4.3 c 9.5 0 14.4 -2.1 22.5 -7.8 l 0.8 -0.6 c 4.1 -3 6.4 -4.4 9.6 -5.6 l 2.3 -0.9 l 0.3 -0.1 c 7.6 -2.8 10.8 -4.3 14 -6.3 c 4.1 -2.6 6.2 -5.6 6.2 -9.3 c 0 -2.9 -1 -4.3 -3 -4.7 c -1.6 -0.4 -3.1 -0.3 -8.1 0.5 c -3.3 0.5 -5.3 0.7 -7.4 0.7 z m 112.5 -45.3 c -1.9 5.4 -2 6.8 -1 12.8 c 1.2 7.1 -1.4 16.6 -5.5 16.6 C 357.5 372.5 357 372.5 356.5 372.6 l -0.6 0 c -2.9 0.2 -4.8 0.2 -6.9 -0.2 c -6.6 -1.1 -10.4 -5.1 -10.4 -13.4 c 0 -13.9 2.1 -19.7 8.1 -26.3 C 347.6 331.5 348.4 330.3 349.1 328.9 c 0.6 -1 2.8 -5.1 2.7 -5 c 4.4 -8.1 7.7 -11.5 12.3 -10.4 c 1.2 0.3 2.2 0.8 3.6 1.6 l 1.4 0.8 C 370.1 316.6 371.1 317.1 372.2 317.5 c 0.7 0.3 1.8 0.3 4.8 0.3 l 0.7 0 c 3.2 -0.1 4.8 0.1 5.8 0.7 c 1.6 0.9 1.2 2.6 -1.1 4.9 C 381.1 324.6 379.8 325.9 378.5 327.1 c -10.6 10.1 -12.8 12.4 -14 16.1 z m -0.9 -0.3 c 1.3 -3.9 3.5 -6.2 14.3 -16.5 c 1.6 -1.5 2.7 -2.6 3.9 -3.7 c 1.9 -1.9 2.2 -2.9 1.4 -3.3 c -0.8 -0.4 -2.4 -0.6 -5.3 -0.5 l -0.7 0 c -3.1 0.1 -4.3 0 -5.1 -0.3 c -1.1 -0.4 -2 -0.9 -3.3 -1.7 l -1.4 -0.8 C 366.2 315.3 365.1 314.8 363.9 314.5 c -3.9 -1 -6.9 2.2 -11.1 9.9 c 0.1 -0.1 -2.1 4 -2.7 5 C 349.3 330.8 348.4 332.1 347.4 333.3 c -5.8 6.5 -7.9 12 -7.9 25.7 c 0 7.8 3.5 11.5 9.6 12.4 c 2 0.3 3.9 0.3 6.7 0.2 C 356.2 371.6 356.6 371.6 357 371.5 c 0.4 0 0.7 0 1 0 c 3.2 0 5.6 -8.9 4.5 -15.4 c -1 -6.2 -0.9 -7.6 1 -13.2 z m -9.3 12.4 c 0.6 0.5 2.5 1.9 2.6 1.9 c 2 1.6 2 3.3 0 6.4 c -3.7 5.6 -8.8 3.1 -8.8 -4.6 c 0 -3.8 0.5 -5.7 2.1 -6 c 1.2 -0.3 2 0.3 4.2 2.3 z m -1.3 1.5 c -1.5 -1.4 -2.2 -1.9 -2.4 -1.8 c -0.2 0 -0.5 1.2 -0.5 4.1 c 0 5.9 2.7 7.2 5.2 3.4 c 1.5 -2.3 1.5 -2.8 0.4 -3.7 c 0 0 -1.9 -1.4 -2.6 -2 z m 222.9 -130.2 c 2.2 -1.1 3.7 -1.7 5.9 -2.4 l 0.3 -0.1 C 585 223.2 588 222 590.8 220.5 c 4.2 -2.1 6.4 -1.9 7 0.8 c 0.4 2 0.2 4 -1.3 12.7 c -2.3 13.6 -9.2 26.1 -21.2 36.3 c -4.3 3.6 -7.4 4.4 -9.8 2.4 c -1.9 -1.6 -3.1 -4.6 -4.6 -10.5 c -0.3 -1.1 -1.4 -5.8 -1.7 -7 C 558.5 252.3 557.6 249.2 556.5 246.2 c -2.4 -6.8 -3 -10.8 -2.1 -12.9 c 0.8 -1.8 2.1 -2.2 5.6 -2.4 c 1.5 -0.1 2.1 -0.1 3 -0.3 l 2 -0.3 c 0.7 -0.1 1.2 -0.2 1.7 -0.3 c 1.1 -0.2 1.9 -0.4 2.7 -0.6 c 1.7 -0.5 3.4 -1.2 6.5 -2.7 z m 0.4 0.9 c -3.1 1.5 -4.9 2.3 -6.6 2.8 c -0.8 0.2 -1.7 0.4 -2.8 0.6 C 565.5 231.1 564.3 231.3 563 231.5 c -0.8 0.1 -1.4 0.2 -2.9 0.3 c -3.1 0.2 -4.2 0.5 -4.7 1.8 c -0.8 1.8 -0.2 5.6 2.1 12.2 C 558.5 248.9 559.4 252 560.2 255.1 l 1.7 7 c 1.5 5.7 2.6 8.6 4.3 10 c 1.9 1.6 4.5 0.9 8.5 -2.4 c 11.8 -10 18.6 -22.3 20.8 -35.7 c 1.4 -8.4 1.6 -10.5 1.3 -12.3 c -0.4 -1.9 -1.9 -2 -5.5 -0.2 C 588.4 222.9 585.4 224.1 582.3 225 l -0.3 0.1 C 580 225.7 578.1 226.5 576.3 227.4 z m -4.5 6.6 c 1.4 -0.3 2.5 -0.8 3.9 -1.4 c 0.4 -0.2 2.6 -1.3 3.3 -1.7 c 1.5 -0.7 3 -1.3 4.7 -1.9 c 2.7 -0.9 4.6 -0.8 5.9 0.4 c 1 0.9 1.3 2.3 1.4 4.2 c 0 0.4 0 0.7 0 1.4 c 0 5.6 -4.6 16.9 -11.3 22.8 c -4.3 3.8 -7.3 4.7 -9.9 2.5 c -2.1 -1.7 -3.5 -4.7 -6.7 -12.9 c -1.9 -4.8 -2 -8.1 -0.7 -10.2 c 1.1 -1.7 2.9 -2.4 5.8 -2.7 l 1.3 -0.1 c 1.2 -0.1 1.8 -0.2 2.3 -0.3 z m -2.1 2.3 l -1.2 0.1 c -2.4 0.3 -3.7 0.8 -4.4 1.8 c -0.9 1.4 -0.8 4.1 0.9 8.4 c 3 7.8 4.4 10.7 6.1 12.1 c 1.6 1.3 3.6 0.8 7.3 -2.5 C 584.6 250.8 589 240.1 589 235 c 0 -0.6 0 -0.9 0 -1.3 c 0 -1.4 -0.3 -2.3 -0.8 -2.8 c -0.6 -0.6 -1.8 -0.7 -3.9 0 C 582.8 231.5 581.3 232.1 579.9 232.8 c -0.7 0.3 -2.9 1.5 -3.3 1.7 C 575.2 235.1 573.7 235.6 572.2 236 c -0.7 0.2 -1.3 0.2 -2.6 0.4 z m -227.7 -89 c -1.6 4.3 -3.5 7.3 -7.1 11.4 l -2.6 3 C 331.3 162.8 330.4 163.8 329.6 165 C 327.8 167.3 326.2 169.8 324.9 172.4 c -2.9 5.7 -7.1 10.2 -12.9 13.9 c -4.3 2.8 -8.3 4.6 -15.7 7.6 c -11 4.4 -16.4 1.3 -27.2 -16.4 c -2.9 -4.7 -8.8 -8.6 -18 -12.7 c -3 -1.3 -12.9 -5.2 -14.4 -5.9 c -5 -2.2 -7 -3.7 -6.4 -5.8 c 0.7 -2.3 5.3 -4.1 15.5 -6.1 c 16.6 -3.3 26.9 -3.8 39.9 -3 c 7.9 0.5 9.7 0.5 12.7 -0.3 c 2 -0.5 3.9 -1.3 6 -2.6 l 2.8 -1.7 c 9.9 -6.1 12.9 -8 17.3 -9.9 c 6 -2.7 10.6 -3.3 13.9 -1.4 c 7.2 4.1 7.7 7.7 3.4 19.2 z m -1.9 -0.7 c 3.9 -10.7 3.6 -13.3 -2.6 -16.8 c -2.7 -1.5 -6.6 -1 -12.1 1.5 c -4.2 1.9 -7.3 3.7 -17.1 9.8 l -2.8 1.7 C 303.5 144.1 301.3 145.1 299 145.7 c -3.4 0.8 -5.2 0.8 -13.3 0.3 c -12.8 -0.8 -23 -0.3 -39.4 3 c -4.9 1 -8.4 1.9 -10.8 2.8 c -2 0.8 -3 1.4 -3.2 1.9 c -0.2 0.6 1.5 1.8 5.3 3.5 c 1.5 0.7 11.4 4.6 14.4 5.9 c 9.5 4.2 15.7 8.3 18.9 13.4 c 10.4 16.9 14.9 19.6 24.8 15.6 c 7.3 -2.9 11.2 -4.8 15.3 -7.4 c 5.4 -3.5 9.5 -7.8 12.1 -13.1 c 1.4 -2.9 3 -5.4 4.9 -7.8 C 328.8 162.6 329.7 161.5 330.7 160.4 l 2.6 -3 c 3.5 -4 5.3 -6.8 6.8 -10.8 z m -6.6 -0.4 c -7.9 12.8 -18.5 21.8 -33.3 25.2 c -7.8 1.8 -12.5 -0.8 -13.1 -5.9 c -0.6 -4.4 2.3 -9.1 6 -9.1 c 3 0 5.6 -1.7 15.4 -9.2 c 1.5 -1.1 2.6 -2 3.7 -2.7 c 4.4 -3.2 7.8 -5.2 10.8 -6.1 c 5.6 -1.7 9.3 -2.2 11.4 -1.2 c 2.5 1.1 2.2 4.1 -0.8 9 z m -0.8 -0.5 c 2.7 -4.4 2.9 -6.7 1.2 -7.5 c -1.7 -0.8 -5.3 -0.3 -10.6 1.3 c -2.9 0.9 -6.2 2.8 -10.5 5.9 c -1.1 0.8 -2.2 1.6 -3.6 2.7 c -10.1 7.7 -12.6 9.4 -16 9.4 c -3 0 -5.5 4 -5 7.9 c 0.6 4.5 4.6 6.8 11.9 5.1 c 14.5 -3.4 24.9 -12.2 32.7 -24.8 z M 461.2 33.5 c 13.9 5 20.8 5 31.6 0 c 3 -1.4 5.5 -2.9 11 -6.8 c 5.6 -3.9 8.1 -5.5 11.1 -6.9 c 4.1 -1.9 7.8 -2.4 11.2 -1.3 c 3.9 1.3 6.2 12.3 6.8 28.5 c 0.5 14.2 -0.5 28.9 -2.5 34.2 c -1.8 4.9 -5.9 8.2 -11.5 10 C 514.8 92.5 510.4 93.1 506 93 c -5.8 0 -9 2.4 -12.2 7.6 c -0.4 0.6 -1.6 2.6 -1.7 2.9 c -1.8 2.9 -3.1 4.3 -4.9 5 c -0.9 0.3 -2.1 0.8 -3.9 1.7 l -2.4 1.2 c -1 0.5 -1.9 0.9 -2.7 1.3 c -6.4 3.1 -11.7 4.7 -17.2 4.7 c -5.7 0 -10 2.1 -14 5.9 c -1.2 1.1 -4.2 4.5 -4.6 4.9 c -2.5 2.4 -5.9 4.2 -10.9 6.1 c -1.4 0.5 -6 2.1 -6.3 2.2 l -2.1 0.8 c -0.9 0.4 -1.8 0.6 -2.7 0.8 c -5.6 1.1 -11.1 -0.5 -18 -4.4 c -1.3 -0.7 -5.1 -3.1 -5.8 -3.4 c -2.1 -1.2 -4.1 -1.5 -9.1 -1.9 l -1.7 -0.2 c -4.8 -0.4 -7.7 -1.1 -10.2 -3 c -5 -3.6 -6.8 -7.8 -5.6 -12.3 c 1.3 -5.4 6.5 -11 14.9 -17.3 C 387 94.2 389.2 92.7 391.4 91.2 c -0.3 0.2 4.3 -2.9 5.3 -3.6 c 2.7 -1.9 4.8 -3.9 12.8 -12 l 1.1 -1.1 c 3.5 -3.6 5.9 -5.9 8.1 -7.8 c 2.9 -2.5 4.7 -6 7.5 -13 l 0.6 -1.6 c 2.7 -6.9 4.3 -10 6.9 -12.3 c 1.4 -1.3 6.7 -6.5 7.9 -7.5 c 4 -3 8 -2.7 19.6 1.4 z m -0.3 0.9 c -11.3 -4 -15 -4.3 -18.6 -1.5 c -1.2 0.9 -6.4 6.1 -7.9 7.4 c -2.4 2.2 -4 5.2 -6.6 11.9 l -0.6 1.6 c -2.8 7.3 -4.7 10.8 -7.8 13.5 C 416.1 70.2 413.1 73.2 410.2 76.2 c -8 8.2 -10.1 10.2 -12.9 12.2 c -1 0.7 -5.6 3.8 -5.3 3.6 c -2.5 1.7 -4.5 3.1 -6.5 4.6 c -8.2 6.1 -13.2 11.6 -14.5 16.7 c -1 4.2 0.6 7.9 5.3 11.3 c 2.4 1.7 5.1 2.4 9.7 2.8 l 1.7 0.1 c 5.1 0.4 7.3 0.8 9.5 2.1 c 0.6 0.4 4.5 2.7 5.8 3.4 c 6.7 3.8 12 5.4 17.3 4.3 c 0.9 -0.2 1.7 -0.4 2.5 -0.8 C 423.5 136.3 424.2 136 424.9 135.7 c 0.3 -0.1 4.9 -1.7 6.2 -2.2 c 4.8 -1.8 8.1 -3.6 10.5 -5.9 c 0.4 -0.4 3.4 -3.8 4.6 -4.9 c 4.2 -4 8.7 -6.2 14.7 -6.2 c 5.3 0 10.4 -1.6 16.7 -4.6 c 0.8 -0.4 1.6 -0.8 2.7 -1.3 c 0.1 -0.1 1.9 -1 2.4 -1.2 c 1.8 -0.9 3 -1.5 4 -1.8 c 1.6 -0.5 2.8 -1.8 4.4 -4.5 l 1.7 -2.9 c 3.4 -5.5 6.9 -8.1 13.1 -8.1 c 4.4 0 8.7 -0.5 12.6 -1.8 c 5.4 -1.8 9.2 -4.8 10.9 -9.4 c 1.9 -5.1 2.9 -19.8 2.4 -33.8 c -0.6 -15.5 -2.8 -26.5 -6.1 -27.5 c -3.2 -1 -6.6 -0.6 -10.5 1.2 c -3 1.4 -5.5 2.9 -11 6.8 c -5.6 3.9 -8.1 5.5 -11.1 6.9 c -11.1 5 -18.3 5 -32.4 0 z M 475 55 c 5.4 0 7.6 -0.2 9.7 -1 c 1.3 -0.4 9.9 -4.8 14.9 -7 c 1.9 -0.8 3.6 -2.4 6.6 -6 c 2.6 -3 3.2 -3.8 4.4 -4.8 c 3.7 -3.4 7.1 -3.3 10.2 1.2 c 6.2 8.9 5.6 15.9 0.1 27 C 520 66.2 519.1 68.1 518.4 69.9 c -0.3 0.8 -1 2.7 -1.1 2.9 c -0.2 0.5 -0.3 0.8 -0.5 1.2 c -0.6 1.1 -1.6 2.2 -4 4.7 c -2.4 2.4 -5.2 3.3 -11.7 4.3 c -1.8 0.3 -2.2 0.4 -3 0.5 c -6 1.1 -9.6 2.7 -12.2 6.1 c -3.6 4.6 -7.9 7.5 -15 10.7 c -0.6 0.2 -1.1 0.5 -1.8 0.8 l -1.8 0.8 C 464.6 103.1 462 104.4 459.5 105.8 c -2.6 1.6 -4.8 2.3 -9.4 3.5 c -8.6 2.1 -12.3 3.8 -17.4 9.4 c -5.1 5.6 -10.2 7.6 -16.6 6.7 c -5.4 -0.8 -10.6 -3 -23.6 -9.5 c -6.3 -3.2 -6.4 -7.8 -1.5 -13.6 c 3.4 -3.9 3.5 -4.1 19.4 -16.4 c 8.1 -6.3 13 -10.6 16.6 -14.9 c 2.5 -3 4.2 -5.7 5 -8.3 c 5.5 -18.3 12.5 -22 22.8 -15.6 c 1.9 1.2 6.6 4.5 7.2 4.9 c 3.4 2.1 6.5 3 13 3 z m 0 2 c -6.8 0 -10.4 -0.9 -14.1 -3.3 c -0.6 -0.4 -5.3 -3.7 -7.2 -4.9 c -9.1 -5.6 -14.7 -2.7 -19.8 14.5 c -0.9 2.9 -2.7 5.8 -5.4 9 c -3.8 4.5 -8.7 8.8 -16.9 15.2 c -15.7 12.2 -15.9 12.4 -19.1 16.2 c -4.2 4.9 -4.1 8 0.9 10.5 c 12.7 6.3 17.9 8.5 22.9 9.3 c 5.8 0.8 10.2 -0.9 14.9 -6.1 c 5.4 -6 9.4 -7.8 18.4 -10 c 4.4 -1.1 6.5 -1.8 8.8 -3.2 C 461 102.6 463.7 101.3 466.4 100.1 l 1.8 -0.8 l 1.8 -0.8 c 6.8 -3.1 10.9 -5.9 14.2 -10.1 c 3 -3.9 7 -5.6 13.5 -6.8 c 0.8 -0.2 1.2 -0.2 3 -0.5 c 6.1 -1 8.6 -1.8 10.6 -3.8 c 2.4 -2.4 3.2 -3.3 3.7 -4.3 c 0.1 -0.3 0.3 -0.6 0.4 -0.9 c 0.1 -0.2 0.8 -2.1 1.1 -2.9 c 0.6 -1.6 1.5 -3.4 2.6 -5.6 c 5.2 -10.5 5.8 -16.8 0.1 -25 c -2.4 -3.4 -4.4 -3.5 -7.2 -0.9 c -1.1 1 -1.7 1.7 -4.2 4.6 c -3.2 3.9 -5 5.6 -7.3 6.6 c -4.8 2.1 -13.6 6.5 -15 7 c -2.4 0.8 -4.8 1.1 -10.4 1.1 z m -12.7 8.6 c 5.5 3.9 10.3 3.7 18.2 0.9 c 5.4 -1.9 5.9 -2.1 7.7 -2.1 c 2.5 0 4.2 1.4 5.2 4.5 c 1.7 5 -2.3 8.5 -12.3 12.7 c -2.7 1.1 -16.3 6.2 -20 7.7 c -7.9 3.2 -13.9 6.4 -18.9 10.2 c -13 9.8 -18.4 11.9 -23.7 9.7 C 417.3 108.5 416.1 107.9 415 107.1 l -2 -1.3 C 412.2 105.3 411.5 104.9 410.7 104.4 c -3.3 -2 -2.8 -4.3 0.9 -7.3 c 1.4 -1.1 10.7 -7.6 13.5 -9.9 c 7.1 -5.7 11.9 -11.5 14.4 -18.3 c 3.1 -8.5 4.9 -12.1 6.8 -13.4 c 1.7 -1.2 3.4 -0.5 6.2 1.9 c 0.6 0.6 3.4 3.1 4.1 3.7 c 1.9 1.7 3.7 3.1 5.7 4.6 z m -0.6 0.8 c -2 -1.4 -3.8 -2.9 -5.7 -4.6 c -0.7 -0.6 -3.5 -3.2 -4.1 -3.7 c -2.5 -2.2 -3.8 -2.6 -5 -1.8 c -1.7 1.1 -3.4 4.7 -6.4 12.9 c -2.6 7.1 -7.5 13 -14.7 18.8 c -2.9 2.3 -12.2 8.8 -13.5 9.9 c -3.2 2.7 -3.6 4.2 -1 5.7 l 2.3 1.4 l 2 1.3 c 1.5 0.9 2.5 1.5 3.5 1.9 c 4.9 2.1 10 0.1 22.7 -9.6 c 5 -3.8 11.1 -7 19.1 -10.3 c 3.8 -1.5 17.3 -6.6 20 -7.7 c 9.5 -4 13.1 -7.2 11.7 -11.4 c -0.9 -2.7 -2.3 -3.8 -4.3 -3.8 c -1.6 0 -2.1 0.2 -7.4 2 c -8.2 2.9 -13.3 3.1 -19.2 -1 z" filter="url(#grainy)" />
</svg>

